<svg width="550" height="417" viewBox="0 0 550 417" fill="none" xmlns="http://www.w3.org/2000/svg">
<g clip-path="url(#clip0)">
<path opacity="0.1" d="M517.102 226.309C497.766 252.841 504.147 290.712 515.324 320.884C519.068 330.984 523.32 341.667 521.379 352.656C519.009 366.09 507.866 376.155 496.285 381.637C475.171 391.629 450.23 390.033 431.343 377.444C415.045 366.579 403.572 348.522 386.957 338.175C359.151 320.864 323.053 328.599 292.106 341.815C270.212 351.164 246.229 363.205 224.893 354.572C209.878 348.497 199.768 333.034 194.449 316.503C191.881 308.522 190.083 299.859 184.967 293.611C181.924 289.897 177.904 287.309 173.77 285.146C136.042 265.391 87.5122 277.738 50.9348 255.696C26.2403 240.81 10.8705 211.922 4.4845 181.553C-1.90149 151.184 -0.32104 119.125 2.22249 87.6152C4.03013 65.2222 6.88975 41.2933 20.3532 23.696C34.592 5.09122 58.4567 -2.3023 79.7977 0.611644C101.139 3.52559 120.272 15.3789 137.01 29.5289C157.946 47.1805 177.208 69.3413 203.245 76.0434C220.981 80.6069 239.823 77.3769 258.26 75.9495C289.078 73.569 319.788 76.3101 350.311 79.4067C379.529 82.3701 408.95 85.6791 436.623 95.3939C456.206 102.269 471.729 115.263 490.165 124.143C502.182 129.932 515.403 131.275 526.713 138.752C540.671 147.964 553.284 164.282 549.19 183.864C545.323 202.479 527.375 212.228 517.102 226.309Z" fill="#2E205B"/>
<g opacity="0.5">
<path opacity="0.5" d="M422.27 347.323C422.27 347.323 423.9 299.041 450.022 271.758C460.986 260.31 468.187 245.77 470.094 230.035C470.985 222.567 471.19 215.033 470.706 207.528" stroke="#535461" stroke-width="2" stroke-miterlimit="10"/>
<path opacity="0.5" d="M487.069 190.247C485.281 195.64 470.336 208.027 470.336 208.027C470.336 208.027 465.758 189.155 467.546 183.767C467.971 182.485 468.644 181.3 469.527 180.278C470.411 179.256 471.487 178.419 472.694 177.813C473.901 177.207 475.215 176.845 476.562 176.747C477.909 176.649 479.263 176.818 480.544 177.243C481.826 177.668 483.012 178.341 484.034 179.225C485.055 180.108 485.893 181.184 486.499 182.391C487.105 183.598 487.467 184.913 487.564 186.26C487.662 187.607 487.494 188.96 487.069 190.242V190.247Z" fill="#2E205B"/>
<path opacity="0.5" d="M493.297 225.461C488.852 229.017 469.59 231.299 469.59 231.299C469.59 231.299 476.011 212.971 480.456 209.42C481.501 208.51 482.72 207.821 484.038 207.394C485.357 206.967 486.748 206.81 488.128 206.935C489.509 207.059 490.85 207.461 492.071 208.117C493.292 208.772 494.368 209.668 495.234 210.75C496.1 211.832 496.739 213.078 497.111 214.413C497.484 215.748 497.582 217.145 497.401 218.519C497.22 219.893 496.763 221.216 496.058 222.409C495.353 223.602 494.413 224.64 493.297 225.461Z" fill="#2E205B"/>
<path opacity="0.5" d="M475.675 276.252C470.054 277.082 452.259 269.338 452.259 269.338C452.259 269.338 467.046 256.753 472.667 255.924C474.003 255.726 475.365 255.794 476.675 256.122C477.985 256.451 479.217 257.035 480.301 257.84C481.386 258.645 482.301 259.656 482.995 260.815C483.689 261.974 484.147 263.258 484.345 264.594C484.542 265.93 484.475 267.292 484.146 268.602C483.817 269.912 483.233 271.144 482.428 272.228C481.623 273.313 480.612 274.228 479.454 274.922C478.295 275.616 477.011 276.074 475.675 276.272V276.252Z" fill="#2E205B"/>
<path opacity="0.5" d="M453.682 311.684C448.284 313.452 429.432 308.81 429.432 308.81C429.432 308.81 441.883 293.909 447.281 292.141C449.873 291.29 452.696 291.503 455.131 292.733C457.565 293.964 459.411 296.111 460.263 298.702C461.114 301.294 460.901 304.118 459.671 306.552C458.44 308.987 456.293 310.833 453.701 311.684H453.682Z" fill="#2E205B"/>
<path opacity="0.5" d="M448.743 225.545C451.365 230.582 468.108 240.445 468.108 240.445C468.108 240.445 469.629 221.09 467.007 216.047C466.384 214.849 465.53 213.786 464.496 212.917C463.462 212.049 462.267 211.393 460.979 210.987C459.691 210.58 458.336 210.432 456.991 210.549C455.645 210.667 454.336 211.048 453.138 211.671C451.94 212.294 450.877 213.148 450.009 214.182C449.141 215.216 448.485 216.411 448.078 217.699C447.672 218.987 447.523 220.342 447.641 221.687C447.758 223.033 448.139 224.342 448.763 225.54L448.743 225.545Z" fill="#2E205B"/>
<path opacity="0.5" d="M423.55 267.304C427.56 271.329 446.466 275.735 446.466 275.735C446.466 275.735 442.125 256.809 438.119 252.784C436.194 250.852 433.581 249.763 430.854 249.758C428.126 249.753 425.509 250.832 423.577 252.757C421.645 254.681 420.556 257.295 420.551 260.022C420.546 262.749 421.625 265.367 423.55 267.299V267.304Z" fill="#2E205B"/>
<path opacity="0.5" d="M404.634 311.255C407.903 315.897 425.797 323.439 425.797 323.439C425.797 323.439 424.72 304.054 421.446 299.406C420.688 298.254 419.706 297.266 418.559 296.501C417.412 295.736 416.123 295.209 414.768 294.953C413.413 294.696 412.02 294.714 410.673 295.007C409.325 295.299 408.05 295.86 406.924 296.655C405.797 297.45 404.842 298.464 404.115 299.636C403.388 300.808 402.905 302.114 402.693 303.476C402.481 304.839 402.546 306.23 402.882 307.567C403.219 308.904 403.821 310.16 404.653 311.26L404.634 311.255Z" fill="#2E205B"/>
<path opacity="0.5" d="M428.009 327.34C428.009 327.34 413.193 305.787 415.791 285.508C416.935 277.009 415.292 268.368 411.108 260.883C409.094 257.345 406.76 253.998 404.135 250.886" stroke="#535461" stroke-width="2" stroke-miterlimit="10"/>
<path opacity="0.5" d="M405.7 238.095C406.654 241.019 404.135 251.223 404.135 251.223C404.135 251.223 396.07 244.476 395.116 241.557C394.658 240.154 394.776 238.626 395.444 237.309C396.112 235.992 397.276 234.995 398.68 234.537C400.083 234.078 401.611 234.196 402.928 234.864C404.245 235.533 405.242 236.697 405.7 238.1V238.095Z" fill="#2E205B"/>
<path opacity="0.5" d="M419.742 251.425C418.956 254.388 411.291 261.594 411.291 261.594C411.291 261.594 408.19 251.548 408.975 248.575C409.353 247.147 410.282 245.928 411.559 245.186C412.836 244.443 414.355 244.239 415.783 244.617C417.211 244.994 418.43 245.924 419.173 247.201C419.915 248.478 420.12 249.997 419.742 251.425Z" fill="#2E205B"/>
<path opacity="0.5" d="M428.404 279.211C426.226 281.379 415.978 283.725 415.978 283.725C415.978 283.725 418.369 273.487 420.552 271.319C421.071 270.803 421.686 270.395 422.363 270.117C423.039 269.839 423.764 269.697 424.496 269.7C425.227 269.702 425.951 269.848 426.626 270.13C427.301 270.412 427.914 270.825 428.429 271.344C428.945 271.862 429.353 272.478 429.631 273.154C429.909 273.831 430.051 274.556 430.048 275.287C430.046 276.019 429.9 276.743 429.618 277.418C429.336 278.093 428.923 278.705 428.404 279.221V279.211Z" fill="#2E205B"/>
<path opacity="0.5" d="M430.227 301.718C428.444 304.222 418.719 308.257 418.719 308.257C418.719 308.257 419.347 297.762 421.129 295.258C421.553 294.662 422.09 294.155 422.709 293.766C423.329 293.378 424.018 293.115 424.739 292.993C425.46 292.871 426.198 292.892 426.911 293.055C427.624 293.219 428.297 293.521 428.893 293.944C429.49 294.368 429.996 294.904 430.385 295.524C430.774 296.143 431.036 296.833 431.158 297.554C431.28 298.275 431.259 299.013 431.096 299.726C430.933 300.438 430.631 301.112 430.207 301.708L430.227 301.718Z" fill="#2E205B"/>
<path opacity="0.5" d="M400.366 265.782C403.127 267.135 413.583 266.048 413.583 266.048C413.583 266.048 408.017 257.129 405.256 255.78C403.93 255.132 402.4 255.037 401.004 255.516C399.608 255.996 398.459 257.01 397.81 258.336C397.162 259.663 397.067 261.192 397.546 262.588C398.026 263.985 399.04 265.133 400.366 265.782Z" fill="#2E205B"/>
<path opacity="0.5" d="M402.831 292.081C405.873 292.546 415.524 288.382 415.524 288.382C415.524 288.382 407.543 281.537 404.505 281.092C403.045 280.87 401.557 281.237 400.368 282.113C399.178 282.988 398.386 284.3 398.164 285.76C397.942 287.219 398.309 288.708 399.184 289.897C400.059 291.086 401.371 291.879 402.831 292.101V292.081Z" fill="#2E205B"/>
<path opacity="0.5" d="M408.728 317.304C411.647 318.292 421.865 315.823 421.865 315.823C421.865 315.823 415.158 307.728 412.239 306.755C410.838 306.289 409.309 306.4 407.988 307.061C406.668 307.723 405.665 308.882 405.199 310.284C404.733 311.685 404.844 313.215 405.505 314.535C406.167 315.855 407.326 316.859 408.728 317.324V317.304Z" fill="#2E205B"/>
<path opacity="0.5" d="M405.7 238.095C406.654 241.019 404.135 251.223 404.135 251.223C404.135 251.223 396.07 244.476 395.116 241.557C394.658 240.154 394.776 238.626 395.444 237.309C396.112 235.992 397.276 234.995 398.68 234.537C400.083 234.078 401.611 234.196 402.928 234.864C404.245 235.533 405.242 236.697 405.7 238.1V238.095Z" fill="white"/>
<path opacity="0.5" d="M419.742 251.425C418.956 254.388 411.291 261.594 411.291 261.594C411.291 261.594 408.19 251.548 408.975 248.575C409.353 247.147 410.282 245.928 411.559 245.186C412.836 244.443 414.355 244.239 415.783 244.617C417.211 244.994 418.43 245.924 419.173 247.201C419.915 248.478 420.12 249.997 419.742 251.425Z" fill="white"/>
<path opacity="0.5" d="M428.404 279.211C426.226 281.379 415.978 283.725 415.978 283.725C415.978 283.725 418.369 273.487 420.552 271.319C421.071 270.803 421.686 270.395 422.363 270.117C423.039 269.839 423.764 269.697 424.496 269.7C425.227 269.702 425.951 269.848 426.626 270.13C427.301 270.412 427.914 270.825 428.429 271.344C428.945 271.862 429.353 272.478 429.631 273.154C429.909 273.831 430.051 274.556 430.048 275.287C430.046 276.019 429.9 276.743 429.618 277.418C429.336 278.093 428.923 278.705 428.404 279.221V279.211Z" fill="white"/>
<path opacity="0.5" d="M430.227 301.718C428.444 304.222 418.719 308.257 418.719 308.257C418.719 308.257 419.347 297.762 421.129 295.258C421.553 294.662 422.09 294.155 422.709 293.766C423.329 293.378 424.018 293.115 424.739 292.993C425.46 292.871 426.198 292.892 426.911 293.055C427.624 293.219 428.297 293.521 428.893 293.944C429.49 294.368 429.996 294.904 430.385 295.524C430.774 296.143 431.036 296.833 431.158 297.554C431.28 298.275 431.259 299.013 431.096 299.726C430.933 300.438 430.631 301.112 430.207 301.708L430.227 301.718Z" fill="white"/>
<path opacity="0.5" d="M400.366 265.782C403.127 267.135 413.583 266.048 413.583 266.048C413.583 266.048 408.017 257.129 405.256 255.78C403.93 255.132 402.4 255.037 401.004 255.516C399.608 255.996 398.459 257.01 397.81 258.336C397.162 259.663 397.067 261.192 397.546 262.588C398.026 263.985 399.04 265.133 400.366 265.782Z" fill="white"/>
<path opacity="0.5" d="M402.831 292.081C405.873 292.546 415.524 288.382 415.524 288.382C415.524 288.382 407.543 281.537 404.505 281.092C403.045 280.87 401.557 281.237 400.368 282.113C399.178 282.988 398.386 284.3 398.164 285.76C397.942 287.219 398.309 288.708 399.184 289.897C400.059 291.086 401.371 291.879 402.831 292.101V292.081Z" fill="white"/>
<path opacity="0.5" d="M408.728 317.304C411.647 318.292 421.865 315.823 421.865 315.823C421.865 315.823 415.158 307.728 412.239 306.755C410.838 306.289 409.309 306.4 407.988 307.061C406.668 307.723 405.665 308.882 405.199 310.284C404.733 311.685 404.844 313.215 405.505 314.535C406.167 315.855 407.326 316.859 408.728 317.324V317.304Z" fill="white"/>
<path opacity="0.5" d="M400.594 385.782H442.737L453.277 321.512H390.059L400.594 385.782Z" fill="#474059"/>
<path opacity="0.1" d="M398.124 321.512L407.967 381.569H443.429L442.737 385.782H400.594L390.059 321.512H398.124Z" fill="black"/>
</g>
<path d="M408.585 19.4055H99.41V392.44H408.585V19.4055Z" fill="url(#paint0_linear)"/>
<path d="M404.634 24.176H103.361V387.679H404.634V24.176Z" fill="white"/>
<path d="M341.91 65.1685H220.413V71.0951H341.91V65.1685Z" fill="#C0BCCF"/>
<path d="M341.91 83.9355H220.413V89.8622H341.91V83.9355Z" fill="#C0BCCF"/>
<path d="M312.77 102.704H249.552V108.631H312.77V102.704Z" fill="#2E205B"/>
<path opacity="0.5" d="M341.91 184.196H220.413V190.122H341.91V184.196Z" fill="#C0BCCF"/>
<path opacity="0.5" d="M341.91 202.964H220.413V208.891H341.91V202.964Z" fill="#C0BCCF"/>
<path opacity="0.5" d="M312.77 221.731H249.552V227.658H312.77V221.731Z" fill="#2E205B"/>
<path opacity="0.5" d="M341.91 303.224H220.413V309.151H341.91V303.224Z" fill="#C0BCCF"/>
<path opacity="0.5" d="M341.91 321.991H220.413V327.918H341.91V321.991Z" fill="#C0BCCF"/>
<path opacity="0.5" d="M312.77 340.758H249.552V346.685H312.77V340.758Z" fill="#2E205B"/>
<g opacity="0.5">
<path opacity="0.5" d="M177.637 217.252L175.089 216.106C175.128 215.719 175.144 215.33 175.138 214.941C175.156 214.612 175.156 214.282 175.138 213.953C174.886 211.355 173.232 209.093 172.061 206.717C170.989 204.549 170.309 202.208 170.051 199.803C169.74 196.84 170.051 193.768 168.964 190.982C168.08 188.735 166.332 186.858 164.46 185.199C162.359 183.227 159.904 181.67 157.225 180.61C154.489 179.623 151.342 179.371 148.606 180.378C146.137 181.287 144.235 183.1 142.398 184.863C141.064 186.038 139.886 187.379 138.892 188.853C137.77 190.691 137.291 192.804 136.916 194.889C136.326 198.226 135.921 201.592 135.701 204.974C135.508 207.794 135.207 210.994 132.797 212.723C131.621 213.568 129.967 214.042 129.429 215.321C129.276 215.705 129.215 216.119 129.251 216.531C129.236 216.873 129.261 217.216 129.325 217.553C129.359 217.751 129.399 217.943 129.448 218.141C128.757 219.86 128.176 221.622 127.71 223.416C127.349 224.749 127.018 226.058 126.722 227.327H127.522H127.947L132.55 227.436H132.614L137.553 227.55H137.578L142.181 227.658H142.294L143.623 227.752H144.058L162.465 228.177H162.564L163.788 228.206H164.218L167.903 228.29L173.335 228.414H173.375L177.464 228.513H177.899H178.739L178.521 224.226C179.42 217.662 177.637 217.252 177.637 217.252ZM156.958 216.728C156.958 220.363 153.066 224.813 153.066 224.813L149.15 219.479L149.293 219.272L153.066 224.408C153.066 224.408 156.958 219.963 156.958 216.323C157.049 216.138 157.153 215.96 157.269 215.79L157.358 216.067C157.209 216.277 157.075 216.498 156.958 216.728ZM162.944 230.992C162.944 230.809 162.944 230.622 162.909 230.439C162.875 230.256 162.88 230.093 162.855 229.915C162.83 229.737 162.811 229.565 162.786 229.387C162.761 229.209 162.727 229.036 162.692 228.858C162.657 228.681 162.623 228.508 162.583 228.33C162.583 228.271 162.559 228.216 162.544 228.152C162.49 227.92 162.43 227.688 162.366 227.456C162.302 227.224 162.262 227.08 162.203 226.898C162.203 226.814 162.154 226.73 162.124 226.651C162.094 226.572 162.04 226.384 161.996 226.251L161.907 225.994C161.867 225.88 161.828 225.762 161.783 225.648C161.709 225.441 161.63 225.238 161.551 225.031C161.472 224.823 161.388 224.621 161.304 224.418C161.136 224.003 160.954 223.593 160.771 223.179C160.055 221.578 159.25 220.003 158.509 218.442C158.112 217.626 157.759 216.788 157.452 215.933L157.358 216.057C157.208 216.269 157.075 216.492 156.958 216.723C156.958 220.358 153.066 224.808 153.066 224.808L149.15 219.474L145.722 224.413C145.228 224.66 144.734 225.5 144.349 226.695C144.24 227.016 144.137 227.372 144.038 227.742C143.969 227.994 143.905 228.236 143.845 228.518C143.811 228.651 143.781 228.784 143.751 228.923L143.663 229.342V229.407C143.603 229.693 143.544 229.989 143.49 230.291C143.435 230.592 143.371 230.938 143.317 231.278C143.277 231.492 143.243 231.705 143.213 231.915C143.144 232.325 143.085 232.74 143.025 233.155C142.991 233.397 142.956 233.649 142.927 233.871L142.808 234.79C143.06 235.546 143.341 236.272 143.633 237.032C143.818 237.432 143.927 237.862 143.954 238.301C150.03 239.921 156.424 239.921 162.499 238.301C162.497 238.287 162.497 238.272 162.499 238.257C162.408 237.844 162.369 237.421 162.381 236.998C162.481 235.811 162.646 234.63 162.875 233.461C162.948 232.885 162.979 232.304 162.969 231.723V231.515C162.954 231.328 162.949 231.16 162.944 230.997V230.992ZM162.944 230.992C162.944 230.809 162.944 230.622 162.909 230.439C162.875 230.256 162.88 230.093 162.855 229.915C162.83 229.737 162.811 229.565 162.786 229.387C162.761 229.209 162.727 229.036 162.692 228.858C162.657 228.681 162.623 228.508 162.583 228.33C162.583 228.271 162.559 228.216 162.544 228.152C162.49 227.92 162.43 227.688 162.366 227.456C162.302 227.224 162.262 227.08 162.203 226.898C162.203 226.814 162.154 226.73 162.124 226.651C162.094 226.572 162.04 226.384 161.996 226.251L161.907 225.994C161.867 225.88 161.828 225.762 161.783 225.648C161.709 225.441 161.63 225.238 161.551 225.031C161.472 224.823 161.388 224.621 161.304 224.418C161.136 224.003 160.954 223.593 160.771 223.179C160.055 221.578 159.25 220.003 158.509 218.442C158.112 217.626 157.759 216.788 157.452 215.933L157.358 216.057C157.208 216.269 157.075 216.492 156.958 216.723C156.958 220.358 153.066 224.808 153.066 224.808L149.15 219.474L145.722 224.413C145.228 224.66 144.734 225.5 144.349 226.695C144.24 227.016 144.137 227.372 144.038 227.742C143.969 227.994 143.905 228.236 143.845 228.518C143.811 228.651 143.781 228.784 143.751 228.923L143.663 229.342V229.407C143.603 229.693 143.544 229.989 143.49 230.291C143.435 230.592 143.371 230.938 143.317 231.278C143.277 231.492 143.243 231.705 143.213 231.915C143.144 232.325 143.085 232.74 143.025 233.155C142.991 233.397 142.956 233.649 142.927 233.871L142.808 234.79C143.06 235.546 143.341 236.272 143.633 237.032C143.818 237.432 143.927 237.862 143.954 238.301C150.03 239.921 156.424 239.921 162.499 238.301C162.497 238.287 162.497 238.272 162.499 238.257C162.408 237.844 162.369 237.421 162.381 236.998C162.481 235.811 162.646 234.63 162.875 233.461C162.948 232.885 162.979 232.304 162.969 231.723V231.515C162.954 231.328 162.949 231.16 162.944 230.997V230.992ZM162.944 230.992C162.944 230.809 162.944 230.622 162.909 230.439C162.875 230.256 162.88 230.093 162.855 229.915C162.83 229.737 162.811 229.565 162.786 229.387C162.761 229.209 162.727 229.036 162.692 228.858C162.657 228.681 162.623 228.508 162.583 228.33C162.583 228.271 162.559 228.216 162.544 228.152C162.49 227.92 162.43 227.688 162.366 227.456C162.302 227.224 162.262 227.08 162.203 226.898C162.203 226.814 162.154 226.73 162.124 226.651C162.094 226.572 162.04 226.384 161.996 226.251L161.907 225.994C161.867 225.88 161.828 225.762 161.783 225.648C161.709 225.441 161.63 225.238 161.551 225.031C161.472 224.823 161.388 224.621 161.304 224.418C161.136 224.003 160.954 223.593 160.771 223.179C160.055 221.578 159.25 220.003 158.509 218.442C158.112 217.626 157.759 216.788 157.452 215.933L157.358 216.057C157.208 216.269 157.075 216.492 156.958 216.723C156.958 220.358 153.066 224.808 153.066 224.808L149.15 219.474L145.722 224.413C145.228 224.66 144.734 225.5 144.349 226.695C144.24 227.016 144.137 227.372 144.038 227.742C143.969 227.994 143.905 228.236 143.845 228.518C143.811 228.651 143.781 228.784 143.751 228.923L143.663 229.342V229.407C143.603 229.693 143.544 229.989 143.49 230.291C143.435 230.592 143.371 230.938 143.317 231.278C143.277 231.492 143.243 231.705 143.213 231.915C143.144 232.325 143.085 232.74 143.025 233.155C142.991 233.397 142.956 233.649 142.927 233.871L142.808 234.79C143.06 235.546 143.341 236.272 143.633 237.032C143.818 237.432 143.927 237.862 143.954 238.301C150.03 239.921 156.424 239.921 162.499 238.301C162.497 238.287 162.497 238.272 162.499 238.257C162.408 237.844 162.369 237.421 162.381 236.998C162.481 235.811 162.646 234.63 162.875 233.461C162.948 232.885 162.979 232.304 162.969 231.723V231.515C162.954 231.328 162.949 231.16 162.944 230.997V230.992ZM162.944 230.992C162.944 230.809 162.944 230.622 162.909 230.439C162.875 230.256 162.88 230.093 162.855 229.915C162.83 229.737 162.811 229.565 162.786 229.387C162.761 229.209 162.727 229.036 162.692 228.858C162.657 228.681 162.623 228.508 162.583 228.33C162.583 228.271 162.559 228.216 162.544 228.152C162.49 227.92 162.43 227.688 162.366 227.456C162.302 227.224 162.262 227.08 162.203 226.898C162.203 226.814 162.154 226.73 162.124 226.651C162.094 226.572 162.04 226.384 161.996 226.251L161.907 225.994C161.867 225.88 161.828 225.762 161.783 225.648C161.709 225.441 161.63 225.238 161.551 225.031C161.472 224.823 161.388 224.621 161.304 224.418C161.136 224.003 160.954 223.593 160.771 223.179C160.055 221.578 159.25 220.003 158.509 218.442C158.112 217.626 157.759 216.788 157.452 215.933L157.358 216.057C157.208 216.269 157.075 216.492 156.958 216.723C156.958 220.358 153.066 224.808 153.066 224.808L149.15 219.474L145.722 224.413C145.228 224.66 144.734 225.5 144.349 226.695C144.24 227.016 144.137 227.372 144.038 227.742C143.969 227.994 143.905 228.236 143.845 228.518C143.811 228.651 143.781 228.784 143.751 228.923L143.663 229.342V229.407C143.603 229.693 143.544 229.989 143.49 230.291C143.435 230.592 143.371 230.938 143.317 231.278C143.277 231.492 143.243 231.705 143.213 231.915C143.144 232.325 143.085 232.74 143.025 233.155C142.991 233.397 142.956 233.649 142.927 233.871L142.808 234.79C143.06 235.546 143.341 236.272 143.633 237.032C143.818 237.432 143.927 237.862 143.954 238.301C150.03 239.921 156.424 239.921 162.499 238.301C162.497 238.287 162.497 238.272 162.499 238.257C162.408 237.844 162.369 237.421 162.381 236.998C162.481 235.811 162.646 234.63 162.875 233.461C162.948 232.885 162.979 232.304 162.969 231.723V231.515C162.954 231.328 162.949 231.16 162.944 230.997V230.992Z" fill="url(#paint1_linear)"/>
<path opacity="0.5" d="M163.122 196.543H140.403V211.854H163.122V196.543Z" fill="#493545"/>
<path opacity="0.5" d="M166.895 213.428L157.388 226.823L147.451 225.958C147.451 225.958 134.486 226.818 143.129 216.886C147.283 212.11 148.641 208.129 148.932 205.289C149.248 202.217 148.315 200.469 148.315 200.469L159.116 199.175C158.629 200.63 158.567 202.195 158.939 203.684C160.292 209.295 166.895 213.428 166.895 213.428Z" fill="#C77485"/>
<path opacity="0.1" d="M158.934 203.671C157.525 204.737 155.876 205.442 154.131 205.723C152.387 206.003 150.6 205.852 148.927 205.281C149.243 202.209 148.31 200.46 148.31 200.46L159.111 199.166C158.625 200.62 158.563 202.183 158.934 203.671Z" fill="black"/>
<path opacity="0.5" d="M152.419 205.428C158.385 205.428 163.221 200.592 163.221 194.627C163.221 188.662 158.385 183.826 152.419 183.826C146.454 183.826 141.618 188.662 141.618 194.627C141.618 200.592 146.454 205.428 152.419 205.428Z" fill="#C77485"/>
<path opacity="0.1" d="M166.5 213.982L166.248 212.995L166.031 212.125L165.71 210.841L165.65 210.604L165.601 210.407C165.601 210.407 165.858 209.631 164.164 209.883L163.848 209.937C163.581 209.992 163.27 210.066 162.914 210.165L162.593 210.263L162.169 210.397C160.824 210.835 159.597 211.575 158.583 212.56C158.128 212.995 157.725 213.483 157.383 214.012C157.348 214.061 157.323 214.106 157.294 214.145C157.177 214.329 157.073 214.52 156.983 214.718C156.983 218.61 153.091 223.361 153.091 223.361L149.293 217.874L149.219 217.765L148.315 216.452L147.994 216.027L147.885 215.879L145.91 213.227L145.416 212.565L145.253 212.343L145.011 212.022L144.443 211.266L142.22 212.565L139.257 214.293L137.528 225.529V225.841L137.583 226.769L137.943 232.873V232.957L137.311 235.486L137.405 235.535C138.897 236.34 140.449 237.027 142.047 237.59L142.467 237.738C142.961 237.901 143.425 238.049 143.909 238.193C143.927 238.266 143.941 238.34 143.949 238.415C143.949 238.346 143.949 238.272 143.949 238.202C150.01 239.934 156.434 239.934 162.494 238.202L162.608 238.168C162.89 238.089 163.176 238.005 163.453 237.911L163.902 237.768C165.121 237.36 166.315 236.882 167.478 236.336L167.893 227.495L168.189 221.119V220.753L166.5 213.982Z" fill="black"/>
<path opacity="0.5" d="M162.944 230.405C162.944 230.207 162.944 230.01 162.909 229.812C162.875 229.614 162.88 229.442 162.855 229.254C162.83 229.066 162.811 228.879 162.786 228.691C162.761 228.503 162.727 228.316 162.692 228.128C162.657 227.94 162.623 227.752 162.583 227.565C162.583 227.501 162.559 227.441 162.544 227.377C162.49 227.13 162.43 226.883 162.366 226.631C162.302 226.379 162.262 226.231 162.203 226.034C162.203 225.945 162.154 225.856 162.124 225.772C162.094 225.688 162.04 225.486 161.996 225.342L161.907 225.066C161.867 224.942 161.828 224.819 161.783 224.695C161.709 224.473 161.63 224.256 161.551 224.034C161.472 223.811 161.388 223.594 161.304 223.377C161.136 222.932 160.954 222.493 160.771 222.053C160.055 220.344 159.25 218.66 158.509 216.991C158.111 216.115 157.758 215.22 157.452 214.309L157.358 214.442C157.208 214.669 157.074 214.907 156.958 215.153C156.958 219.04 153.066 223.796 153.066 223.796L149.15 218.092L145.722 223.362C145.228 223.624 144.734 224.522 144.349 225.802C144.24 226.147 144.137 226.523 144.038 226.923C143.969 227.189 143.905 227.471 143.845 227.752C143.811 227.896 143.781 228.039 143.751 228.187L143.662 228.637V228.706C143.603 229.012 143.544 229.328 143.49 229.649C143.435 229.97 143.371 230.34 143.317 230.691C143.277 230.918 143.243 231.146 143.213 231.373C143.144 231.812 143.085 232.257 143.025 232.696C142.991 232.953 142.956 233.19 142.927 233.462L142.808 234.45C143.06 235.26 143.341 236.06 143.633 236.845C143.819 237.275 143.928 237.735 143.954 238.203C150.014 239.935 156.439 239.935 162.499 238.203C162.497 238.187 162.497 238.17 162.499 238.154C162.408 237.71 162.368 237.258 162.381 236.805C162.481 235.538 162.645 234.277 162.875 233.027C162.948 232.411 162.979 231.791 162.969 231.17V230.948C162.954 230.76 162.949 230.582 162.944 230.405ZM162.944 230.405C162.944 230.207 162.944 230.01 162.909 229.812C162.875 229.614 162.88 229.442 162.855 229.254C162.83 229.066 162.811 228.879 162.786 228.691C162.761 228.503 162.727 228.316 162.692 228.128C162.657 227.94 162.623 227.752 162.583 227.565C162.583 227.501 162.559 227.441 162.544 227.377C162.49 227.13 162.43 226.883 162.366 226.631C162.302 226.379 162.262 226.231 162.203 226.034C162.203 225.945 162.154 225.856 162.124 225.772C162.094 225.688 162.04 225.486 161.996 225.342L161.907 225.066C161.867 224.942 161.828 224.819 161.783 224.695C161.709 224.473 161.63 224.256 161.551 224.034C161.472 223.811 161.388 223.594 161.304 223.377C161.136 222.932 160.954 222.493 160.771 222.053C160.055 220.344 159.25 218.66 158.509 216.991C158.111 216.115 157.758 215.22 157.452 214.309L157.358 214.442C157.208 214.669 157.074 214.907 156.958 215.153C156.958 219.04 153.066 223.796 153.066 223.796L149.15 218.092L145.722 223.362C145.228 223.624 144.734 224.522 144.349 225.802C144.24 226.147 144.137 226.523 144.038 226.923C143.969 227.189 143.905 227.471 143.845 227.752C143.811 227.896 143.781 228.039 143.751 228.187L143.662 228.637V228.706C143.603 229.012 143.544 229.328 143.49 229.649C143.435 229.97 143.371 230.34 143.317 230.691C143.277 230.918 143.243 231.146 143.213 231.373C143.144 231.812 143.085 232.257 143.025 232.696C142.991 232.953 142.956 233.19 142.927 233.462L142.808 234.45C143.06 235.26 143.341 236.06 143.633 236.845C143.819 237.275 143.928 237.735 143.954 238.203C150.014 239.935 156.439 239.935 162.499 238.203C162.497 238.187 162.497 238.17 162.499 238.154C162.408 237.71 162.368 237.258 162.381 236.805C162.481 235.538 162.645 234.277 162.875 233.027C162.948 232.411 162.979 231.791 162.969 231.17V230.948C162.954 230.76 162.949 230.582 162.944 230.405ZM162.944 230.405C162.944 230.207 162.944 230.01 162.909 229.812C162.875 229.614 162.88 229.442 162.855 229.254C162.83 229.066 162.811 228.879 162.786 228.691C162.761 228.503 162.727 228.316 162.692 228.128C162.657 227.94 162.623 227.752 162.583 227.565C162.583 227.501 162.559 227.441 162.544 227.377C162.49 227.13 162.43 226.883 162.366 226.631C162.302 226.379 162.262 226.231 162.203 226.034C162.203 225.945 162.154 225.856 162.124 225.772C162.094 225.688 162.04 225.486 161.996 225.342L161.907 225.066C161.867 224.942 161.828 224.819 161.783 224.695C161.709 224.473 161.63 224.256 161.551 224.034C161.472 223.811 161.388 223.594 161.304 223.377C161.136 222.932 160.954 222.493 160.771 222.053C160.055 220.344 159.25 218.66 158.509 216.991C158.111 216.115 157.758 215.22 157.452 214.309L157.358 214.442C157.208 214.669 157.074 214.907 156.958 215.153C156.958 219.04 153.066 223.796 153.066 223.796L149.15 218.092L145.722 223.362C145.228 223.624 144.734 224.522 144.349 225.802C144.24 226.147 144.137 226.523 144.038 226.923C143.969 227.189 143.905 227.471 143.845 227.752C143.811 227.896 143.781 228.039 143.751 228.187L143.662 228.637V228.706C143.603 229.012 143.544 229.328 143.49 229.649C143.435 229.97 143.371 230.34 143.317 230.691C143.277 230.918 143.243 231.146 143.213 231.373C143.144 231.812 143.085 232.257 143.025 232.696C142.991 232.953 142.956 233.19 142.927 233.462L142.808 234.45C143.06 235.26 143.341 236.06 143.633 236.845C143.819 237.275 143.928 237.735 143.954 238.203C150.014 239.935 156.439 239.935 162.499 238.203C162.497 238.187 162.497 238.17 162.499 238.154C162.408 237.71 162.368 237.258 162.381 236.805C162.481 235.538 162.645 234.277 162.875 233.027C162.948 232.411 162.979 231.791 162.969 231.17V230.948C162.954 230.76 162.949 230.582 162.944 230.405ZM168.179 221.134L166.416 214.096L166.115 212.891L166.031 212.56L165.601 210.842C165.602 210.827 165.602 210.812 165.601 210.797C165.611 210.721 165.599 210.644 165.566 210.575C165.502 210.447 165.339 210.313 164.959 210.279C164.814 210.268 164.669 210.268 164.524 210.279C164.095 210.321 163.671 210.401 163.255 210.516C163.053 210.57 162.835 210.629 162.603 210.703L162.178 210.837H162.139C161.001 211.21 159.945 211.797 159.027 212.565C158.421 213.071 157.889 213.66 157.447 214.314L157.353 214.447C157.203 214.674 157.069 214.912 156.953 215.158C156.953 219.045 153.061 223.801 153.061 223.801L149.145 218.097L148.922 217.776L148.883 217.722L148.315 216.887L147.885 216.314L147.772 216.166L145.747 213.464L145.105 212.59V212.56L144.882 212.259L144.458 211.696L142.976 212.56L139.272 214.719L137.563 225.836V225.955L137.612 226.765L137.978 232.953V233.304L137.42 235.531C138.911 236.336 140.464 237.023 142.062 237.586L142.482 237.734C142.976 237.897 143.44 238.045 143.924 238.188C143.942 238.262 143.955 238.336 143.964 238.411C143.964 238.341 143.964 238.267 143.964 238.198C150.024 239.93 156.449 239.93 162.509 238.198L162.623 238.164C162.904 238.085 163.191 238.001 163.467 237.907L163.917 237.764C165.136 237.356 166.33 236.878 167.493 236.331L167.903 227.501L168.199 221.194L168.179 221.134ZM143.89 238.188C143.908 238.262 143.921 238.336 143.929 238.411C143.929 238.341 143.929 238.267 143.929 238.198L143.89 238.188ZM162.944 230.405C162.944 230.207 162.944 230.01 162.909 229.812C162.875 229.614 162.88 229.442 162.855 229.254C162.83 229.066 162.811 228.879 162.786 228.691C162.761 228.503 162.727 228.316 162.692 228.128C162.657 227.94 162.623 227.752 162.583 227.565C162.583 227.501 162.559 227.441 162.544 227.377C162.49 227.13 162.43 226.883 162.366 226.631C162.302 226.379 162.262 226.231 162.203 226.034C162.203 225.945 162.154 225.856 162.124 225.772C162.094 225.688 162.04 225.486 161.996 225.342L161.907 225.066C161.867 224.942 161.828 224.819 161.783 224.695C161.709 224.473 161.63 224.256 161.551 224.034C161.472 223.811 161.388 223.594 161.304 223.377C161.136 222.932 160.954 222.493 160.771 222.053C160.055 220.344 159.25 218.66 158.509 216.991C158.111 216.115 157.758 215.22 157.452 214.309L157.358 214.442C157.208 214.669 157.074 214.907 156.958 215.153C156.958 219.04 153.066 223.796 153.066 223.796L149.15 218.092L145.722 223.362C145.228 223.624 144.734 224.522 144.349 225.802C144.24 226.147 144.137 226.523 144.038 226.923C143.969 227.189 143.905 227.471 143.845 227.752C143.811 227.896 143.781 228.039 143.751 228.187L143.662 228.637V228.706C143.603 229.012 143.544 229.328 143.49 229.649C143.435 229.97 143.371 230.34 143.317 230.691C143.277 230.918 143.243 231.146 143.213 231.373C143.144 231.812 143.085 232.257 143.025 232.696C142.991 232.953 142.956 233.19 142.927 233.462L142.808 234.45C143.06 235.26 143.341 236.06 143.633 236.845C143.819 237.275 143.928 237.735 143.954 238.203C150.014 239.935 156.439 239.935 162.499 238.203C162.497 238.187 162.497 238.17 162.499 238.154C162.408 237.71 162.368 237.258 162.381 236.805C162.481 235.538 162.645 234.277 162.875 233.027C162.948 232.411 162.979 231.791 162.969 231.17V230.948C162.954 230.76 162.949 230.582 162.944 230.405ZM162.944 230.405C162.944 230.207 162.944 230.01 162.909 229.812C162.875 229.614 162.88 229.442 162.855 229.254C162.83 229.066 162.811 228.879 162.786 228.691C162.761 228.503 162.727 228.316 162.692 228.128C162.657 227.94 162.623 227.752 162.583 227.565C162.583 227.501 162.559 227.441 162.544 227.377C162.49 227.13 162.43 226.883 162.366 226.631C162.302 226.379 162.262 226.231 162.203 226.034C162.203 225.945 162.154 225.856 162.124 225.772C162.094 225.688 162.04 225.486 161.996 225.342L161.907 225.066C161.867 224.942 161.828 224.819 161.783 224.695C161.709 224.473 161.63 224.256 161.551 224.034C161.472 223.811 161.388 223.594 161.304 223.377C161.136 222.932 160.954 222.493 160.771 222.053C160.055 220.344 159.25 218.66 158.509 216.991C158.111 216.115 157.758 215.22 157.452 214.309L157.358 214.442C157.208 214.669 157.074 214.907 156.958 215.153C156.958 219.04 153.066 223.796 153.066 223.796L149.15 218.092L145.722 223.362C145.228 223.624 144.734 224.522 144.349 225.802C144.24 226.147 144.137 226.523 144.038 226.923C143.969 227.189 143.905 227.471 143.845 227.752C143.811 227.896 143.781 228.039 143.751 228.187L143.662 228.637V228.706C143.603 229.012 143.544 229.328 143.49 229.649C143.435 229.97 143.371 230.34 143.317 230.691C143.277 230.918 143.243 231.146 143.213 231.373C143.144 231.812 143.085 232.257 143.025 232.696C142.991 232.953 142.956 233.19 142.927 233.462L142.808 234.45C143.06 235.26 143.341 236.06 143.633 236.845C143.819 237.275 143.928 237.735 143.954 238.203C150.014 239.935 156.439 239.935 162.499 238.203C162.497 238.187 162.497 238.17 162.499 238.154C162.408 237.71 162.368 237.258 162.381 236.805C162.481 235.538 162.645 234.277 162.875 233.027C162.948 232.411 162.979 231.791 162.969 231.17V230.948C162.954 230.76 162.949 230.582 162.944 230.405ZM162.944 230.405C162.944 230.207 162.944 230.01 162.909 229.812C162.875 229.614 162.88 229.442 162.855 229.254C162.83 229.066 162.811 228.879 162.786 228.691C162.761 228.503 162.727 228.316 162.692 228.128C162.657 227.94 162.623 227.752 162.583 227.565C162.583 227.501 162.559 227.441 162.544 227.377C162.49 227.13 162.43 226.883 162.366 226.631C162.302 226.379 162.262 226.231 162.203 226.034C162.203 225.945 162.154 225.856 162.124 225.772C162.094 225.688 162.04 225.486 161.996 225.342L161.907 225.066C161.867 224.942 161.828 224.819 161.783 224.695C161.709 224.473 161.63 224.256 161.551 224.034C161.472 223.811 161.388 223.594 161.304 223.377C161.136 222.932 160.954 222.493 160.771 222.053C160.055 220.344 159.25 218.66 158.509 216.991C158.111 216.115 157.758 215.22 157.452 214.309L157.358 214.442C157.208 214.669 157.074 214.907 156.958 215.153C156.958 219.04 153.066 223.796 153.066 223.796L149.15 218.092L145.722 223.362C145.228 223.624 144.734 224.522 144.349 225.802C144.24 226.147 144.137 226.523 144.038 226.923C143.969 227.189 143.905 227.471 143.845 227.752C143.811 227.896 143.781 228.039 143.751 228.187L143.662 228.637V228.706C143.603 229.012 143.544 229.328 143.49 229.649C143.435 229.97 143.371 230.34 143.317 230.691C143.277 230.918 143.243 231.146 143.213 231.373C143.144 231.812 143.085 232.257 143.025 232.696C142.991 232.953 142.956 233.19 142.927 233.462L142.808 234.45C143.06 235.26 143.341 236.06 143.633 236.845C143.819 237.275 143.928 237.735 143.954 238.203C150.014 239.935 156.439 239.935 162.499 238.203C162.497 238.187 162.497 238.17 162.499 238.154C162.408 237.71 162.368 237.258 162.381 236.805C162.481 235.538 162.645 234.277 162.875 233.027C162.948 232.411 162.979 231.791 162.969 231.17V230.948C162.954 230.76 162.949 230.582 162.944 230.405ZM162.944 230.405C162.944 230.207 162.944 230.01 162.909 229.812C162.875 229.614 162.88 229.442 162.855 229.254C162.83 229.066 162.811 228.879 162.786 228.691C162.761 228.503 162.727 228.316 162.692 228.128C162.657 227.94 162.623 227.752 162.583 227.565C162.583 227.501 162.559 227.441 162.544 227.377C162.49 227.13 162.43 226.883 162.366 226.631C162.302 226.379 162.262 226.231 162.203 226.034C162.203 225.945 162.154 225.856 162.124 225.772C162.094 225.688 162.04 225.486 161.996 225.342L161.907 225.066C161.867 224.942 161.828 224.819 161.783 224.695C161.709 224.473 161.63 224.256 161.551 224.034C161.472 223.811 161.388 223.594 161.304 223.377C161.136 222.932 160.954 222.493 160.771 222.053C160.055 220.344 159.25 218.66 158.509 216.991C158.111 216.115 157.758 215.22 157.452 214.309L157.358 214.442C157.208 214.669 157.074 214.907 156.958 215.153C156.958 219.04 153.066 223.796 153.066 223.796L149.15 218.092L145.722 223.362C145.228 223.624 144.734 224.522 144.349 225.802C144.24 226.147 144.137 226.523 144.038 226.923C143.969 227.189 143.905 227.471 143.845 227.752C143.811 227.896 143.781 228.039 143.751 228.187L143.662 228.637V228.706C143.603 229.012 143.544 229.328 143.49 229.649C143.435 229.97 143.371 230.34 143.317 230.691C143.277 230.918 143.243 231.146 143.213 231.373C143.144 231.812 143.085 232.257 143.025 232.696C142.991 232.953 142.956 233.19 142.927 233.462L142.808 234.45C143.06 235.26 143.341 236.06 143.633 236.845C143.819 237.275 143.928 237.735 143.954 238.203C150.014 239.935 156.439 239.935 162.499 238.203C162.497 238.187 162.497 238.17 162.499 238.154C162.408 237.71 162.368 237.258 162.381 236.805C162.481 235.538 162.645 234.277 162.875 233.027C162.948 232.411 162.979 231.791 162.969 231.17V230.948C162.954 230.76 162.949 230.582 162.944 230.405ZM162.944 230.405C162.944 230.207 162.944 230.01 162.909 229.812C162.875 229.614 162.88 229.442 162.855 229.254C162.83 229.066 162.811 228.879 162.786 228.691C162.761 228.503 162.727 228.316 162.692 228.128C162.657 227.94 162.623 227.752 162.583 227.565C162.583 227.501 162.559 227.441 162.544 227.377C162.49 227.13 162.43 226.883 162.366 226.631C162.302 226.379 162.262 226.231 162.203 226.034C162.203 225.945 162.154 225.856 162.124 225.772C162.094 225.688 162.04 225.486 161.996 225.342L161.907 225.066C161.867 224.942 161.828 224.819 161.783 224.695C161.709 224.473 161.63 224.256 161.551 224.034C161.472 223.811 161.388 223.594 161.304 223.377C161.136 222.932 160.954 222.493 160.771 222.053C160.055 220.344 159.25 218.66 158.509 216.991C158.111 216.115 157.758 215.22 157.452 214.309L157.358 214.442C157.208 214.669 157.074 214.907 156.958 215.153C156.958 219.04 153.066 223.796 153.066 223.796L149.15 218.092L145.722 223.362C145.228 223.624 144.734 224.522 144.349 225.802C144.24 226.147 144.137 226.523 144.038 226.923C143.969 227.189 143.905 227.471 143.845 227.752C143.811 227.896 143.781 228.039 143.751 228.187L143.662 228.637V228.706C143.603 229.012 143.544 229.328 143.49 229.649C143.435 229.97 143.371 230.34 143.317 230.691C143.277 230.918 143.243 231.146 143.213 231.373C143.144 231.812 143.085 232.257 143.025 232.696C142.991 232.953 142.956 233.19 142.927 233.462L142.808 234.45C143.06 235.26 143.341 236.06 143.633 236.845C143.819 237.275 143.928 237.735 143.954 238.203C150.014 239.935 156.439 239.935 162.499 238.203C162.497 238.187 162.497 238.17 162.499 238.154C162.408 237.71 162.368 237.258 162.381 236.805C162.481 235.538 162.645 234.277 162.875 233.027C162.948 232.411 162.979 231.791 162.969 231.17V230.948C162.954 230.76 162.949 230.582 162.944 230.405ZM162.944 230.405C162.944 230.207 162.944 230.01 162.909 229.812C162.875 229.614 162.88 229.442 162.855 229.254C162.83 229.066 162.811 228.879 162.786 228.691C162.761 228.503 162.727 228.316 162.692 228.128C162.657 227.94 162.623 227.752 162.583 227.565C162.583 227.501 162.559 227.441 162.544 227.377C162.49 227.13 162.43 226.883 162.366 226.631C162.302 226.379 162.262 226.231 162.203 226.034C162.203 225.945 162.154 225.856 162.124 225.772C162.094 225.688 162.04 225.486 161.996 225.342L161.907 225.066C161.867 224.942 161.828 224.819 161.783 224.695C161.709 224.473 161.63 224.256 161.551 224.034C161.472 223.811 161.388 223.594 161.304 223.377C161.136 222.932 160.954 222.493 160.771 222.053C160.055 220.344 159.25 218.66 158.509 216.991C158.111 216.115 157.758 215.22 157.452 214.309L157.358 214.442C157.208 214.669 157.074 214.907 156.958 215.153C156.958 219.04 153.066 223.796 153.066 223.796L149.15 218.092L145.722 223.362C145.228 223.624 144.734 224.522 144.349 225.802C144.24 226.147 144.137 226.523 144.038 226.923C143.969 227.189 143.905 227.471 143.845 227.752C143.811 227.896 143.781 228.039 143.751 228.187L143.662 228.637V228.706C143.603 229.012 143.544 229.328 143.49 229.649C143.435 229.97 143.371 230.34 143.317 230.691C143.277 230.918 143.243 231.146 143.213 231.373C143.144 231.812 143.085 232.257 143.025 232.696C142.991 232.953 142.956 233.19 142.927 233.462L142.808 234.45C143.06 235.26 143.341 236.06 143.633 236.845C143.819 237.275 143.928 237.735 143.954 238.203C150.014 239.935 156.439 239.935 162.499 238.203C162.497 238.187 162.497 238.17 162.499 238.154C162.408 237.71 162.368 237.258 162.381 236.805C162.481 235.538 162.645 234.277 162.875 233.027C162.948 232.411 162.979 231.791 162.969 231.17V230.948C162.954 230.76 162.949 230.582 162.944 230.405ZM162.944 230.405C162.944 230.207 162.944 230.01 162.909 229.812C162.875 229.614 162.88 229.442 162.855 229.254C162.83 229.066 162.811 228.879 162.786 228.691C162.761 228.503 162.727 228.316 162.692 228.128C162.657 227.94 162.623 227.752 162.583 227.565C162.583 227.501 162.559 227.441 162.544 227.377C162.49 227.13 162.43 226.883 162.366 226.631C162.302 226.379 162.262 226.231 162.203 226.034C162.203 225.945 162.154 225.856 162.124 225.772C162.094 225.688 162.04 225.486 161.996 225.342L161.907 225.066C161.867 224.942 161.828 224.819 161.783 224.695C161.709 224.473 161.63 224.256 161.551 224.034C161.472 223.811 161.388 223.594 161.304 223.377C161.136 222.932 160.954 222.493 160.771 222.053C160.055 220.344 159.25 218.66 158.509 216.991C158.111 216.115 157.758 215.22 157.452 214.309L157.358 214.442C157.208 214.669 157.074 214.907 156.958 215.153C156.958 219.04 153.066 223.796 153.066 223.796L149.15 218.092L145.722 223.362C145.228 223.624 144.734 224.522 144.349 225.802C144.24 226.147 144.137 226.523 144.038 226.923C143.969 227.189 143.905 227.471 143.845 227.752C143.811 227.896 143.781 228.039 143.751 228.187L143.662 228.637V228.706C143.603 229.012 143.544 229.328 143.49 229.649C143.435 229.97 143.371 230.34 143.317 230.691C143.277 230.918 143.243 231.146 143.213 231.373C143.144 231.812 143.085 232.257 143.025 232.696C142.991 232.953 142.956 233.19 142.927 233.462L142.808 234.45C143.06 235.26 143.341 236.06 143.633 236.845C143.819 237.275 143.928 237.735 143.954 238.203C150.014 239.935 156.439 239.935 162.499 238.203C162.497 238.187 162.497 238.17 162.499 238.154C162.408 237.71 162.368 237.258 162.381 236.805C162.481 235.538 162.645 234.277 162.875 233.027C162.948 232.411 162.979 231.791 162.969 231.17V230.948C162.954 230.76 162.949 230.582 162.944 230.405ZM162.944 230.405C162.944 230.207 162.944 230.01 162.909 229.812C162.875 229.614 162.88 229.442 162.855 229.254C162.83 229.066 162.811 228.879 162.786 228.691C162.761 228.503 162.727 228.316 162.692 228.128C162.657 227.94 162.623 227.752 162.583 227.565C162.583 227.501 162.559 227.441 162.544 227.377C162.49 227.13 162.43 226.883 162.366 226.631C162.302 226.379 162.262 226.231 162.203 226.034C162.203 225.945 162.154 225.856 162.124 225.772C162.094 225.688 162.04 225.486 161.996 225.342L161.907 225.066C161.867 224.942 161.828 224.819 161.783 224.695C161.709 224.473 161.63 224.256 161.551 224.034C161.472 223.811 161.388 223.594 161.304 223.377C161.136 222.932 160.954 222.493 160.771 222.053C160.055 220.344 159.25 218.66 158.509 216.991C158.111 216.115 157.758 215.22 157.452 214.309L157.358 214.442C157.208 214.669 157.074 214.907 156.958 215.153C156.958 219.04 153.066 223.796 153.066 223.796L149.15 218.092L145.722 223.362C145.228 223.624 144.734 224.522 144.349 225.802C144.24 226.147 144.137 226.523 144.038 226.923C143.969 227.189 143.905 227.471 143.845 227.752C143.811 227.896 143.781 228.039 143.751 228.187L143.662 228.637V228.706C143.603 229.012 143.544 229.328 143.49 229.649C143.435 229.97 143.371 230.34 143.317 230.691C143.277 230.918 143.243 231.146 143.213 231.373C143.144 231.812 143.085 232.257 143.025 232.696C142.991 232.953 142.956 233.19 142.927 233.462L142.808 234.45C143.06 235.26 143.341 236.06 143.633 236.845C143.819 237.275 143.928 237.735 143.954 238.203C150.014 239.935 156.439 239.935 162.499 238.203C162.497 238.187 162.497 238.17 162.499 238.154C162.408 237.71 162.368 237.258 162.381 236.805C162.481 235.538 162.645 234.277 162.875 233.027C162.948 232.411 162.979 231.791 162.969 231.17V230.948C162.954 230.76 162.949 230.582 162.944 230.405Z" fill="white"/>
<path opacity="0.1" d="M149.219 217.761L148.888 217.716C148.388 217.649 147.893 217.55 147.406 217.42L147.223 217.37C146.018 217.03 144.7 216.417 144.403 215.341C144.315 214.994 144.325 214.63 144.433 214.289C144.599 213.701 144.824 213.132 145.105 212.59V212.56C145.142 212.484 145.183 212.41 145.228 212.338C145.636 211.541 146.252 210.87 147.011 210.397L146.418 210.491L141.4 211.305L133.622 212.56C133.622 212.56 132.239 212.283 130.357 217.469C130.357 217.533 130.313 217.593 130.293 217.662C129.839 218.931 129.359 220.517 128.866 222.497C128.525 223.87 128.214 225.218 127.927 226.527C127.843 226.922 127.759 227.312 127.68 227.698C128.571 228.747 129.529 229.737 130.55 230.661L130.713 230.814C132.711 232.624 134.92 234.188 137.291 235.471L137.385 235.521C138.877 236.326 140.429 237.012 142.028 237.575L142.448 237.724C142.536 236.81 142.635 235.797 142.754 234.76C142.754 234.657 142.754 234.553 142.793 234.449L142.912 233.461C142.941 233.209 142.976 232.967 143.011 232.696C143.07 232.256 143.129 231.812 143.198 231.372C143.228 231.145 143.262 230.918 143.302 230.691C143.356 230.34 143.416 229.989 143.475 229.649C143.534 229.308 143.588 229.011 143.648 228.705V228.636L143.737 228.187C143.766 228.038 143.796 227.895 143.83 227.752C143.89 227.47 143.954 227.189 144.023 226.922C144.122 226.522 144.226 226.147 144.334 225.801C144.729 224.522 145.189 223.623 145.707 223.361L149.135 218.092L149.278 217.869L149.342 217.771L149.219 217.761Z" fill="black"/>
<path opacity="0.1" d="M142.981 182.779C142.487 183.461 142.527 184.399 142.304 185.249C141.776 187.18 139.682 188.39 139.203 190.336C138.921 191.472 139.247 192.677 139.055 193.833C138.704 195.961 136.758 197.403 135.671 199.265C135.121 200.225 134.794 201.296 134.716 202.399C134.638 203.503 134.811 204.609 135.222 205.637C135.476 206.155 135.686 206.693 135.849 207.247C135.974 208.071 135.922 208.913 135.696 209.716C135.326 211.474 134.945 213.41 135.795 214.996C136.511 216.334 137.998 217.119 139.494 217.366C141.005 217.537 142.534 217.467 144.023 217.159C145.658 216.907 147.332 216.616 148.755 215.776L143.406 202.866C142.867 201.562 142.314 200.214 142.319 198.801C142.363 197.759 142.588 196.733 142.986 195.769C144.021 192.975 145.525 190.378 147.431 188.089C148.206 188.987 148.147 190.356 148.794 191.353C149.366 192.091 150.127 192.659 150.997 192.998C153.531 194.234 156.135 195.323 158.795 196.258C158.962 196.278 159.121 196.34 159.259 196.437C159.396 196.535 159.507 196.664 159.582 196.815C159.658 196.965 159.695 197.132 159.69 197.3C159.685 197.468 159.639 197.633 159.556 197.779L157.541 206.096C157.096 207.928 156.706 210.047 157.847 211.529C158.988 213.01 161.561 213.712 161.576 215.623C161.555 215.926 161.555 216.229 161.576 216.532C161.709 217.426 162.771 217.855 163.675 217.9C165.159 217.929 166.604 217.43 167.754 216.492C168.904 215.554 169.683 214.238 169.952 212.778C170.446 209.509 168.283 206.496 167.379 203.31C165.858 197.952 167.873 191.664 164.885 186.958C162.465 183.14 158.054 182.103 153.866 181.628C150.928 181.283 145.05 180.048 142.981 182.779Z" fill="black"/>
<path opacity="0.5" d="M142.981 182.285C142.487 182.966 142.527 183.905 142.304 184.754C141.776 186.685 139.682 187.895 139.203 189.841C138.921 190.977 139.247 192.182 139.055 193.338C138.704 195.467 136.758 196.909 135.671 198.771C135.121 199.73 134.794 200.802 134.716 201.905C134.638 203.008 134.811 204.115 135.222 205.142C135.476 205.66 135.686 206.199 135.849 206.752C135.974 207.577 135.922 208.419 135.696 209.222C135.326 210.98 134.945 212.916 135.795 214.501C136.511 215.84 137.998 216.625 139.494 216.872C141.005 217.043 142.534 216.973 144.023 216.665C145.658 216.413 147.332 216.121 148.755 215.282L143.406 202.371C142.867 201.067 142.314 199.719 142.319 198.307C142.363 197.265 142.588 196.238 142.986 195.274C144.021 192.481 145.525 189.884 147.431 187.594C148.206 188.493 148.147 189.861 148.794 190.859C149.366 191.596 150.127 192.165 150.997 192.503C153.531 193.74 156.135 194.828 158.795 195.763C158.962 195.784 159.121 195.846 159.259 195.943C159.396 196.04 159.507 196.17 159.582 196.32C159.658 196.471 159.695 196.637 159.69 196.806C159.685 196.974 159.639 197.138 159.556 197.284L157.541 205.601C157.096 207.434 156.706 209.552 157.847 211.034C158.988 212.516 161.561 213.217 161.576 215.129C161.555 215.431 161.555 215.735 161.576 216.037C161.709 216.931 162.771 217.361 163.675 217.405C165.159 217.435 166.604 216.936 167.754 215.998C168.904 215.059 169.683 213.743 169.952 212.284C170.446 209.014 168.283 206.001 167.379 202.816C165.858 197.457 167.873 191.17 164.885 186.463C162.465 182.645 158.054 181.608 153.866 181.134C150.928 180.788 145.05 179.554 142.981 182.285Z" fill="#493545"/>
</g>
<g opacity="0.5">
<path opacity="0.5" d="M139.944 314.573C139.988 316.227 138.862 317.64 137.968 319.018C137.074 320.396 136.412 322.278 137.331 323.655C137.632 324.11 138.087 324.461 138.358 324.935C139.311 326.589 137.726 328.491 137.148 330.308C136.481 332.407 137.257 334.753 138.659 336.457C140.062 338.161 141.998 339.312 143.954 340.324C148.066 342.516 152.48 344.087 157.052 344.987C159.442 345.426 161.991 345.624 164.233 344.665C165.789 343.952 167.06 342.736 167.842 341.213C168.623 339.691 168.871 337.95 168.545 336.269C167.977 333.672 166.075 331.582 165.087 329.128C164.857 328.646 164.745 328.116 164.761 327.582C164.845 326.648 165.562 325.917 166.12 325.162C167.519 323.104 168.091 320.594 167.72 318.134C167.33 315.673 166.388 313.333 164.964 311.288C164.455 310.441 163.784 309.702 162.988 309.115C161.912 308.389 160.578 308.182 159.294 307.999C153.93 307.248 148.374 306.429 142.966 306.152C141.257 306.063 140.003 306.399 139.158 307.999C137.869 310.385 139.879 312.177 139.944 314.573Z" fill="#444176"/>
<path opacity="0.5" d="M167.567 331.369L157.388 345.845L147.451 344.981C147.451 344.981 147.125 348.438 143.129 335.908C140.897 328.9 145.436 331.335 146.329 329.394C147.223 327.453 148.799 325.739 148.932 324.306C149.248 321.234 148.315 319.486 148.315 319.486L159.116 318.192C158.629 319.648 158.567 321.212 158.938 322.701C160.292 328.322 167.567 331.369 167.567 331.369Z" fill="#C77485"/>
<path opacity="0.5" d="M152.256 319.028C159.348 319.028 165.097 314.495 165.097 308.903C165.097 303.311 159.348 298.778 152.256 298.778C145.164 298.778 139.415 303.311 139.415 308.903C139.415 314.495 145.164 319.028 152.256 319.028Z" fill="#444176"/>
<path opacity="0.1" d="M158.934 322.696C157.525 323.763 155.876 324.468 154.131 324.749C152.387 325.029 150.6 324.877 148.927 324.306C149.243 321.235 148.31 319.486 148.31 319.486L159.111 318.192C158.625 319.646 158.563 321.209 158.934 322.696Z" fill="black"/>
<path opacity="0.5" d="M152.419 324.455C158.385 324.455 163.221 319.62 163.221 313.654C163.221 307.689 158.385 302.853 152.419 302.853C146.454 302.853 141.618 307.689 141.618 313.654C141.618 319.62 146.454 324.455 152.419 324.455Z" fill="#C77485"/>
<path opacity="0.1" d="M166.5 333.009L166.248 332.022L166.031 331.152L165.71 329.868L165.65 329.631L165.601 329.434C165.601 329.434 165.858 328.658 164.164 328.91L163.848 328.965C163.581 329.019 163.27 329.093 162.914 329.192L162.593 329.291L162.169 329.424C160.824 329.862 159.597 330.602 158.583 331.587C158.128 332.023 157.725 332.51 157.383 333.039C157.348 333.088 157.323 333.133 157.294 333.172C157.177 333.356 157.073 333.547 156.983 333.745C156.983 337.637 153.091 342.388 153.091 342.388L149.293 336.901L149.219 336.793L148.315 335.479L147.994 335.054L147.885 334.906L145.91 332.254L145.416 331.592L145.253 331.37L145.011 331.049L144.443 330.293L142.22 331.592L139.257 333.321L137.528 344.557V344.868L137.583 345.796L137.943 351.901V351.985L137.311 354.513L137.405 354.563C138.897 355.367 140.449 356.054 142.047 356.617L142.467 356.766C142.961 356.929 143.425 357.077 143.909 357.22C143.927 357.293 143.941 357.367 143.949 357.442C143.949 357.373 143.949 357.299 143.949 357.23C150.01 358.962 156.434 358.962 162.494 357.23L162.608 357.195C162.89 357.116 163.176 357.032 163.453 356.938L163.902 356.795C165.121 356.388 166.315 355.909 167.478 355.363L167.893 346.522L168.189 340.146V339.781L166.5 333.009Z" fill="black"/>
<path opacity="0.5" d="M162.944 349.431C162.944 349.233 162.944 349.035 162.909 348.838C162.875 348.64 162.88 348.467 162.855 348.28C162.83 348.092 162.811 347.904 162.786 347.717C162.761 347.529 162.727 347.341 162.692 347.154C162.657 346.966 162.623 346.778 162.583 346.591C162.583 346.526 162.559 346.467 162.544 346.403C162.49 346.156 162.43 345.909 162.366 345.657C162.302 345.405 162.262 345.257 162.203 345.06C162.203 344.971 162.154 344.882 162.124 344.798C162.094 344.714 162.04 344.511 161.996 344.368L161.907 344.092C161.867 343.968 161.828 343.845 161.783 343.721C161.709 343.499 161.63 343.282 161.551 343.059C161.472 342.837 161.388 342.62 161.304 342.403C161.136 341.958 160.954 341.518 160.771 341.079C160.055 339.37 159.25 337.686 158.509 336.017C158.111 335.141 157.758 334.246 157.452 333.335L157.358 333.468C157.208 333.695 157.074 333.933 156.958 334.179C156.958 338.066 153.066 342.822 153.066 342.822L149.15 337.118L145.722 342.388C145.228 342.649 144.734 343.548 144.349 344.828C144.24 345.173 144.137 345.549 144.038 345.949C143.969 346.215 143.905 346.497 143.845 346.778C143.811 346.922 143.781 347.065 143.751 347.213L143.662 347.662V347.732C143.603 348.038 143.544 348.354 143.49 348.675C143.435 348.996 143.371 349.366 143.317 349.717C143.277 349.944 143.243 350.171 143.213 350.399C143.144 350.838 143.085 351.283 143.025 351.722C142.991 351.979 142.956 352.216 142.927 352.488L142.808 353.476C143.06 354.285 143.341 355.086 143.633 355.871C143.819 356.301 143.928 356.761 143.954 357.229C150.014 358.961 156.439 358.961 162.499 357.229C162.497 357.213 162.497 357.196 162.499 357.18C162.408 356.736 162.368 356.284 162.381 355.831C162.481 354.564 162.645 353.303 162.875 352.053C162.948 351.437 162.979 350.816 162.969 350.196V349.974C162.954 349.786 162.949 349.608 162.944 349.431ZM162.944 349.431C162.944 349.233 162.944 349.035 162.909 348.838C162.875 348.64 162.88 348.467 162.855 348.28C162.83 348.092 162.811 347.904 162.786 347.717C162.761 347.529 162.727 347.341 162.692 347.154C162.657 346.966 162.623 346.778 162.583 346.591C162.583 346.526 162.559 346.467 162.544 346.403C162.49 346.156 162.43 345.909 162.366 345.657C162.302 345.405 162.262 345.257 162.203 345.06C162.203 344.971 162.154 344.882 162.124 344.798C162.094 344.714 162.04 344.511 161.996 344.368L161.907 344.092C161.867 343.968 161.828 343.845 161.783 343.721C161.709 343.499 161.63 343.282 161.551 343.059C161.472 342.837 161.388 342.62 161.304 342.403C161.136 341.958 160.954 341.518 160.771 341.079C160.055 339.37 159.25 337.686 158.509 336.017C158.111 335.141 157.758 334.246 157.452 333.335L157.358 333.468C157.208 333.695 157.074 333.933 156.958 334.179C156.958 338.066 153.066 342.822 153.066 342.822L149.15 337.118L145.722 342.388C145.228 342.649 144.734 343.548 144.349 344.828C144.24 345.173 144.137 345.549 144.038 345.949C143.969 346.215 143.905 346.497 143.845 346.778C143.811 346.922 143.781 347.065 143.751 347.213L143.662 347.662V347.732C143.603 348.038 143.544 348.354 143.49 348.675C143.435 348.996 143.371 349.366 143.317 349.717C143.277 349.944 143.243 350.171 143.213 350.399C143.144 350.838 143.085 351.283 143.025 351.722C142.991 351.979 142.956 352.216 142.927 352.488L142.808 353.476C143.06 354.285 143.341 355.086 143.633 355.871C143.819 356.301 143.928 356.761 143.954 357.229C150.014 358.961 156.439 358.961 162.499 357.229C162.497 357.213 162.497 357.196 162.499 357.18C162.408 356.736 162.368 356.284 162.381 355.831C162.481 354.564 162.645 353.303 162.875 352.053C162.948 351.437 162.979 350.816 162.969 350.196V349.974C162.954 349.786 162.949 349.608 162.944 349.431ZM162.944 349.431C162.944 349.233 162.944 349.035 162.909 348.838C162.875 348.64 162.88 348.467 162.855 348.28C162.83 348.092 162.811 347.904 162.786 347.717C162.761 347.529 162.727 347.341 162.692 347.154C162.657 346.966 162.623 346.778 162.583 346.591C162.583 346.526 162.559 346.467 162.544 346.403C162.49 346.156 162.43 345.909 162.366 345.657C162.302 345.405 162.262 345.257 162.203 345.06C162.203 344.971 162.154 344.882 162.124 344.798C162.094 344.714 162.04 344.511 161.996 344.368L161.907 344.092C161.867 343.968 161.828 343.845 161.783 343.721C161.709 343.499 161.63 343.282 161.551 343.059C161.472 342.837 161.388 342.62 161.304 342.403C161.136 341.958 160.954 341.518 160.771 341.079C160.055 339.37 159.25 337.686 158.509 336.017C158.111 335.141 157.758 334.246 157.452 333.335L157.358 333.468C157.208 333.695 157.074 333.933 156.958 334.179C156.958 338.066 153.066 342.822 153.066 342.822L149.15 337.118L145.722 342.388C145.228 342.649 144.734 343.548 144.349 344.828C144.24 345.173 144.137 345.549 144.038 345.949C143.969 346.215 143.905 346.497 143.845 346.778C143.811 346.922 143.781 347.065 143.751 347.213L143.662 347.662V347.732C143.603 348.038 143.544 348.354 143.49 348.675C143.435 348.996 143.371 349.366 143.317 349.717C143.277 349.944 143.243 350.171 143.213 350.399C143.144 350.838 143.085 351.283 143.025 351.722C142.991 351.979 142.956 352.216 142.927 352.488L142.808 353.476C143.06 354.285 143.341 355.086 143.633 355.871C143.819 356.301 143.928 356.761 143.954 357.229C150.014 358.961 156.439 358.961 162.499 357.229C162.497 357.213 162.497 357.196 162.499 357.18C162.408 356.736 162.368 356.284 162.381 355.831C162.481 354.564 162.645 353.303 162.875 352.053C162.948 351.437 162.979 350.816 162.969 350.196V349.974C162.954 349.786 162.949 349.608 162.944 349.431ZM168.179 340.16L166.416 333.122L166.115 331.917L166.031 331.586L165.601 329.868C165.602 329.853 165.602 329.838 165.601 329.823C165.611 329.747 165.599 329.67 165.566 329.601C165.502 329.472 165.339 329.339 164.959 329.305C164.814 329.294 164.669 329.294 164.524 329.305C164.095 329.347 163.671 329.426 163.255 329.542C163.053 329.596 162.835 329.655 162.603 329.729L162.178 329.863H162.139C161.001 330.236 159.945 330.823 159.027 331.591C158.421 332.097 157.889 332.685 157.447 333.34L157.353 333.473C157.203 333.7 157.069 333.938 156.953 334.184C156.953 338.071 153.061 342.827 153.061 342.827L149.145 337.123L148.922 336.802L148.883 336.747L148.315 335.913L147.885 335.34L147.772 335.192L145.747 332.49L145.105 331.616V331.586L144.882 331.285L144.458 330.722L142.976 331.586L139.272 333.745L137.563 344.862V344.981L137.612 345.791L137.978 351.979V352.33L137.42 354.557C138.911 355.362 140.464 356.049 142.062 356.612L142.482 356.76C142.976 356.923 143.44 357.071 143.924 357.214C143.942 357.287 143.955 357.362 143.964 357.437C143.964 357.367 143.964 357.293 143.964 357.224C150.024 358.956 156.449 358.956 162.509 357.224L162.623 357.19C162.904 357.111 163.191 357.027 163.467 356.933L163.917 356.79C165.136 356.382 166.33 355.904 167.493 355.357L167.903 346.526L168.199 340.22L168.179 340.16ZM143.89 357.214C143.908 357.287 143.921 357.362 143.929 357.437C143.929 357.367 143.929 357.293 143.929 357.224L143.89 357.214ZM162.944 349.431C162.944 349.233 162.944 349.035 162.909 348.838C162.875 348.64 162.88 348.467 162.855 348.28C162.83 348.092 162.811 347.904 162.786 347.717C162.761 347.529 162.727 347.341 162.692 347.154C162.657 346.966 162.623 346.778 162.583 346.591C162.583 346.526 162.559 346.467 162.544 346.403C162.49 346.156 162.43 345.909 162.366 345.657C162.302 345.405 162.262 345.257 162.203 345.06C162.203 344.971 162.154 344.882 162.124 344.798C162.094 344.714 162.04 344.511 161.996 344.368L161.907 344.092C161.867 343.968 161.828 343.845 161.783 343.721C161.709 343.499 161.63 343.282 161.551 343.059C161.472 342.837 161.388 342.62 161.304 342.403C161.136 341.958 160.954 341.518 160.771 341.079C160.055 339.37 159.25 337.686 158.509 336.017C158.111 335.141 157.758 334.246 157.452 333.335L157.358 333.468C157.208 333.695 157.074 333.933 156.958 334.179C156.958 338.066 153.066 342.822 153.066 342.822L149.15 337.118L145.722 342.388C145.228 342.649 144.734 343.548 144.349 344.828C144.24 345.173 144.137 345.549 144.038 345.949C143.969 346.215 143.905 346.497 143.845 346.778C143.811 346.922 143.781 347.065 143.751 347.213L143.662 347.662V347.732C143.603 348.038 143.544 348.354 143.49 348.675C143.435 348.996 143.371 349.366 143.317 349.717C143.277 349.944 143.243 350.171 143.213 350.399C143.144 350.838 143.085 351.283 143.025 351.722C142.991 351.979 142.956 352.216 142.927 352.488L142.808 353.476C143.06 354.285 143.341 355.086 143.633 355.871C143.819 356.301 143.928 356.761 143.954 357.229C150.014 358.961 156.439 358.961 162.499 357.229C162.497 357.213 162.497 357.196 162.499 357.18C162.408 356.736 162.368 356.284 162.381 355.831C162.481 354.564 162.645 353.303 162.875 352.053C162.948 351.437 162.979 350.816 162.969 350.196V349.974C162.954 349.786 162.949 349.608 162.944 349.431ZM162.944 349.431C162.944 349.233 162.944 349.035 162.909 348.838C162.875 348.64 162.88 348.467 162.855 348.28C162.83 348.092 162.811 347.904 162.786 347.717C162.761 347.529 162.727 347.341 162.692 347.154C162.657 346.966 162.623 346.778 162.583 346.591C162.583 346.526 162.559 346.467 162.544 346.403C162.49 346.156 162.43 345.909 162.366 345.657C162.302 345.405 162.262 345.257 162.203 345.06C162.203 344.971 162.154 344.882 162.124 344.798C162.094 344.714 162.04 344.511 161.996 344.368L161.907 344.092C161.867 343.968 161.828 343.845 161.783 343.721C161.709 343.499 161.63 343.282 161.551 343.059C161.472 342.837 161.388 342.62 161.304 342.403C161.136 341.958 160.954 341.518 160.771 341.079C160.055 339.37 159.25 337.686 158.509 336.017C158.111 335.141 157.758 334.246 157.452 333.335L157.358 333.468C157.208 333.695 157.074 333.933 156.958 334.179C156.958 338.066 153.066 342.822 153.066 342.822L149.15 337.118L145.722 342.388C145.228 342.649 144.734 343.548 144.349 344.828C144.24 345.173 144.137 345.549 144.038 345.949C143.969 346.215 143.905 346.497 143.845 346.778C143.811 346.922 143.781 347.065 143.751 347.213L143.662 347.662V347.732C143.603 348.038 143.544 348.354 143.49 348.675C143.435 348.996 143.371 349.366 143.317 349.717C143.277 349.944 143.243 350.171 143.213 350.399C143.144 350.838 143.085 351.283 143.025 351.722C142.991 351.979 142.956 352.216 142.927 352.488L142.808 353.476C143.06 354.285 143.341 355.086 143.633 355.871C143.819 356.301 143.928 356.761 143.954 357.229C150.014 358.961 156.439 358.961 162.499 357.229C162.497 357.213 162.497 357.196 162.499 357.18C162.408 356.736 162.368 356.284 162.381 355.831C162.481 354.564 162.645 353.303 162.875 352.053C162.948 351.437 162.979 350.816 162.969 350.196V349.974C162.954 349.786 162.949 349.608 162.944 349.431ZM162.944 349.431C162.944 349.233 162.944 349.035 162.909 348.838C162.875 348.64 162.88 348.467 162.855 348.28C162.83 348.092 162.811 347.904 162.786 347.717C162.761 347.529 162.727 347.341 162.692 347.154C162.657 346.966 162.623 346.778 162.583 346.591C162.583 346.526 162.559 346.467 162.544 346.403C162.49 346.156 162.43 345.909 162.366 345.657C162.302 345.405 162.262 345.257 162.203 345.06C162.203 344.971 162.154 344.882 162.124 344.798C162.094 344.714 162.04 344.511 161.996 344.368L161.907 344.092C161.867 343.968 161.828 343.845 161.783 343.721C161.709 343.499 161.63 343.282 161.551 343.059C161.472 342.837 161.388 342.62 161.304 342.403C161.136 341.958 160.954 341.518 160.771 341.079C160.055 339.37 159.25 337.686 158.509 336.017C158.111 335.141 157.758 334.246 157.452 333.335L157.358 333.468C157.208 333.695 157.074 333.933 156.958 334.179C156.958 338.066 153.066 342.822 153.066 342.822L149.15 337.118L145.722 342.388C145.228 342.649 144.734 343.548 144.349 344.828C144.24 345.173 144.137 345.549 144.038 345.949C143.969 346.215 143.905 346.497 143.845 346.778C143.811 346.922 143.781 347.065 143.751 347.213L143.662 347.662V347.732C143.603 348.038 143.544 348.354 143.49 348.675C143.435 348.996 143.371 349.366 143.317 349.717C143.277 349.944 143.243 350.171 143.213 350.399C143.144 350.838 143.085 351.283 143.025 351.722C142.991 351.979 142.956 352.216 142.927 352.488L142.808 353.476C143.06 354.285 143.341 355.086 143.633 355.871C143.819 356.301 143.928 356.761 143.954 357.229C150.014 358.961 156.439 358.961 162.499 357.229C162.497 357.213 162.497 357.196 162.499 357.18C162.408 356.736 162.368 356.284 162.381 355.831C162.481 354.564 162.645 353.303 162.875 352.053C162.948 351.437 162.979 350.816 162.969 350.196V349.974C162.954 349.786 162.949 349.608 162.944 349.431ZM162.944 349.431C162.944 349.233 162.944 349.035 162.909 348.838C162.875 348.64 162.88 348.467 162.855 348.28C162.83 348.092 162.811 347.904 162.786 347.717C162.761 347.529 162.727 347.341 162.692 347.154C162.657 346.966 162.623 346.778 162.583 346.591C162.583 346.526 162.559 346.467 162.544 346.403C162.49 346.156 162.43 345.909 162.366 345.657C162.302 345.405 162.262 345.257 162.203 345.06C162.203 344.971 162.154 344.882 162.124 344.798C162.094 344.714 162.04 344.511 161.996 344.368L161.907 344.092C161.867 343.968 161.828 343.845 161.783 343.721C161.709 343.499 161.63 343.282 161.551 343.059C161.472 342.837 161.388 342.62 161.304 342.403C161.136 341.958 160.954 341.518 160.771 341.079C160.055 339.37 159.25 337.686 158.509 336.017C158.111 335.141 157.758 334.246 157.452 333.335L157.358 333.468C157.208 333.695 157.074 333.933 156.958 334.179C156.958 338.066 153.066 342.822 153.066 342.822L149.15 337.118L145.722 342.388C145.228 342.649 144.734 343.548 144.349 344.828C144.24 345.173 144.137 345.549 144.038 345.949C143.969 346.215 143.905 346.497 143.845 346.778C143.811 346.922 143.781 347.065 143.751 347.213L143.662 347.662V347.732C143.603 348.038 143.544 348.354 143.49 348.675C143.435 348.996 143.371 349.366 143.317 349.717C143.277 349.944 143.243 350.171 143.213 350.399C143.144 350.838 143.085 351.283 143.025 351.722C142.991 351.979 142.956 352.216 142.927 352.488L142.808 353.476C143.06 354.285 143.341 355.086 143.633 355.871C143.819 356.301 143.928 356.761 143.954 357.229C150.014 358.961 156.439 358.961 162.499 357.229C162.497 357.213 162.497 357.196 162.499 357.18C162.408 356.736 162.368 356.284 162.381 355.831C162.481 354.564 162.645 353.303 162.875 352.053C162.948 351.437 162.979 350.816 162.969 350.196V349.974C162.954 349.786 162.949 349.608 162.944 349.431ZM162.944 349.431C162.944 349.233 162.944 349.035 162.909 348.838C162.875 348.64 162.88 348.467 162.855 348.28C162.83 348.092 162.811 347.904 162.786 347.717C162.761 347.529 162.727 347.341 162.692 347.154C162.657 346.966 162.623 346.778 162.583 346.591C162.583 346.526 162.559 346.467 162.544 346.403C162.49 346.156 162.43 345.909 162.366 345.657C162.302 345.405 162.262 345.257 162.203 345.06C162.203 344.971 162.154 344.882 162.124 344.798C162.094 344.714 162.04 344.511 161.996 344.368L161.907 344.092C161.867 343.968 161.828 343.845 161.783 343.721C161.709 343.499 161.63 343.282 161.551 343.059C161.472 342.837 161.388 342.62 161.304 342.403C161.136 341.958 160.954 341.518 160.771 341.079C160.055 339.37 159.25 337.686 158.509 336.017C158.111 335.141 157.758 334.246 157.452 333.335L157.358 333.468C157.208 333.695 157.074 333.933 156.958 334.179C156.958 338.066 153.066 342.822 153.066 342.822L149.15 337.118L145.722 342.388C145.228 342.649 144.734 343.548 144.349 344.828C144.24 345.173 144.137 345.549 144.038 345.949C143.969 346.215 143.905 346.497 143.845 346.778C143.811 346.922 143.781 347.065 143.751 347.213L143.662 347.662V347.732C143.603 348.038 143.544 348.354 143.49 348.675C143.435 348.996 143.371 349.366 143.317 349.717C143.277 349.944 143.243 350.171 143.213 350.399C143.144 350.838 143.085 351.283 143.025 351.722C142.991 351.979 142.956 352.216 142.927 352.488L142.808 353.476C143.06 354.285 143.341 355.086 143.633 355.871C143.819 356.301 143.928 356.761 143.954 357.229C150.014 358.961 156.439 358.961 162.499 357.229C162.497 357.213 162.497 357.196 162.499 357.18C162.408 356.736 162.368 356.284 162.381 355.831C162.481 354.564 162.645 353.303 162.875 352.053C162.948 351.437 162.979 350.816 162.969 350.196V349.974C162.954 349.786 162.949 349.608 162.944 349.431ZM162.944 349.431C162.944 349.233 162.944 349.035 162.909 348.838C162.875 348.64 162.88 348.467 162.855 348.28C162.83 348.092 162.811 347.904 162.786 347.717C162.761 347.529 162.727 347.341 162.692 347.154C162.657 346.966 162.623 346.778 162.583 346.591C162.583 346.526 162.559 346.467 162.544 346.403C162.49 346.156 162.43 345.909 162.366 345.657C162.302 345.405 162.262 345.257 162.203 345.06C162.203 344.971 162.154 344.882 162.124 344.798C162.094 344.714 162.04 344.511 161.996 344.368L161.907 344.092C161.867 343.968 161.828 343.845 161.783 343.721C161.709 343.499 161.63 343.282 161.551 343.059C161.472 342.837 161.388 342.62 161.304 342.403C161.136 341.958 160.954 341.518 160.771 341.079C160.055 339.37 159.25 337.686 158.509 336.017C158.111 335.141 157.758 334.246 157.452 333.335L157.358 333.468C157.208 333.695 157.074 333.933 156.958 334.179C156.958 338.066 153.066 342.822 153.066 342.822L149.15 337.118L145.722 342.388C145.228 342.649 144.734 343.548 144.349 344.828C144.24 345.173 144.137 345.549 144.038 345.949C143.969 346.215 143.905 346.497 143.845 346.778C143.811 346.922 143.781 347.065 143.751 347.213L143.662 347.662V347.732C143.603 348.038 143.544 348.354 143.49 348.675C143.435 348.996 143.371 349.366 143.317 349.717C143.277 349.944 143.243 350.171 143.213 350.399C143.144 350.838 143.085 351.283 143.025 351.722C142.991 351.979 142.956 352.216 142.927 352.488L142.808 353.476C143.06 354.285 143.341 355.086 143.633 355.871C143.819 356.301 143.928 356.761 143.954 357.229C150.014 358.961 156.439 358.961 162.499 357.229C162.497 357.213 162.497 357.196 162.499 357.18C162.408 356.736 162.368 356.284 162.381 355.831C162.481 354.564 162.645 353.303 162.875 352.053C162.948 351.437 162.979 350.816 162.969 350.196V349.974C162.954 349.786 162.949 349.608 162.944 349.431ZM162.944 349.431C162.944 349.233 162.944 349.035 162.909 348.838C162.875 348.64 162.88 348.467 162.855 348.28C162.83 348.092 162.811 347.904 162.786 347.717C162.761 347.529 162.727 347.341 162.692 347.154C162.657 346.966 162.623 346.778 162.583 346.591C162.583 346.526 162.559 346.467 162.544 346.403C162.49 346.156 162.43 345.909 162.366 345.657C162.302 345.405 162.262 345.257 162.203 345.06C162.203 344.971 162.154 344.882 162.124 344.798C162.094 344.714 162.04 344.511 161.996 344.368L161.907 344.092C161.867 343.968 161.828 343.845 161.783 343.721C161.709 343.499 161.63 343.282 161.551 343.059C161.472 342.837 161.388 342.62 161.304 342.403C161.136 341.958 160.954 341.518 160.771 341.079C160.055 339.37 159.25 337.686 158.509 336.017C158.111 335.141 157.758 334.246 157.452 333.335L157.358 333.468C157.208 333.695 157.074 333.933 156.958 334.179C156.958 338.066 153.066 342.822 153.066 342.822L149.15 337.118L145.722 342.388C145.228 342.649 144.734 343.548 144.349 344.828C144.24 345.173 144.137 345.549 144.038 345.949C143.969 346.215 143.905 346.497 143.845 346.778C143.811 346.922 143.781 347.065 143.751 347.213L143.662 347.662V347.732C143.603 348.038 143.544 348.354 143.49 348.675C143.435 348.996 143.371 349.366 143.317 349.717C143.277 349.944 143.243 350.171 143.213 350.399C143.144 350.838 143.085 351.283 143.025 351.722C142.991 351.979 142.956 352.216 142.927 352.488L142.808 353.476C143.06 354.285 143.341 355.086 143.633 355.871C143.819 356.301 143.928 356.761 143.954 357.229C150.014 358.961 156.439 358.961 162.499 357.229C162.497 357.213 162.497 357.196 162.499 357.18C162.408 356.736 162.368 356.284 162.381 355.831C162.481 354.564 162.645 353.303 162.875 352.053C162.948 351.437 162.979 350.816 162.969 350.196V349.974C162.954 349.786 162.949 349.608 162.944 349.431ZM162.944 349.431C162.944 349.233 162.944 349.035 162.909 348.838C162.875 348.64 162.88 348.467 162.855 348.28C162.83 348.092 162.811 347.904 162.786 347.717C162.761 347.529 162.727 347.341 162.692 347.154C162.657 346.966 162.623 346.778 162.583 346.591C162.583 346.526 162.559 346.467 162.544 346.403C162.49 346.156 162.43 345.909 162.366 345.657C162.302 345.405 162.262 345.257 162.203 345.06C162.203 344.971 162.154 344.882 162.124 344.798C162.094 344.714 162.04 344.511 161.996 344.368L161.907 344.092C161.867 343.968 161.828 343.845 161.783 343.721C161.709 343.499 161.63 343.282 161.551 343.059C161.472 342.837 161.388 342.62 161.304 342.403C161.136 341.958 160.954 341.518 160.771 341.079C160.055 339.37 159.25 337.686 158.509 336.017C158.111 335.141 157.758 334.246 157.452 333.335L157.358 333.468C157.208 333.695 157.074 333.933 156.958 334.179C156.958 338.066 153.066 342.822 153.066 342.822L149.15 337.118L145.722 342.388C145.228 342.649 144.734 343.548 144.349 344.828C144.24 345.173 144.137 345.549 144.038 345.949C143.969 346.215 143.905 346.497 143.845 346.778C143.811 346.922 143.781 347.065 143.751 347.213L143.662 347.662V347.732C143.603 348.038 143.544 348.354 143.49 348.675C143.435 348.996 143.371 349.366 143.317 349.717C143.277 349.944 143.243 350.171 143.213 350.399C143.144 350.838 143.085 351.283 143.025 351.722C142.991 351.979 142.956 352.216 142.927 352.488L142.808 353.476C143.06 354.285 143.341 355.086 143.633 355.871C143.819 356.301 143.928 356.761 143.954 357.229C150.014 358.961 156.439 358.961 162.499 357.229C162.497 357.213 162.497 357.196 162.499 357.18C162.408 356.736 162.368 356.284 162.381 355.831C162.481 354.564 162.645 353.303 162.875 352.053C162.948 351.437 162.979 350.816 162.969 350.196V349.974C162.954 349.786 162.949 349.608 162.944 349.431Z" fill="#444176"/>
<path opacity="0.1" d="M149.219 336.788L148.888 336.743C148.388 336.676 147.893 336.577 147.406 336.447L147.223 336.398C146.018 336.057 144.7 335.444 144.403 334.368C144.315 334.021 144.325 333.657 144.433 333.316C144.599 332.728 144.824 332.159 145.105 331.617V331.587C145.142 331.511 145.183 331.437 145.228 331.365C145.636 330.568 146.252 329.897 147.011 329.424L146.418 329.518L141.401 330.333L133.622 331.587C133.622 331.587 132.239 331.31 130.357 336.496C130.357 336.561 130.313 336.62 130.293 336.689C129.839 337.958 129.359 339.544 128.866 341.524C128.525 342.897 128.214 344.245 127.927 345.554C127.843 345.949 127.759 346.34 127.68 346.725C128.571 347.774 129.529 348.764 130.55 349.688L130.713 349.841C132.711 351.651 134.92 353.215 137.291 354.499L137.385 354.548C138.877 355.353 140.429 356.04 142.028 356.603L142.448 356.751C142.536 355.837 142.635 354.825 142.754 353.787C142.754 353.684 142.754 353.58 142.793 353.476L142.912 352.488C142.941 352.237 142.976 351.995 143.011 351.723C143.07 351.283 143.129 350.839 143.198 350.399C143.228 350.172 143.262 349.945 143.302 349.718C143.356 349.367 143.416 349.016 143.475 348.676C143.534 348.335 143.588 348.039 143.648 347.732V347.663L143.737 347.214C143.766 347.066 143.796 346.922 143.83 346.779C143.89 346.498 143.954 346.216 144.023 345.949C144.122 345.549 144.226 345.174 144.334 344.828C144.729 343.549 145.189 342.65 145.707 342.388L149.135 337.119L149.278 336.896L149.342 336.798L149.219 336.788Z" fill="black"/>
<path opacity="0.1" d="M150.044 310.494C151.584 310.232 153.135 309.669 154.666 310C155.95 310.266 157.022 311.121 158.198 311.714C159.333 312.284 160.574 312.612 161.843 312.677C162.305 312.737 162.775 312.645 163.181 312.415C163.793 311.99 163.882 311.121 163.779 310.38C163.482 308.276 162.169 306.468 160.815 304.829C160.275 304.128 159.652 303.496 158.958 302.947C157.185 301.638 154.839 301.416 152.641 301.515C150.132 301.628 147.584 302.112 145.406 303.372C143.924 304.221 140.526 306.898 141.707 308.834C142.946 310.859 148.103 310.825 150.044 310.494Z" fill="black"/>
<path opacity="0.5" d="M150.044 310.001C151.584 309.739 153.135 309.176 154.666 309.507C155.95 309.773 157.022 310.628 158.198 311.22C159.333 311.791 160.574 312.119 161.843 312.184C162.305 312.244 162.775 312.152 163.181 311.922C163.793 311.497 163.882 310.628 163.779 309.887C163.482 307.783 162.169 305.975 160.815 304.336C160.275 303.635 159.652 303.003 158.958 302.454C157.185 301.145 154.839 300.923 152.641 301.022C150.132 301.135 147.584 301.619 145.406 302.879C143.924 303.728 140.526 306.405 141.707 308.341C142.946 310.366 148.103 310.331 150.044 310.001Z" fill="#444176"/>
</g>
<path d="M285.671 285.814H285.745C285.853 289.124 286.322 292.117 287.226 292.946C289.38 294.922 298.309 290.971 297.697 288.58C297.573 288.086 297.366 287.276 297.104 286.254C299.514 285.953 301.574 285.266 302.394 283.854L303.944 288.635L304.053 288.975H304.083H304.172C305.194 298.666 307.51 318.787 309.362 321.483C311.832 325.054 314.672 340.528 314.672 340.528L319.981 372.27C319.981 372.27 322.026 390.544 323.251 392.519C323.607 392.896 324.08 393.142 324.594 393.216C323.878 395.359 322.85 397.863 321.631 399.261C319.161 402.037 315.911 407.593 313.052 407.198C310.192 406.803 309.377 412.754 314.687 413.544C317.625 413.984 322.312 413.45 325.913 412.887C325.913 414.478 327.019 416.305 329.8 416.72C335.109 417.515 346.137 415.134 346.137 415.134C346.137 415.134 355.521 411.183 355.941 408.388C356.237 406.363 354.8 398.234 354 393.971C355.482 391.596 353.901 371.094 353.901 371.094L351.042 331.815C351.042 331.815 352.676 309.995 351.042 306.024C350.019 303.555 349.639 292.196 349.496 284.071L351.471 284.199C351.584 284.064 351.686 283.92 351.778 283.77L352.271 283.804C352.271 283.804 354.741 281.029 352.681 276.663C351.165 273.418 351.452 258.769 351.694 251.474L351.985 248.017C352.093 247.912 352.176 247.784 352.227 247.642C356.058 247.124 359.781 245.997 363.256 244.303C364.304 243.867 365.28 243.274 366.15 242.545C368.194 240.569 366.965 228.657 362.88 210.803C358.796 192.949 355.121 194.534 355.121 194.534C355.121 194.534 345.318 193.739 340.823 187.787C336.329 181.836 333.311 181.915 333.311 181.915C333.197 181.135 333.118 180.399 333.064 179.712C333.064 179.455 333.025 179.218 333.01 178.962C334.538 177.541 335.703 175.774 336.408 173.81C337.326 173.316 338.457 173.153 339.337 172.531C339.561 172.368 339.765 172.179 339.944 171.968C340.825 171.155 341.384 170.053 341.52 168.862C341.66 167.561 341.598 166.247 341.337 164.965C341.026 163.068 340.566 161.127 339.46 159.636C338.354 158.144 336.699 157.245 335.104 156.411C330.784 154.142 326.453 151.896 322.11 149.674C321.261 149.155 320.314 148.819 319.329 148.686C317.591 148.587 316.03 149.778 314.627 150.909C314.068 151.349 313.532 151.819 313.022 152.316C312.589 152.7 312.193 153.126 311.842 153.586C310.202 155.783 309.506 159.922 310.227 162.668C310.454 163.537 310.943 163.789 311.545 163.779C310.651 165.557 310.186 167.519 310.187 169.509C310.197 171.687 310.754 173.828 311.808 175.734C312.862 177.641 314.378 179.252 316.218 180.419C316.218 180.695 316.218 180.967 316.242 181.229C316.262 182.242 316.229 183.256 316.143 184.266C316.143 184.266 305.278 190.138 304.058 192.914C302.838 195.69 298.339 197.675 298.339 197.675C298.339 197.675 289.76 202.041 289.76 217.515L285.266 239.335L284.451 280.994C284.451 280.994 285.014 280.5 285.932 279.799C285.903 280.076 285.878 280.362 285.853 280.653C285.731 282.245 285.69 283.843 285.73 285.439L285.671 285.814ZM340.542 393.635C340.374 394.273 340.127 395.117 339.816 396.105C339.677 395.285 339.539 394.475 339.401 393.705C339.756 393.67 340.137 393.65 340.542 393.635Z" fill="url(#paint2_linear)"/>
<path d="M325.705 388.518C325.705 388.518 324.13 395.6 321.754 398.351C319.378 401.102 316.267 406.614 313.521 406.219C310.775 405.824 309.98 411.726 315.096 412.511C320.213 413.297 330.807 410.941 330.807 410.941C330.807 410.941 339.855 406.99 340.245 404.253C340.635 401.517 337.884 387.338 337.884 387.338L325.705 388.518Z" fill="#53526B"/>
<path opacity="0.05" d="M325.705 388.518C325.705 388.518 324.13 395.6 321.754 398.351C319.378 401.102 316.267 406.614 313.521 406.219C310.775 405.824 309.98 411.726 315.096 412.511C320.213 413.297 330.807 410.941 330.807 410.941C330.807 410.941 339.855 406.99 340.245 404.253C340.635 401.517 337.884 387.338 337.884 387.338L325.705 388.518Z" fill="black"/>
<path d="M340.26 391.664C340.26 391.664 338.685 398.746 336.309 401.497C333.933 404.248 330.807 409.76 328.066 409.365C325.325 408.97 324.525 414.872 329.641 415.657C334.758 416.442 345.377 414.081 345.377 414.081C345.377 414.081 354.425 410.13 354.815 407.394C355.205 404.658 352.454 390.479 352.454 390.479L340.26 391.664Z" fill="#53526B"/>
<path d="M304.463 283.892C304.463 283.892 307.609 317.718 309.97 321.259C312.331 324.8 315.082 340.141 315.082 340.141L320.193 371.606C320.193 371.606 322.169 389.703 323.339 391.668C324.51 393.634 339.109 392.789 339.109 392.789L330.032 288.608L304.463 283.892Z" fill="#5F5D7E"/>
<path opacity="0.05" d="M304.463 283.892C304.463 283.892 307.609 317.718 309.97 321.259C312.331 324.8 315.082 340.141 315.082 340.141L320.193 371.606C320.193 371.606 322.169 389.703 323.339 391.668C324.51 393.634 339.109 392.789 339.109 392.789L330.032 288.608L304.463 283.892Z" fill="black"/>
<path d="M298.171 267.758L299.198 271.022L304.754 288.659L304.863 288.995H304.893C305.638 289.163 321.384 292.783 324.782 293.894C324.965 293.951 325.145 294.019 325.32 294.097C326.895 294.882 328.861 323.202 328.861 323.202C328.861 323.202 330.041 349.951 330.837 351.916C331.632 353.882 334.788 394.391 336.739 393.215C338.689 392.04 352.864 393.215 352.864 393.215C354.44 391.64 352.864 370.403 352.864 370.403L350.069 331.469C350.069 331.469 351.644 309.837 350.069 305.901C348.493 301.964 348.493 275.615 348.493 275.615L316.297 270.583L313.185 270.089L298.171 267.758Z" fill="#5F5D7E"/>
<path opacity="0.02" d="M299.198 271.027L304.754 288.664L304.888 289.01C305.634 289.177 321.379 292.798 324.777 293.909H325.117L316.321 270.587L316.069 269.916L313.21 270.099L299.198 271.027Z" fill="black"/>
<path opacity="0.1" d="M335.934 189.095C335.934 189.095 321.379 204.831 312.331 191.846L303.678 197.748L305.253 206.796L300.136 275.235C300.136 275.235 313.511 274.84 322.949 277.986C325.578 278.918 328.418 279.08 331.136 278.453C333.854 277.825 336.335 276.435 338.289 274.444L336.734 214.269L340.275 195.783L335.934 189.095Z" fill="black"/>
<path d="M335.934 187.915C335.934 187.915 321.379 203.65 312.331 190.666L303.678 196.568L305.253 205.616L300.136 274.054C300.136 274.054 313.511 273.659 322.949 276.805C325.578 277.738 328.418 277.9 331.136 277.272C333.854 276.645 336.335 275.254 338.289 273.264L336.734 213.089L340.275 194.602L335.934 187.915Z" fill="#53526B"/>
<path d="M306.878 257.988V260.468H306.088V258.818H303.199V260.468H302.403V257.993L306.878 257.988Z" fill="#E82127"/>
<path d="M306.172 257.188H303.12C302.92 257.14 302.737 257.039 302.59 256.894C302.444 256.75 302.34 256.568 302.29 256.368H306.997C306.946 256.568 306.842 256.749 306.696 256.894C306.549 257.038 306.367 257.14 306.167 257.188" fill="#E82127"/>
<path d="M333.77 256.398C333.718 256.595 333.614 256.774 333.469 256.918C333.324 257.061 333.143 257.163 332.946 257.213H331.661L331.597 257.237V260.477H330.807V257.237L330.733 257.213H329.449C329.252 257.161 329.072 257.059 328.927 256.916C328.782 256.773 328.678 256.594 328.624 256.398H333.77Z" fill="#E82127"/>
<path d="M305.643 269.338C305.643 269.338 305.643 279.567 303.283 283.893C300.922 288.22 287.157 285.869 287.157 285.869L289.908 271.314L305.643 269.338Z" fill="#D6DBE6"/>
<path d="M288.654 292.946C290.728 294.921 299.327 290.97 298.734 288.619C298.319 286.955 296.867 280.999 296.042 277.621L295.469 275.245C295.469 275.245 290.432 273.669 288.654 275.245C288.007 275.818 287.552 278.075 287.34 280.801C286.974 285.538 287.345 291.691 288.654 292.946Z" fill="#FDC2CC"/>
<path d="M307.594 194.992L321.359 205.611C321.359 205.611 341.811 204.43 336.699 194.597C334.473 190.272 333.13 185.548 332.748 180.699C332.582 178.91 332.582 177.109 332.748 175.32C332.748 175.32 313.867 158.034 316.227 177.681C316.413 179.189 316.522 180.706 316.553 182.225C316.835 196.973 307.594 194.992 307.594 194.992Z" fill="#FDC2CC"/>
<path opacity="0.1" d="M316.267 177.686C316.453 179.194 316.562 180.711 316.593 182.23C318.712 183.633 321.198 184.379 323.739 184.374C327.261 184.374 329.854 180.946 332.195 178.669C331.933 175.405 332.783 175.326 332.783 175.326C332.783 175.326 313.906 158.02 316.267 177.686Z" fill="black"/>
<path d="M323.739 183.588C330.908 183.588 336.719 177.777 336.719 170.609C336.719 163.44 330.908 157.629 323.739 157.629C316.571 157.629 310.76 163.44 310.76 170.609C310.76 177.777 316.571 183.588 323.739 183.588Z" fill="#FDC2CC"/>
<path opacity="0.1" d="M332.98 182.996C332.98 182.996 335.143 183.193 339.47 189.09C343.796 194.987 353.235 195.777 353.235 195.777C353.235 195.777 356.776 194.202 360.707 211.903C364.638 229.604 365.819 241.403 363.853 243.369C361.887 245.334 354.02 248.095 350.069 248.095C350.069 248.095 348.888 272.873 350.854 277.2C352.82 281.526 350.459 284.282 350.459 284.282L333.173 283.102C333.173 283.102 327.271 275.629 326.09 262.65C324.91 249.671 320.979 212.693 322.944 208.367C324.91 204.04 333.563 193.026 333.173 191.846C332.783 190.666 332.98 182.996 332.98 182.996Z" fill="black"/>
<path d="M333.025 182.877C333.025 182.877 335.934 182.798 340.26 188.7C344.587 194.602 354.02 195.387 354.02 195.387C354.02 195.387 357.561 193.812 361.492 211.513C365.424 229.214 366.604 241.013 364.638 242.979C362.673 244.944 354.805 247.7 350.874 247.7C350.874 247.7 349.693 272.479 351.659 276.805C353.625 281.131 351.264 283.887 351.264 283.887L333.978 282.707C333.978 282.707 328.076 275.234 326.895 262.255C325.715 249.276 321.774 212.303 323.739 207.996C325.705 203.69 334.358 192.656 333.968 191.476C333.578 190.295 333.025 182.877 333.025 182.877Z" fill="#D6DBE6"/>
<path opacity="0.1" d="M287.345 280.796C289.226 279.359 292.778 277.122 296.047 277.616L295.474 275.24C295.474 275.24 290.436 273.664 288.658 275.24C288.002 275.813 287.552 278.065 287.345 280.796Z" fill="black"/>
<path opacity="0.1" d="M316.484 185.356C316.484 185.356 306.453 191.846 305.273 194.602C304.093 197.358 299.766 199.324 299.766 199.324C299.766 199.324 291.508 203.65 291.508 218.99L287.182 240.623L306.848 268.157C306.848 268.157 309.209 240.623 310.39 233.935C311.57 227.248 313.141 214.674 313.141 214.674C313.141 214.674 319.043 207.201 318.252 205.235C317.462 203.27 316.484 185.356 316.484 185.356Z" fill="black"/>
<path d="M316.484 185.239C316.484 185.239 306.024 191.062 304.848 193.813C303.673 196.564 299.341 198.535 299.341 198.535C299.341 198.535 291.084 202.861 291.084 218.201L286.757 239.834L285.972 281.133C285.972 281.133 293.054 274.446 298.166 277.592C303.278 280.738 306.424 267.363 306.424 267.363C306.424 267.363 308.785 239.829 309.965 233.142C311.145 226.454 312.716 213.88 312.716 213.88C312.716 213.88 318.618 206.407 317.828 204.442C317.037 202.476 316.484 185.239 316.484 185.239Z" fill="#D6DBE6"/>
<path opacity="0.1" d="M312.345 154.82C313.011 153.973 313.781 153.213 314.637 152.558C315.99 151.432 317.487 150.256 319.166 150.355C320.116 150.481 321.028 150.808 321.843 151.313C326.025 153.516 330.195 155.742 334.353 157.99C335.889 158.82 337.475 159.699 338.546 161.191C339.618 162.682 340.053 164.599 340.354 166.475C340.606 167.747 340.666 169.049 340.532 170.338C340.409 171.601 339.796 172.767 338.823 173.583C337.702 174.397 336.166 174.402 335.227 175.469C334.684 176.087 334.447 176.951 334.062 177.702C333.677 178.452 333.01 179.183 332.249 179.05C331.489 178.917 331.029 178.112 330.921 177.297C330.872 176.471 330.92 175.642 331.064 174.827C331.212 173.345 331.024 171.775 330.165 170.674C329.572 169.923 328.723 169.468 328.15 168.698C326.777 166.841 327.404 163.759 325.898 162.016C325.46 161.56 324.91 161.228 324.303 161.055C323.695 160.881 323.053 160.872 322.441 161.028C321.221 161.285 320.104 161.947 318.983 162.51C317.469 163.274 315.882 163.886 314.247 164.337C312.874 164.712 311.284 165.611 310.814 163.784C310.098 161.102 310.765 156.998 312.345 154.82Z" fill="black"/>
<path d="M312.741 154.43C313.407 153.583 314.176 152.823 315.032 152.168C316.385 151.042 317.882 149.867 319.561 149.966C320.511 150.092 321.424 150.419 322.238 150.924C326.416 153.126 329.888 151.042 334.748 157.601C335.785 159.004 337.87 159.31 338.941 160.801C340.013 162.293 340.448 164.209 340.749 166.086C341.001 167.357 341.061 168.659 340.927 169.948C340.804 171.212 340.191 172.377 339.218 173.193C338.097 174.008 336.561 174.013 335.622 175.08C335.079 175.697 334.842 176.561 334.457 177.312C334.072 178.063 333.405 178.794 332.644 178.66C331.884 178.527 331.424 177.722 331.316 176.907C331.267 176.081 331.315 175.253 331.459 174.438C331.607 172.956 331.419 171.386 330.56 170.284C329.967 169.533 329.118 169.079 328.545 168.309C327.172 166.452 327.799 163.37 326.293 161.626C325.855 161.171 325.305 160.839 324.698 160.665C324.09 160.492 323.448 160.483 322.836 160.638C321.616 160.895 320.5 161.557 319.378 162.12C317.864 162.884 316.277 163.496 314.642 163.948C313.269 164.323 311.679 165.222 311.21 163.394C310.488 160.713 311.16 156.603 312.741 154.43Z" fill="#865A61"/>
<path opacity="0.1" d="M348.192 214.462C348.192 214.462 353.437 227.836 349.501 233.343L340.848 231.367C340.848 231.367 348.715 233.728 347.535 229.007C346.355 224.285 348.192 214.462 348.192 214.462Z" fill="black"/>
<path opacity="0.1" d="M351.056 247.507C351.056 247.507 339.648 248.292 336.502 245.931C340.644 249.094 345.537 251.127 350.701 251.833L351.056 247.507Z" fill="black"/>
<path opacity="0.1" d="M301.91 222.319C301.91 222.319 296.008 240.416 296.403 243.166C296.798 245.917 297.583 276.208 297.583 276.208L298.763 275.813L298.368 242.771L301.91 222.319Z" fill="black"/>
<path d="M352.444 244.436L217.613 135.78C216.828 134.995 215.896 134.374 214.871 133.95C213.845 133.526 212.746 133.309 211.637 133.31H205.907C217.356 118.639 222.778 100.153 221.067 81.6217C219.356 63.0906 210.641 45.9098 196.699 33.5826C182.758 21.2554 164.639 14.71 146.038 15.281C127.437 15.8521 109.754 23.4966 96.5944 36.6558C83.4351 49.8151 75.7906 67.498 75.2196 86.0992C74.6485 104.7 81.1939 122.819 93.5211 136.761C105.848 150.702 123.029 159.417 141.56 161.128C160.091 162.839 178.577 157.418 193.249 145.969V151.693C193.247 152.803 193.465 153.902 193.888 154.927C194.312 155.953 194.934 156.884 195.718 157.669L330.55 266.325C331.331 267.112 332.259 267.736 333.283 268.163C334.306 268.589 335.403 268.808 336.512 268.808C337.62 268.808 338.717 268.589 339.74 268.163C340.764 267.736 341.692 267.112 342.473 266.325L352.41 256.398C353.995 254.813 354.889 252.665 354.896 250.424C354.902 248.182 354.021 246.029 352.444 244.436ZM148.236 133.31C139.333 133.31 130.63 130.67 123.228 125.724C115.826 120.778 110.056 113.748 106.649 105.523C103.242 97.2981 102.351 88.2475 104.088 79.5158C105.825 70.7841 110.112 62.7635 116.407 56.4683C122.702 50.1732 130.723 45.8861 139.454 44.1492C148.186 42.4124 157.237 43.3038 165.462 46.7107C173.687 50.1177 180.717 55.8871 185.663 63.2895C190.609 70.6918 193.249 79.3947 193.249 88.2974C193.254 94.2103 192.092 100.066 189.832 105.53C187.572 110.994 184.256 115.959 180.076 120.14C175.895 124.322 170.931 127.638 165.468 129.9C160.004 132.161 154.149 133.324 148.236 133.32V133.31Z" fill="url(#paint3_linear)"/>
<path d="M353.432 243.448L218.6 134.792C217.816 134.008 216.884 133.386 215.858 132.962C214.833 132.539 213.734 132.321 212.624 132.323H206.895C218.344 117.651 223.766 99.1653 222.055 80.6342C220.344 62.103 211.629 44.9223 197.687 32.595C183.745 20.2678 165.627 13.7224 147.026 14.2935C128.424 14.8645 110.741 22.509 97.5821 35.6683C84.4229 48.8275 76.7784 66.5105 76.2073 85.1117C75.6363 103.713 82.1817 121.831 94.5089 135.773C106.836 149.715 124.017 158.43 142.548 160.141C161.079 161.852 179.565 156.43 194.237 144.981V150.705C194.235 151.815 194.452 152.914 194.876 153.939C195.3 154.965 195.922 155.897 196.706 156.682L331.538 265.337C332.319 266.124 333.247 266.749 334.27 267.175C335.294 267.601 336.391 267.821 337.499 267.821C338.608 267.821 339.705 267.601 340.728 267.175C341.751 266.749 342.68 266.124 343.461 265.337L353.398 255.41C354.983 253.825 355.877 251.678 355.883 249.436C355.89 247.195 355.009 245.042 353.432 243.448ZM149.224 132.323C140.321 132.323 131.618 129.683 124.216 124.737C116.813 119.791 111.044 112.761 107.637 104.536C104.23 96.3105 103.339 87.2599 105.076 78.5282C106.812 69.7965 111.099 61.776 117.395 55.4808C123.69 49.1856 131.71 44.8985 140.442 43.1617C149.174 41.4248 158.224 42.3163 166.449 45.7232C174.675 49.1301 181.705 54.8996 186.651 62.3019C191.597 69.7043 194.237 78.4071 194.237 87.3098C194.241 93.2228 193.08 99.0786 190.82 104.542C188.559 110.006 185.244 114.971 181.064 119.153C176.883 123.334 171.919 126.65 166.456 128.912C160.992 131.174 155.137 132.336 149.224 132.333V132.323Z" fill="#2E205B"/>
<path d="M343.406 233.54C343.406 233.54 323.725 210.969 326.49 226.457C328.466 237.471 335.929 243.373 339.47 244.553C343.011 245.734 343.406 233.54 343.406 233.54Z" fill="#FDC2CC"/>
<path d="M348.128 212.694C348.128 212.694 348.523 227.249 350.488 229.215C352.454 231.18 349.308 233.541 349.308 233.541L341.44 231.565C341.44 231.565 343.416 244.545 335.148 242.974C335.148 242.974 340.655 248.086 346.162 248.876C351.669 249.666 351.274 247.696 351.274 247.696L359.532 237.863L348.128 212.694Z" fill="#D6DBE6"/>
<path d="M350.306 247.908L358.287 246.154L357.22 242.475L352.281 240.499L345.861 243.463L350.306 247.908Z" fill="#D6DBE6"/>
<path d="M154.148 105.964L164.771 97.7704C164.771 97.7704 157.654 99.2966 157.857 87.9223C157.854 87.8845 157.854 87.8465 157.857 87.8087C157.857 86.7814 157.956 85.6554 158.104 84.4157C159.926 69.2385 145.357 82.5933 145.357 82.5933C145.482 83.937 145.482 85.2895 145.357 86.6333C145.357 86.6678 145.357 86.7074 145.357 86.7419C145.068 90.4821 144.037 94.1272 142.324 97.4642C138.368 105.05 154.148 105.964 154.148 105.964Z" fill="#FDC2CC"/>
<path opacity="0.1" d="M146.715 84.5244C148.517 86.2777 149.619 89.4633 152.33 89.4633C154.292 89.4676 156.211 88.892 157.847 87.8087C157.847 86.7815 157.946 85.6554 158.094 84.4157C159.916 69.2385 145.347 82.5933 145.347 82.5933C145.347 82.5933 146.907 82.0549 146.715 84.5244Z" fill="black"/>
<path d="M152.33 88.9689C157.862 88.9689 162.346 84.4846 162.346 78.9528C162.346 73.4211 157.862 68.9368 152.33 68.9368C146.799 68.9368 142.314 73.4211 142.314 78.9528C142.314 84.4846 146.799 88.9689 152.33 88.9689Z" fill="#FDC2CC"/>
<path opacity="0.1" d="M161.936 66.1267C161.362 65.4008 160.698 64.7503 159.961 64.1907C158.805 63.2276 157.521 62.2151 156.084 62.304C155.271 62.4123 154.49 62.6917 153.792 63.1239C150.211 65.0106 147.243 63.2276 143.08 68.8382C142.191 70.0384 140.408 70.3199 139.489 71.5793C138.57 72.8387 138.2 74.4932 137.938 76.1033C137.722 77.1925 137.67 78.3079 137.785 79.4124C137.895 80.4964 138.427 81.4936 139.267 82.188C140.225 82.8844 141.544 82.8893 142.349 83.803C142.754 84.3982 143.085 85.0399 143.337 85.7144C143.662 86.3565 144.235 86.9639 144.887 86.8701C145.539 86.7763 145.929 86.07 146.023 85.3884C146.064 84.6831 146.023 83.9753 145.9 83.2795C145.776 82.03 145.934 80.6668 146.67 79.7235C147.164 79.0765 147.905 78.6913 148.394 78.0344C149.569 76.449 149.036 73.787 150.325 72.3152C150.702 71.9281 151.175 71.6478 151.695 71.5029C152.216 71.3581 152.766 71.3537 153.288 71.4904C154.327 71.7867 155.322 72.215 156.252 72.7646C157.548 73.4191 158.907 73.9436 160.307 74.3303C161.482 74.6513 162.845 75.4217 163.245 73.8364C163.872 71.5052 163.285 67.9887 161.936 66.1267Z" fill="black"/>
<path d="M161.936 65.6336C161.362 64.9076 160.698 64.2571 159.961 63.6975C158.805 62.7345 157.521 61.722 156.084 61.8109C155.271 61.9191 154.49 62.1985 153.792 62.6307C150.211 64.5174 147.243 62.7345 143.08 68.345C142.191 69.5452 140.408 69.8267 139.489 71.0861C138.57 72.3455 138.2 74.0001 137.938 75.6101C137.722 76.6993 137.67 77.8147 137.785 78.9192C137.895 80.0032 138.427 81.0004 139.267 81.6949C140.225 82.3913 141.544 82.3962 142.349 83.3099C142.754 83.905 143.085 84.5468 143.337 85.2212C143.662 85.8633 144.235 86.4708 144.887 86.3769C145.539 86.2831 145.929 85.5768 146.023 84.8953C146.064 84.1899 146.023 83.4822 145.9 82.7864C145.776 81.5368 145.934 80.1737 146.67 79.2304C147.164 78.5834 147.905 78.1981 148.394 77.5413C149.569 75.9559 149.036 73.2938 150.325 71.822C150.702 71.4349 151.175 71.1547 151.695 71.0098C152.216 70.8649 152.766 70.8606 153.288 70.9972C154.327 71.2936 155.322 71.7218 156.252 72.2715C157.548 72.926 158.907 73.4504 160.307 73.8371C161.482 74.1581 162.845 74.9286 163.245 73.3432C163.872 71.012 163.285 67.4955 161.936 65.6336Z" fill="#865A61"/>
<path opacity="0.1" d="M142.314 111.234L142.117 118.815C144.987 119.595 147.948 119.989 150.923 119.985C151.417 119.985 151.935 119.985 152.439 119.951C155.077 119.837 157.691 119.409 160.228 118.677H160.277C160.746 118.538 161.21 118.395 161.67 118.237H161.719L162.139 118.089C163.738 117.526 165.29 116.839 166.781 116.034L166.875 115.985C167.038 115.896 167.201 115.807 167.369 115.713L166.604 105.495L167.824 98.4864L161.146 93.9377C160.771 94.479 160.352 94.9878 159.892 95.4589C159.232 96.1473 158.461 96.7185 157.61 97.148C152.819 99.5088 147.367 95.7552 144.655 93.4339L144.038 92.8857C143.337 92.2486 142.936 91.814 142.936 91.814L139.598 96.9702L142.314 111.234Z" fill="black"/>
<path d="M142.314 111.728L142.117 119.309C144.987 120.089 147.948 120.483 150.923 120.48C151.417 120.48 151.935 120.48 152.439 120.445C155.077 120.331 157.691 119.904 160.228 119.171H160.277C160.746 119.033 161.21 118.889 161.67 118.731H161.719L162.139 118.583C163.738 118.02 165.29 117.333 166.781 116.529L166.875 116.479C167.038 116.39 167.201 116.301 167.369 116.208L166.604 105.989L167.824 98.9808L161.146 94.4321C160.771 94.9733 160.352 95.4822 159.892 95.9532C159.232 96.6417 158.461 97.2129 157.61 97.6423C152.819 100.003 147.367 96.2496 144.655 93.9283L144.038 93.3801C143.337 92.743 142.936 92.3083 142.936 92.3083L139.598 97.4645L142.314 111.728Z" fill="#53526B"/>
<path d="M160.825 112.334C160.825 112.334 161.191 115.243 161.67 118.72H161.719L162.139 118.572C163.738 118.009 165.29 117.322 166.781 116.518L166.875 116.468C167.038 116.379 167.201 116.29 167.369 116.197C169.559 114.968 171.603 113.497 173.464 111.811L173.627 111.658C174.647 110.734 175.606 109.744 176.496 108.694L176.6 108.571C174.837 102.452 171.167 100.525 171.167 100.525C171.167 100.525 167.828 99.0043 166.915 96.8805C166.001 94.7568 157.936 90.2673 157.936 90.2673V90.3019C157.936 90.6822 157.807 94.1641 157.615 97.6658C157.491 99.9426 157.338 102.229 157.16 103.681C157.122 104.153 157.036 104.62 156.904 105.074C156.276 106.571 160.825 112.334 160.825 112.334Z" fill="#555388"/>
</g>
<defs>
<linearGradient id="paint0_linear" x1="253.997" y1="392.445" x2="253.997" y2="19.4055" gradientUnits="userSpaceOnUse">
<stop stop-color="#808080" stop-opacity="0.25"/>
<stop offset="0.54" stop-color="#808080" stop-opacity="0.12"/>
<stop offset="1" stop-color="#808080" stop-opacity="0.1"/>
</linearGradient>
<linearGradient id="paint1_linear" x1="18473.1" y1="30596.4" x2="18473.1" y2="23362.9" gradientUnits="userSpaceOnUse">
<stop stop-color="#808080" stop-opacity="0.25"/>
<stop offset="0.54" stop-color="#808080" stop-opacity="0.12"/>
<stop offset="1" stop-color="#808080" stop-opacity="0.1"/>
</linearGradient>
<linearGradient id="paint2_linear" x1="-86361" y1="232948" x2="-86361" y2="87314.3" gradientUnits="userSpaceOnUse">
<stop stop-color="#808080" stop-opacity="0.25"/>
<stop offset="0.54" stop-color="#808080" stop-opacity="0.12"/>
<stop offset="1" stop-color="#808080" stop-opacity="0.1"/>
</linearGradient>
<linearGradient id="paint3_linear" x1="133919" y1="144076" x2="133919" y2="13852.1" gradientUnits="userSpaceOnUse">
<stop stop-color="#808080" stop-opacity="0.25"/>
<stop offset="0.54" stop-color="#808080" stop-opacity="0.12"/>
<stop offset="1" stop-color="#808080" stop-opacity="0.1"/>
</linearGradient>
<clipPath id="clip0">
<rect width="550" height="416.912" fill="white"/>
</clipPath>
</defs>
</svg>
