<svg width="680" height="392" viewBox="0 0 680 392" fill="none" xmlns="http://www.w3.org/2000/svg">
<g clip-path="url(#clip0)">
<path opacity="0.5" d="M168.745 256.682C127.632 242.476 80.6235 230.452 42.2113 250.866C37.343 253.453 32.5459 256.711 29.9228 261.558C22.9945 274.309 34.0071 290.846 28.6398 304.325C23.2725 317.804 3.07211 324.59 4.72578 338.988C5.16058 342.751 7.19915 346.159 9.60125 349.095C24.6482 367.478 52.2331 369.338 75.5484 364.777C98.8637 360.215 121.666 350.756 145.402 351.946C168.211 353.122 189.195 364.064 210.094 373.273C245.327 388.84 286.477 400.01 321.681 384.364C337.812 377.193 351.148 364.983 366.587 356.458C387.393 345.076 411.309 340.687 434.801 343.942C450.482 346.151 465.451 351.711 480.797 355.546C515.652 364.249 552.033 363.964 587.951 363.622C594.636 363.558 601.429 363.479 607.837 361.569C617.325 358.718 625.151 352.153 632.685 345.731C642.586 337.299 653.014 328.032 656.207 315.423C659.978 300.455 652.173 284.545 640.597 274.374C629.021 264.202 614.224 258.642 599.783 253.282C596.219 251.971 592.413 250.638 588.763 251.629C586.368 252.284 584.351 253.881 582.562 255.599C572.312 265.464 563.652 282.15 549.674 279.47C544.684 278.515 540.6 275.044 536.651 271.836C515.567 254.729 487.205 241.521 461.759 250.973C443.148 257.887 430.011 275.642 411.151 281.908C397.736 286.37 383.159 284.438 369.046 285.308C348.518 286.562 328.538 293.818 307.982 293.377C255.563 292.25 211.891 242.127 159.686 246.903C155.595 247.273 151.132 248.214 148.623 251.45" fill="#2E205B"/>
<path d="M102.642 209.004C102.642 209.004 59.083 235.299 139.407 275.799C139.407 275.799 157.106 242.94 137.54 216.146C133.743 210.925 128.163 207.279 121.857 205.897C115.552 204.515 108.958 205.493 103.326 208.647L102.642 209.004Z" fill="#2E205B"/>
<path d="M103.162 208.455C103.162 208.455 140.455 236.966 139.414 275.778" stroke="#535461" stroke-miterlimit="10"/>
<path d="M653.734 187.1C662.558 219.368 624.916 311.296 624.916 311.296C624.916 311.296 545.711 251.329 536.879 219.061C534.569 211.325 533.829 203.204 534.702 195.177C535.574 187.15 538.043 179.379 541.962 172.319C545.881 165.26 551.171 159.055 557.522 154.07C563.873 149.084 571.157 145.418 578.945 143.287C586.733 141.156 594.868 140.604 602.873 141.662C610.877 142.72 618.59 145.367 625.557 149.448C632.524 153.53 638.605 158.962 643.442 165.427C648.28 171.891 651.776 179.257 653.727 187.093L653.734 187.1Z" fill="#2E205B"/>
<path opacity="0.1" d="M653.734 187.1C662.558 219.368 624.916 311.296 624.916 311.296C624.916 311.296 545.711 251.329 536.879 219.061C534.569 211.325 533.829 203.204 534.702 195.177C535.574 187.15 538.043 179.379 541.962 172.319C545.881 165.26 551.171 159.055 557.522 154.07C563.873 149.084 571.157 145.418 578.945 143.287C586.733 141.156 594.868 140.604 602.873 141.662C610.877 142.72 618.59 145.367 625.557 149.448C632.524 153.53 638.605 158.962 643.442 165.427C648.28 171.891 651.776 179.257 653.727 187.093L653.734 187.1Z" fill="black"/>
<path d="M579.647 144.839C579.647 144.839 628.95 219.268 625.265 311.474" stroke="#535461" stroke-miterlimit="10"/>
<path d="M666.314 246.076C666.314 246.076 621.608 221.756 627.268 311.531C627.268 311.531 664.561 310.198 677.798 279.777C680.386 273.86 680.713 267.199 678.717 261.057C676.722 254.915 672.542 249.719 666.97 246.454L666.314 246.076Z" fill="#2E205B"/>
<path d="M667.049 246.233C667.049 246.233 661.275 292.835 627.268 311.531" stroke="#535461" stroke-miterlimit="10"/>
<path d="M11.8038 236.068C11.8038 236.068 -31.7761 262.356 48.5551 302.835C48.5551 302.835 66.2537 269.976 46.6876 243.182C42.8907 237.961 37.3109 234.315 31.0053 232.933C24.6996 231.551 18.1061 232.53 12.4738 235.683L11.8038 236.068Z" fill="#2E205B"/>
<path d="M12.3027 235.519C12.3027 235.519 49.5958 264.031 48.5551 302.842" stroke="#535461" stroke-miterlimit="10"/>
<path d="M555.569 270.289H509.772C510.826 268.17 511.372 265.835 511.369 263.468V54.9346C511.369 50.8683 509.753 46.9685 506.878 44.0932C504.003 41.2179 500.103 39.6025 496.036 39.6025H141.545C137.479 39.6025 133.579 41.2179 130.704 44.0932C127.829 46.9685 126.213 50.8683 126.213 54.9346V263.475C126.21 265.842 126.756 268.177 127.81 270.296H80.3954C79.861 270.296 79.3318 270.402 78.8384 270.607C78.3449 270.812 77.8968 271.113 77.5199 271.492C77.1431 271.871 76.8448 272.32 76.6422 272.815C76.4396 273.309 76.3368 273.839 76.3396 274.374V277.645C76.3396 283.661 78.7292 289.43 82.9827 293.683C87.2362 297.937 93.0052 300.326 99.0206 300.326H536.943C542.959 300.326 548.728 297.937 552.981 293.683C557.235 289.43 559.624 283.661 559.624 277.645V274.374C559.628 273.839 559.526 273.308 559.324 272.813C559.122 272.317 558.824 271.867 558.447 271.487C558.07 271.108 557.621 270.806 557.127 270.601C556.633 270.395 556.104 270.289 555.569 270.289ZM273.383 283.262L269.434 278.807H366.929L362.581 283.269L273.383 283.262Z" fill="url(#paint0_linear)"/>
<path d="M490.413 42.5535H147.134C137.977 42.5535 130.554 49.9763 130.554 59.1329V259.761C130.554 268.918 137.977 276.341 147.134 276.341H490.413C499.569 276.341 506.992 268.918 506.992 259.761V59.1329C506.992 49.9763 499.569 42.5535 490.413 42.5535Z" fill="#535461"/>
<path d="M498.275 76.6319H138.48V267.623H498.275V76.6319Z" fill="white"/>
<path d="M318.381 63.1602C320.133 63.1602 321.553 61.7401 321.553 59.9883C321.553 58.2365 320.133 56.8163 318.381 56.8163C316.629 56.8163 315.209 58.2365 315.209 59.9883C315.209 61.7401 316.629 63.1602 318.381 63.1602Z" fill="white"/>
<path d="M373.929 268.016L361.569 280.696H274.423L263.254 268.016H85.7769C84.7258 268.016 83.7178 268.433 82.9746 269.176C82.2314 269.92 81.8138 270.928 81.8138 271.979V275.172C81.8138 281.051 84.1493 286.69 88.3066 290.847C92.4639 295.004 98.1023 297.34 103.982 297.34H531.982C534.894 297.34 537.776 296.766 540.466 295.652C543.155 294.538 545.599 292.905 547.657 290.847C549.716 288.788 551.349 286.345 552.463 283.655C553.577 280.966 554.15 278.083 554.15 275.172V271.979C554.15 270.928 553.733 269.92 552.989 269.176C552.246 268.433 551.238 268.016 550.187 268.016H373.929Z" fill="#535461"/>
<path d="M184.448 88.5212V250.98H453.098" stroke="#535461" stroke-width="2" stroke-miterlimit="10"/>
<path opacity="0.5" d="M235.954 201.847H208.22V244.643H235.954V201.847Z" fill="#2E205B"/>
<path opacity="0.7" d="M283.504 163.806H255.77V244.643H283.504V163.806Z" fill="#2E205B"/>
<path opacity="0.5" d="M331.055 186.786H303.32V244.636H331.055V186.786Z" fill="#2E205B"/>
<path opacity="0.8" d="M378.605 151.125H350.87V244.643H378.605V151.125Z" fill="#2E205B"/>
<path d="M426.155 117.838H398.42V244.636H426.155V117.838Z" fill="#2E205B"/>
<path d="M221.691 175.695L270.033 132.108L317.583 173.314L364.342 123.391L411.892 103.575" stroke="#535461" stroke-width="2" stroke-miterlimit="10"/>
<path d="M221.691 181.241C224.754 181.241 227.237 178.758 227.237 175.695C227.237 172.632 224.754 170.15 221.691 170.15C218.629 170.15 216.146 172.632 216.146 175.695C216.146 178.758 218.629 181.241 221.691 181.241Z" fill="#2E205B"/>
<path d="M316.792 178.069C319.854 178.069 322.337 175.586 322.337 172.523C322.337 169.461 319.854 166.978 316.792 166.978C313.729 166.978 311.246 169.461 311.246 172.523C311.246 175.586 313.729 178.069 316.792 178.069Z" fill="#2E205B"/>
<path d="M365.133 128.936C368.196 128.936 370.678 126.453 370.678 123.391C370.678 120.328 368.196 117.845 365.133 117.845C362.07 117.845 359.587 120.328 359.587 123.391C359.587 126.453 362.07 128.936 365.133 128.936Z" fill="#2E205B"/>
<path d="M270.033 136.855C273.095 136.855 275.578 134.373 275.578 131.31C275.578 128.247 273.095 125.764 270.033 125.764C266.97 125.764 264.487 128.247 264.487 131.31C264.487 134.373 266.97 136.855 270.033 136.855Z" fill="#2E205B"/>
<path d="M411.892 109.121C414.954 109.121 417.437 106.638 417.437 103.575C417.437 100.513 414.954 98.0298 411.892 98.0298C408.829 98.0298 406.346 100.513 406.346 103.575C406.346 106.638 408.829 109.121 411.892 109.121Z" fill="#2E205B"/>
<path d="M618.208 274.958C615.286 273.996 610.952 272.884 607.517 273.276C604.245 272.086 596.554 268.999 591.301 264.352C591.452 259.782 591.335 255.208 590.951 250.652C588.264 220.095 594.309 199.951 594.309 199.951C594.309 199.951 599.056 184.584 598.535 171.832C598.842 172.409 599.013 172.751 599.013 172.751C599.426 161.753 603.176 150.37 605.984 143.278C606.091 143.247 606.196 143.209 606.298 143.164L609.434 135.722C609.684 135.288 609.882 134.826 610.026 134.346L610.532 133.17L610.382 133.106C610.432 132.914 610.482 132.707 610.532 132.5C612.535 124.025 614.096 103.925 614.096 103.925C619.47 82.769 606.711 69.7107 606.711 69.7107L585.057 51.0784C585.164 51.321 585.236 51.5779 585.27 51.8411L585.092 51.6843C584.786 50.8076 584.451 49.7598 584.123 48.5623C584.887 48.0138 585.602 47.401 586.261 46.7304C588.723 44.4052 590.417 41.3837 591.115 38.07C591.535 35.4787 591.643 32.8463 591.436 30.2294L591.08 21.2411C591.063 19.482 590.885 17.7282 590.545 16.0021C588.913 8.87423 581.607 3.88471 574.272 3.55683C571.938 3.54324 569.606 3.667 567.287 3.92748C565.39 4.08329 563.486 4.12375 561.584 4.04865C561.368 4.06012 561.153 4.00273 560.972 3.88471C560.806 3.72007 560.712 3.49768 560.708 3.26458C560.67 2.84741 560.718 2.42699 560.848 2.02878C560.978 1.63058 561.187 1.26289 561.463 0.948019C561.75 0.696381 562.085 0.504902 562.447 0.384921L561.927 0.506094C562.183 0.303799 562.472 0.147085 562.782 0.0427856C560.881 0.377068 559.052 1.0404 557.379 2.00295C556.918 2.30586 556.495 2.66236 556.117 3.065C555.121 3.93955 554.473 5.1442 554.293 6.45788C553.4 5.70388 552.733 4.71688 552.368 3.60673C552.255 3.15277 552.255 2.67787 552.368 2.22392C552.24 2.38073 552.116 2.54229 551.997 2.70861C551.997 2.65871 551.997 2.60882 551.997 2.55893C550.62 4.25211 549.645 6.23604 549.146 8.36102C548.954 8.13091 548.81 7.86495 548.722 7.5786C548.634 7.29226 548.604 6.99126 548.633 6.6931C548.526 7.02811 548.426 7.36311 548.334 7.69812C548.301 7.47596 548.301 7.25027 548.334 7.0281C547.495 9.59783 547.116 12.2956 547.215 14.9971C547.215 17.6914 548.412 21.8897 551.299 22.8377C551.449 22.8876 551.598 22.9233 551.755 22.9589C550.132 25.4809 549.159 28.3663 548.925 31.3565C548.692 34.3467 549.203 37.3482 550.415 40.092C551.626 42.8357 553.5 45.236 555.867 47.0775C558.235 48.9191 561.022 50.1444 563.979 50.6436C564.027 50.9715 564.072 51.316 564.115 51.6772H564.229C564.307 52.39 564.372 53.174 564.414 53.9723C563.686 54.6861 562.888 55.326 562.034 55.8826C559.61 57.3152 556.907 58.2098 554.107 58.5057C550.764 58.768 547.515 59.74 544.577 61.3568C541.12 63.2885 537.307 66.104 536.109 69.5254C534.114 75.2277 523.122 84.1019 515.752 85.2067L513.129 85.057L512.937 85V85.0499L512.295 85.0143H512.26H512.088V85.0499L511.426 85.0143C511.426 85.0143 511.361 85.3208 511.269 85.8625C507.562 84.5866 499.686 81.0512 489.436 71.7493C478.031 61.3925 462.6 63.431 456.648 64.7355C456.445 64.7801 456.261 64.8855 456.12 65.0375C455.979 65.1895 455.888 65.3809 455.858 65.5861C455.829 65.7914 455.863 66.0007 455.956 66.1862C456.048 66.3717 456.195 66.5246 456.377 66.6243C458.779 67.943 462.5 69.8604 464.218 70.0742C464.218 70.0742 460.654 73.8021 464.446 75.7765C464.901 75.9965 465.407 76.0869 465.91 76.0379C466.413 75.9888 466.893 75.8022 467.297 75.4985C469.136 74.1514 474.247 77.2021 481.652 78.7916C481.652 78.7916 502.551 100.418 512.93 103.739C513.169 104.211 513.433 104.671 513.721 105.115L514.362 105.065V105.115H514.633L514.712 105.828C514.712 105.828 530.849 104.979 536.095 99.1203C536.467 98.7878 536.808 98.4228 537.114 98.0298L531.505 168.596H531.555L531.505 169.266H535.632C535.985 177.945 535.611 186.638 534.513 195.254V241.257C534.513 241.257 534.299 245.306 542.71 251.236C551.529 257.376 560.027 263.964 568.171 270.974L569.19 271.857C567.643 285.935 564.407 312.173 561.706 313.149L563.374 313.441C560.522 317.055 552.425 326.984 549.959 327.248C546.937 327.583 544.92 332.288 549.959 333.293C560.021 335.034 570.367 334.015 579.896 330.342C580.846 329.967 581.644 329.284 582.16 328.403C582.677 327.522 582.884 326.493 582.747 325.48L581.771 318.068C581.956 318.17 582.105 318.327 582.198 318.517C582.868 320.534 582.198 315.829 582.198 315.829C584.96 306.954 587.129 297.906 588.692 288.743L598.671 297.368C598.671 297.368 598.87 297.119 599.22 296.655C601.665 302.201 606.027 313.548 605.05 321.86C603.71 333.264 616.455 323.2 615.122 316.485C614.039 311.054 618.886 288.031 620.774 279.42C620.978 278.49 620.828 277.518 620.353 276.693C619.879 275.868 619.114 275.25 618.208 274.958Z" fill="url(#paint1_linear)"/>
<path d="M513.92 88.6851C513.92 88.6851 504.412 87.0457 490.313 74.2583C479.158 64.1438 464.111 66.1325 458.309 67.4084C458.111 67.4511 457.931 67.5533 457.793 67.7013C457.655 67.8493 457.566 68.0359 457.537 68.2362C457.508 68.4364 457.542 68.6406 457.632 68.8214C457.723 69.0022 457.867 69.1508 458.045 69.2474C460.39 70.5304 464.025 72.405 465.729 72.6189C465.729 72.6189 462.215 76.2541 465.95 78.2C466.397 78.4196 466.896 78.5106 467.392 78.4628C467.888 78.415 468.361 78.2302 468.758 77.9291C470.554 76.6176 475.544 79.5971 482.779 81.1438C482.779 81.1438 510.977 110.325 517.534 105.379L513.92 88.6851Z" fill="#FEC3BE"/>
<path d="M562.468 49.0113C562.468 49.0113 565.091 60.1593 562.468 68.0285L574.272 69.6679L584.764 64.4218V57.5363C584.764 57.5363 579.846 47.044 581.158 34.9124L562.468 49.0113Z" fill="#FEC3BE"/>
<path d="M595.891 290.647C595.891 290.647 604.444 307.369 603.104 318.517C601.764 329.665 614.252 319.828 612.941 313.27C611.879 307.967 616.612 285.472 618.458 277.104C618.658 276.199 618.515 275.253 618.057 274.448C617.598 273.643 616.857 273.038 615.977 272.748C612.036 271.451 605.435 269.862 602.121 272.292C597.224 275.892 595.891 290.647 595.891 290.647Z" fill="#FFB657"/>
<path d="M563.452 309.008C563.452 309.008 552.304 323.435 549.353 323.763C546.402 324.091 544.435 328.681 549.353 329.665C559.173 331.374 569.273 330.388 578.577 326.813C579.508 326.45 580.291 325.785 580.799 324.924C581.307 324.063 581.511 323.057 581.379 322.066L579.497 308.024L563.452 309.008Z" fill="#FFB657"/>
<path d="M545.091 155.894L534.399 157.319C535.866 169.808 535.823 182.427 534.27 194.905V239.81C534.27 239.81 534.064 243.766 542.275 249.519C550.886 255.505 559.184 261.928 567.137 268.764L596.889 294.538C596.889 294.538 608.693 280.112 607.053 271.587C607.053 271.587 587.38 265.357 584.757 255.192C583.253 249.376 575.626 244.501 569.382 241.436C565.457 239.529 562.302 236.338 560.442 232.391C558.581 228.444 558.127 223.979 559.154 219.738C559.519 218.265 560.082 216.847 560.829 215.526C566.075 206.345 573.616 185.688 573.616 185.688L559.19 158.189L545.091 155.894Z" fill="#4D4981"/>
<path opacity="0.05" d="M545.091 155.894L534.399 157.319C535.866 169.808 535.823 182.427 534.27 194.905V239.81C534.27 239.81 534.064 243.766 542.275 249.519C550.886 255.505 559.184 261.928 567.137 268.764L596.889 294.538C596.889 294.538 608.693 280.112 607.053 271.587C607.053 271.587 587.38 265.357 584.757 255.192C583.253 249.376 575.626 244.501 569.382 241.436C565.457 239.529 562.302 236.338 560.442 232.391C558.581 228.444 558.127 223.979 559.154 219.738C559.519 218.265 560.082 216.847 560.829 215.526C566.075 206.345 573.616 185.688 573.616 185.688L559.19 158.189L545.091 155.894Z" fill="black"/>
<path d="M560.829 310.013C560.829 310.013 580.174 313.292 580.83 315.259C581.486 317.226 580.83 312.636 580.83 312.636C580.83 312.636 591.978 278.864 589.383 249.034C586.789 219.204 592.662 199.524 592.662 199.524C592.662 199.524 599.548 177.228 595.613 164.44C591.678 151.653 550.365 157.227 550.365 157.227C550.365 157.227 564.792 190.999 564.464 207.065C564.464 207.065 566.104 255.592 569.054 261.166C569.026 261.137 564.436 308.68 560.829 310.013Z" fill="#4D4981"/>
<path d="M563.103 57.5363C563.103 57.5363 565.07 69.6537 584.743 64.4218L571.656 164.091C571.656 164.091 533.622 165.402 533.95 160.812L541.79 100.489L563.103 57.5363Z" fill="white"/>
<path opacity="0.1" d="M563.616 56.8805C561.054 59.4026 557.717 60.9872 554.143 61.3782C550.879 61.6284 547.705 62.5712 544.834 64.1438C541.462 66.0327 537.706 68.7769 536.566 72.1199C534.27 78.6776 519.844 89.4977 513.286 87.2025L515.581 106.875C515.581 106.875 534.27 105.892 537.549 98.6784L531.982 168.881H536.901C536.901 168.881 539.524 149.864 541.491 145.929C543.458 141.995 547.393 120.354 547.721 115.108C548.049 109.862 552.967 79.6969 557.229 74.4792L563.644 58.9048L563.616 56.8805Z" fill="black"/>
<path opacity="0.1" d="M563.616 57.8642C560.686 60.1562 557.182 61.5987 553.487 62.034C550.224 62.2895 547.053 63.2372 544.185 64.8138C540.814 66.7027 537.057 69.447 535.917 72.7899C533.622 79.3476 519.195 90.1677 512.637 87.8725L514.932 107.546C514.932 107.546 533.622 106.562 536.901 99.3484L531.327 169.508H536.245C536.245 169.508 538.868 150.491 540.835 146.556C542.803 142.622 546.737 120.982 547.065 115.735C547.393 110.489 552.311 80.3241 556.574 75.1065L563.616 59.8243V57.8642Z" fill="black"/>
<path d="M563.616 57.2084C560.686 59.5005 557.182 60.9429 553.487 61.3782C550.223 61.6284 547.05 62.5712 544.178 64.1438C540.807 66.0327 537.05 68.7769 535.91 72.1199C533.615 78.6776 519.188 89.4977 512.63 87.2025L514.925 106.875C514.925 106.875 533.615 105.892 536.893 98.6784L531.327 168.881H536.245C536.245 168.881 538.868 149.864 540.835 145.929C542.803 141.995 546.737 120.354 547.065 115.108C547.393 109.862 552.311 79.6969 556.574 74.4792L563.623 59.2327L563.616 57.2084Z" fill="#FFB657"/>
<path opacity="0.1" d="M580.338 44.5849C579.91 41.4771 580.766 39.5384 581.158 35.896L562.468 49.995C562.468 49.995 562.917 51.8981 563.26 54.6851C564.202 54.8374 565.156 54.9137 566.111 54.9132C572.597 54.9132 577.266 49.8453 580.338 44.5849Z" fill="black"/>
<path d="M566.075 53.9367C575.854 53.9367 583.781 46.0096 583.781 36.231C583.781 26.4525 575.854 18.5254 566.075 18.5254C556.296 18.5254 548.369 26.4525 548.369 36.231C548.369 46.0096 556.296 53.9367 566.075 53.9367Z" fill="#FEC3BE"/>
<path opacity="0.1" d="M546.751 18.8746C546.638 15.8887 547.122 12.9103 548.177 10.1145C547.884 10.5543 547.76 11.0854 547.828 11.6095C547.896 12.1335 548.152 12.6153 548.548 12.9656C549.118 9.91852 550.682 7.14632 552.995 5.08218C551.734 5.28889 551.085 6.8499 551.399 8.09015C551.825 9.30156 552.583 10.3686 553.587 11.1694C553.48 9.29477 554.72 7.54131 556.288 6.51489C557.922 5.5764 559.707 4.92996 561.563 4.60461C560.927 4.8305 560.383 5.26068 560.017 5.82802C559.651 6.39537 559.483 7.06796 559.539 7.74088C559.544 7.9695 559.639 8.18692 559.802 8.34675C559.981 8.46071 560.19 8.51558 560.401 8.50357C562.248 8.57474 564.098 8.53428 565.94 8.38239C568.204 8.12751 570.482 8.00613 572.761 8.01888C579.889 8.31825 587.052 13.1866 588.649 20.1363C588.98 21.8225 589.154 23.5358 589.169 25.2541L589.519 34.0285C589.721 36.5884 589.616 39.1634 589.205 41.6981C588.711 44.0381 587.707 46.2404 586.264 48.1477C584.822 50.055 582.976 51.6203 580.858 52.7321C578.285 49.0042 578.057 44.2143 577.166 39.7736C577.025 38.7488 576.644 37.7718 576.054 36.9224C575.749 36.5024 575.321 36.1876 574.83 36.0216C574.338 35.8556 573.807 35.8466 573.31 35.9958C572.348 36.3807 571.934 37.8491 572.732 38.5048C572.02 39.3459 570.687 38.7187 569.881 37.9702C567.632 35.8364 566.083 33.07 565.441 30.0369C565.12 28.5115 564.799 26.6298 563.302 26.1094C562.787 25.9679 562.249 25.9316 561.72 26.0025C558.598 26.2164 553.715 27.5065 550.693 26.5157C547.92 25.6105 546.751 21.5048 546.751 18.8746Z" fill="black"/>
<path d="M547.079 18.5467C546.966 15.5609 547.45 12.5824 548.505 9.78658C548.212 10.2265 548.088 10.7575 548.156 11.2816C548.224 11.8057 548.48 12.2874 548.875 12.6377C549.446 9.59064 551.01 6.81844 553.323 4.7543C552.062 4.96101 551.413 6.52202 551.727 7.76227C552.153 8.97368 552.911 10.0408 553.915 10.8415C553.808 8.96687 555.048 7.21342 556.616 6.187C558.25 5.24851 560.035 4.60208 561.891 4.27673C561.255 4.50262 560.711 4.9328 560.345 5.50014C559.979 6.06748 559.81 6.74008 559.867 7.413C559.872 7.64162 559.967 7.85904 560.13 8.01887C560.309 8.13283 560.518 8.18769 560.729 8.17568C562.576 8.24685 564.425 8.20639 566.267 8.0545C568.532 7.79961 570.81 7.67823 573.089 7.69098C580.217 7.99036 587.38 12.8587 588.977 19.8084C589.308 21.4946 589.482 23.2079 589.497 24.9262L589.847 33.7006C590.049 36.2605 589.944 38.8355 589.533 41.3702C589.039 43.7103 588.035 45.9125 586.592 47.8198C585.15 49.7271 583.304 51.2924 581.186 52.4042C578.613 48.6763 578.385 43.8864 577.494 39.4457C577.353 38.4209 576.972 37.4439 576.382 36.5946C576.077 36.1746 575.649 35.8598 575.158 35.6937C574.666 35.5277 574.135 35.5187 573.638 35.6679C572.675 36.0528 572.262 37.5212 573.06 38.1769C572.348 39.018 571.015 38.3908 570.209 37.6424C567.96 35.5085 566.411 32.7421 565.769 29.709C565.448 28.1836 565.127 26.3019 563.63 25.7816C563.115 25.64 562.577 25.6037 562.048 25.6746C558.926 25.8885 554.043 27.1786 551.021 26.1878C548.248 25.2755 547.079 21.1769 547.079 18.5467Z" fill="#784F69"/>
<path opacity="0.1" d="M511.782 87.2097C511.782 87.2097 509.159 99.327 514.077 106.883L516.864 106.655L515.346 87.4092L511.782 87.2097Z" fill="black"/>
<path d="M512.495 87.2097C512.495 87.2097 509.872 99.327 514.79 106.883L517.577 106.655L516.059 87.4092L512.495 87.2097Z" fill="#FFB657"/>
<path opacity="0.1" d="M582.961 54.122L604.109 72.3195C604.109 72.3195 616.569 85.1069 611.323 105.764C611.323 105.764 609.028 135.929 606.405 137.24C606.405 137.24 597.224 155.602 596.568 172.979C596.568 172.979 584.273 148.224 578.699 163.307C573.125 178.39 560.166 180.521 560.166 180.521L567.379 91.3082C567.379 91.3082 585.584 59.6675 582.961 54.122Z" fill="black"/>
<path d="M583.617 54.122L604.765 72.3195C604.765 72.3195 617.225 85.1069 611.979 105.764C611.979 105.764 609.683 135.929 607.06 137.24C607.06 137.24 597.88 155.602 597.224 172.979C597.224 172.979 584.273 146.913 578.691 161.995C573.11 177.078 560.822 180.528 560.822 180.528L568.035 91.3509C568.035 91.3509 586.24 59.6675 583.617 54.122Z" fill="#FFB657"/>
<path d="M593.289 130.982C593.289 130.982 598.535 127.375 607.06 137.212L586.076 175.246L579.026 164.604C579.026 164.604 593.945 135.244 593.289 130.982Z" fill="#FEC3BE"/>
<path opacity="0.1" d="M588.207 133.113C588.207 133.113 599.811 146.143 604.337 144.055L608.529 134.296L592.797 127.539L588.207 133.113Z" fill="black"/>
<path d="M588.207 132.457C588.207 132.457 599.811 145.487 604.337 143.399L608.529 133.641L592.797 126.883L588.207 132.457Z" fill="#FFB657"/>
<path opacity="0.1" d="M579.739 162.117C579.739 162.117 585.263 173.436 588.207 174.091L583.93 179.01L577.701 167.206L579.739 162.117Z" fill="black"/>
<path d="M579.411 162.466C579.411 162.466 584.935 173.785 587.879 174.441L583.603 179.359L577.358 167.534L579.411 162.466Z" fill="#4D4981"/>
<path opacity="0.1" d="M589.847 92.4557C589.847 92.4557 590.502 116.063 587.879 124.916L589.847 92.4557Z" fill="black"/>
<path opacity="0.1" d="M536.73 97.0461C536.73 97.0461 540.664 95.7346 540.664 92.4557L536.73 97.0461Z" fill="black"/>
<path d="M58.9405 100.995C58.9405 100.995 40.2512 139.657 52.5254 185.41C64.7996 231.164 60.9006 285.914 48.6621 299.457" stroke="#535461" stroke-width="2" stroke-miterlimit="10"/>
<path d="M58.9405 106.156C61.7866 106.156 64.0939 103.848 64.0939 101.002C64.0939 98.1559 61.7866 95.8486 58.9405 95.8486C56.0943 95.8486 53.787 98.1559 53.787 101.002C53.787 103.848 56.0943 106.156 58.9405 106.156Z" fill="#2E205B"/>
<path d="M51.1711 125.864C51.1711 125.864 70.5447 129.357 75.6981 122.3" stroke="#535461" stroke-width="2" stroke-miterlimit="10"/>
<path d="M49.3321 137.091C49.3321 137.091 37.678 124.196 38.3195 116.462" stroke="#535461" stroke-width="2" stroke-miterlimit="10"/>
<path d="M48.3413 160.712C48.3413 160.712 58.9405 163.507 68.613 142.893" stroke="#535461" stroke-width="2" stroke-miterlimit="10"/>
<path d="M51.1711 177.891C51.1711 177.891 24.7979 160.919 28.0126 149.971" stroke="#535461" stroke-width="2" stroke-miterlimit="10"/>
<path d="M55.291 197.314C55.291 197.314 73.7665 180.92 71.8348 164.79" stroke="#535461" stroke-width="2" stroke-miterlimit="10"/>
<path d="M57.301 208.733C57.301 208.733 33.779 202.161 34.4918 191.854" stroke="#535461" stroke-width="2" stroke-miterlimit="10"/>
<path d="M58.9405 222.34C58.9405 222.34 73.7593 208.612 75.691 200.244" stroke="#535461" stroke-width="2" stroke-miterlimit="10"/>
<path d="M59.974 245.684C59.974 245.684 44.7702 227.935 44.1216 218.919" stroke="#535461" stroke-width="2" stroke-miterlimit="10"/>
<path d="M59.974 260.374C59.974 260.374 76.9883 241.471 78.2713 232.455" stroke="#535461" stroke-width="2" stroke-miterlimit="10"/>
<path d="M38.3195 122.906C41.1657 122.906 43.4729 120.599 43.4729 117.753C43.4729 114.906 41.1657 112.599 38.3195 112.599C35.4733 112.599 33.166 114.906 33.166 117.753C33.166 120.599 35.4733 122.906 38.3195 122.906Z" fill="#2E205B"/>
<path d="M32.5245 197.008C35.3707 197.008 37.678 194.7 37.678 191.854C37.678 189.008 35.3707 186.701 32.5245 186.701C29.6783 186.701 27.3711 189.008 27.3711 191.854C27.3711 194.7 29.6783 197.008 32.5245 197.008Z" fill="#2E205B"/>
<path d="M28.0126 155.124C30.8588 155.124 33.166 152.817 33.166 149.971C33.166 147.124 30.8588 144.817 28.0126 144.817C25.1664 144.817 22.8591 147.124 22.8591 149.971C22.8591 152.817 25.1664 155.124 28.0126 155.124Z" fill="#2E205B"/>
<path d="M75.6981 127.418C78.5443 127.418 80.8516 125.111 80.8516 122.265C80.8516 119.418 78.5443 117.111 75.6981 117.111C72.8519 117.111 70.5447 119.418 70.5447 122.265C70.5447 125.111 72.8519 127.418 75.6981 127.418Z" fill="#2E205B"/>
<path d="M75.6981 206.673C78.5443 206.673 80.8516 204.366 80.8516 201.519C80.8516 198.673 78.5443 196.366 75.6981 196.366C72.8519 196.366 70.5447 198.673 70.5447 201.519C70.5447 204.366 72.8519 206.673 75.6981 206.673Z" fill="#2E205B"/>
<path d="M67.3229 148.039C70.169 148.039 72.4763 145.732 72.4763 142.886C72.4763 140.039 70.169 137.732 67.3229 137.732C64.4767 137.732 62.1694 140.039 62.1694 142.886C62.1694 145.732 64.4767 148.039 67.3229 148.039Z" fill="#2E205B"/>
<path d="M77.6298 240.83C80.476 240.83 82.7832 238.523 82.7832 235.676C82.7832 232.83 80.476 230.523 77.6298 230.523C74.7836 230.523 72.4763 232.83 72.4763 235.676C72.4763 238.523 74.7836 240.83 77.6298 240.83Z" fill="#2E205B"/>
<path d="M42.8315 227.294C45.6776 227.294 47.9849 224.987 47.9849 222.14C47.9849 219.294 45.6776 216.987 42.8315 216.987C39.9853 216.987 37.678 219.294 37.678 222.14C37.678 224.987 39.9853 227.294 42.8315 227.294Z" fill="#2E205B"/>
<path d="M72.4763 169.943C75.3225 169.943 77.6298 167.636 77.6298 164.79C77.6298 161.943 75.3225 159.636 72.4763 159.636C69.6301 159.636 67.3228 161.943 67.3228 164.79C67.3228 167.636 69.6301 169.943 72.4763 169.943Z" fill="#2E205B"/>
</g>
<defs>
<linearGradient id="paint0_linear" x1="317.982" y1="300.298" x2="317.982" y2="39.5954" gradientUnits="userSpaceOnUse">
<stop stop-color="#808080" stop-opacity="0.25"/>
<stop offset="0.54" stop-color="#808080" stop-opacity="0.12"/>
<stop offset="1" stop-color="#808080" stop-opacity="0.1"/>
</linearGradient>
<linearGradient id="paint1_linear" x1="145393" y1="215069" x2="145393" y2="58486.9" gradientUnits="userSpaceOnUse">
<stop stop-color="#808080" stop-opacity="0.25"/>
<stop offset="0.54" stop-color="#808080" stop-opacity="0.12"/>
<stop offset="1" stop-color="#808080" stop-opacity="0.1"/>
</linearGradient>
<clipPath id="clip0">
<rect width="680" height="391.934" fill="white"/>
</clipPath>
</defs>
</svg>
