<svg width="500" height="387" viewBox="0 0 500 387" fill="none" xmlns="http://www.w3.org/2000/svg">
<g clip-path="url(#clip0)">
<path opacity="0.1" d="M181.404 372.772C281.103 372.772 361.925 362.886 361.925 350.691C361.925 338.496 281.103 328.61 181.404 328.61C81.7048 328.61 0.882812 338.496 0.882812 350.691C0.882812 362.886 81.7048 372.772 181.404 372.772Z" fill="#20385B"/>
<path d="M496.206 0H13.9519C11.8564 0 10.1577 1.69873 10.1577 3.79423V263.369C10.1577 265.465 11.8564 267.163 13.9519 267.163H496.206C498.301 267.163 500 265.465 500 263.369V3.79423C500 1.69873 498.301 0 496.206 0Z" fill="#E8EAF2"/>
<path d="M499.995 3.79423V16.6202H10.1526V3.79423C10.1526 3.29555 10.251 2.80176 10.4419 2.3411C10.6329 1.88044 10.9129 1.46194 11.2657 1.10955C11.6186 0.757161 12.0374 0.477783 12.4983 0.287397C12.9592 0.0970109 13.4532 -0.000648623 13.9518 3.2505e-06H496.201C496.699 -0.000649597 497.193 0.0970449 497.654 0.287491C498.114 0.477938 498.533 0.757394 498.885 1.10985C499.238 1.46231 499.517 1.88084 499.708 2.34147C499.898 2.8021 499.996 3.29578 499.995 3.79423V3.79423Z" fill="#65617D"/>
<path opacity="0.8" d="M17.7163 11.5464C19.5023 11.5464 20.9501 10.0986 20.9501 8.31263C20.9501 6.52667 19.5023 5.07886 17.7163 5.07886C15.9304 5.07886 14.4825 6.52667 14.4825 8.31263C14.4825 10.0986 15.9304 11.5464 17.7163 11.5464Z" fill="#FA5959"/>
<path opacity="0.8" d="M26.4306 11.5464C28.2166 11.5464 29.6644 10.0986 29.6644 8.31263C29.6644 6.52667 28.2166 5.07886 26.4306 5.07886C24.6446 5.07886 23.1968 6.52667 23.1968 8.31263C23.1968 10.0986 24.6446 11.5464 26.4306 11.5464Z" fill="#FED253"/>
<path opacity="0.8" d="M35.15 11.5464C36.9359 11.5464 38.3837 10.0986 38.3837 8.31263C38.3837 6.52667 36.9359 5.07886 35.15 5.07886C33.364 5.07886 31.9162 6.52667 31.9162 8.31263C31.9162 10.0986 33.364 11.5464 35.15 11.5464Z" fill="#8CCF4D"/>
<path opacity="0.2" d="M266.429 33.8853H35.7104C33.6149 33.8853 31.9162 35.584 31.9162 37.6795V140.749C31.9162 142.844 33.6149 144.543 35.7104 144.543H266.429C268.525 144.543 270.224 142.844 270.224 140.749V37.6795C270.224 35.584 268.525 33.8853 266.429 33.8853Z" fill="#20385B"/>
<path d="M269.286 178.284H32.8536C32.3359 178.284 31.9162 178.704 31.9162 179.222V184.94C31.9162 185.458 32.3359 185.878 32.8536 185.878H269.286C269.804 185.878 270.224 185.458 270.224 184.94V179.222C270.224 178.704 269.804 178.284 269.286 178.284Z" fill="white"/>
<path d="M269.286 194.314H32.8536C32.3359 194.314 31.9162 194.734 31.9162 195.252V200.97C31.9162 201.488 32.3359 201.908 32.8536 201.908H269.286C269.804 201.908 270.224 201.488 270.224 200.97V195.252C270.224 194.734 269.804 194.314 269.286 194.314Z" fill="white"/>
<path d="M269.286 210.339H32.8536C32.3359 210.339 31.9162 210.759 31.9162 211.277V216.995C31.9162 217.513 32.3359 217.933 32.8536 217.933H269.286C269.804 217.933 270.224 217.513 270.224 216.995V211.277C270.224 210.759 269.804 210.339 269.286 210.339Z" fill="white"/>
<path d="M269.286 226.369H32.8536C32.3359 226.369 31.9162 226.789 31.9162 227.307V233.025C31.9162 233.543 32.3359 233.963 32.8536 233.963H269.286C269.804 233.963 270.224 233.543 270.224 233.025V227.307C270.224 226.789 269.804 226.369 269.286 226.369Z" fill="white"/>
<path d="M269.286 242.394H32.8536C32.3359 242.394 31.9162 242.814 31.9162 243.331V249.05C31.9162 249.568 32.3359 249.987 32.8536 249.987H269.286C269.804 249.987 270.224 249.568 270.224 249.05V243.331C270.224 242.814 269.804 242.394 269.286 242.394Z" fill="white"/>
<path d="M468.734 33.8853H301.708C299.613 33.8853 297.914 35.584 297.914 37.6795V246.193C297.914 248.289 299.613 249.988 301.708 249.988H468.734C470.829 249.988 472.528 248.289 472.528 246.193V37.6795C472.528 35.584 470.829 33.8853 468.734 33.8853Z" fill="white"/>
<path opacity="0.2" d="M338.172 58.7832H308.553C308.035 58.7832 307.615 59.2029 307.615 59.7206V65.4392C307.615 65.9569 308.035 66.3766 308.553 66.3766H338.172C338.69 66.3766 339.11 65.9569 339.11 65.4392V59.7206C339.11 59.2029 338.69 58.7832 338.172 58.7832Z" fill="#20385B"/>
<path d="M463.298 73.1221H308.553C308.035 73.1221 307.615 73.5418 307.615 74.0595V79.7781C307.615 80.2958 308.035 80.7155 308.553 80.7155H463.298C463.815 80.7155 464.235 80.2958 464.235 79.7781V74.0595C464.235 73.5418 463.815 73.1221 463.298 73.1221Z" fill="#E8EAF2"/>
<path d="M463.298 87.4656H308.553C308.035 87.4656 307.615 87.8853 307.615 88.403V94.1216C307.615 94.6393 308.035 95.059 308.553 95.059H463.298C463.815 95.059 464.235 94.6393 464.235 94.1216V88.403C464.235 87.8853 463.815 87.4656 463.298 87.4656Z" fill="#E8EAF2"/>
<path opacity="0.2" d="M338.172 116.143H308.553C308.035 116.143 307.615 116.563 307.615 117.08V122.799C307.615 123.317 308.035 123.736 308.553 123.736H338.172C338.69 123.736 339.11 123.317 339.11 122.799V117.08C339.11 116.563 338.69 116.143 338.172 116.143Z" fill="#20385B"/>
<path d="M463.298 130.487H308.553C308.035 130.487 307.615 130.907 307.615 131.424V137.143C307.615 137.661 308.035 138.08 308.553 138.08H463.298C463.815 138.08 464.235 137.661 464.235 137.143V131.424C464.235 130.907 463.815 130.487 463.298 130.487Z" fill="#E8EAF2"/>
<path d="M463.298 144.825H308.553C308.035 144.825 307.615 145.245 307.615 145.763V151.481C307.615 151.999 308.035 152.419 308.553 152.419H463.298C463.815 152.419 464.235 151.999 464.235 151.481V145.763C464.235 145.245 463.815 144.825 463.298 144.825Z" fill="#E8EAF2"/>
<path opacity="0.2" d="M338.172 173.508H308.553C308.035 173.508 307.615 173.928 307.615 174.445V180.164C307.615 180.682 308.035 181.101 308.553 181.101H338.172C338.69 181.101 339.11 180.682 339.11 180.164V174.445C339.11 173.928 338.69 173.508 338.172 173.508Z" fill="#20385B"/>
<path d="M463.298 187.847H308.553C308.035 187.847 307.615 188.266 307.615 188.784V194.503C307.615 195.02 308.035 195.44 308.553 195.44H463.298C463.815 195.44 464.235 195.02 464.235 194.503V188.784C464.235 188.266 463.815 187.847 463.298 187.847Z" fill="#E8EAF2"/>
<path d="M463.298 202.185H308.553C308.035 202.185 307.615 202.605 307.615 203.123V208.841C307.615 209.359 308.035 209.779 308.553 209.779H463.298C463.815 209.779 464.235 209.359 464.235 208.841V203.123C464.235 202.605 463.815 202.185 463.298 202.185Z" fill="#E8EAF2"/>
<path d="M461.051 230.868H431.431C430.913 230.868 430.494 231.287 430.494 231.805V237.524C430.494 238.041 430.913 238.461 431.431 238.461H461.051C461.569 238.461 461.988 238.041 461.988 237.524V231.805C461.988 231.287 461.569 230.868 461.051 230.868Z" fill="#20385B"/>
<path d="M269.286 152.419H239.666C239.149 152.419 238.729 152.839 238.729 153.356V159.075C238.729 159.593 239.149 160.012 239.666 160.012H269.286C269.804 160.012 270.224 159.593 270.224 159.075V153.356C270.224 152.839 269.804 152.419 269.286 152.419Z" fill="#20385B"/>
<path d="M250.741 166.48C251.209 167.12 251.769 167.687 252.403 168.161C252.82 168.504 253.241 168.851 253.683 169.153L254.069 169.411C254.054 169.433 254.041 169.456 254.03 169.481C253.925 169.669 253.885 169.887 253.916 170.101C254.011 170.359 254.184 170.581 254.412 170.735C255.444 171.694 256.14 172.961 256.396 174.346C256.549 175.15 256.009 176.008 256.043 176.826C256.122 177.626 256.335 178.408 256.673 179.137C257.348 180.858 258.067 182.639 259.421 183.894C259.74 186.657 260.805 189.282 262.501 191.487C263.925 193.312 265.824 194.686 267.694 196.04C268.287 196.515 268.933 196.919 269.618 197.245C270.235 197.47 270.871 197.636 271.518 197.741C277.01 198.855 282.587 199.496 288.188 199.656C288.346 202.989 288.414 206.325 288.391 209.665C288.421 210.213 288.344 210.763 288.163 211.282C287.885 211.769 287.552 212.224 287.171 212.636C285.886 214.342 285.822 216.648 285.931 218.781C286.056 221.277 286.346 223.762 286.799 226.221C287.379 229.365 286.849 232.842 287.965 235.833C288.406 237.013 288.847 238.198 289.284 239.379C289.432 239.71 289.521 240.064 289.547 240.425C289.547 241.204 289.051 241.864 288.654 242.538C288.103 243.519 287.836 244.633 287.88 245.757C287.875 245.884 287.908 246.01 287.975 246.119C288.118 246.313 288.411 246.298 288.654 246.258C289.641 246.117 290.634 246.026 291.63 245.985C291.448 246.208 291.282 246.443 291.134 246.689C290.896 247.107 290.685 247.539 290.504 247.984C290.148 248.726 289.867 249.502 289.666 250.3C289.63 250.416 289.602 250.533 289.581 250.652C289.527 250.89 289.477 251.148 289.438 251.372C289.225 252.78 289.139 254.204 289.18 255.627C289.041 258.28 288.907 261.048 288.649 261.861C288.287 263.007 288.738 264.837 289.185 266.588C289.208 267.795 289.426 268.991 289.829 270.129C289.865 271.384 290.009 272.634 290.261 273.864C291.792 282.497 293.425 291.116 295.161 299.719C295.315 300.463 295.464 301.207 295.657 301.941C296.302 304.333 297.432 306.566 298.975 308.503C300.332 310.22 301.497 312.082 302.447 314.053C302.348 314.519 302.244 314.991 302.13 315.457C301.138 319.573 299.868 323.631 299.417 327.856C299.238 329.533 299.189 331.259 298.524 332.816C298.187 333.605 297.691 334.354 297.621 335.212C297.581 335.754 297.71 336.296 297.988 336.764L297.661 337.032L297.477 337.181C296.218 338.173 294.531 338.386 292.979 338.793C291.426 339.199 289.76 340.013 289.279 341.555C289.247 341.651 289.222 341.749 289.205 341.848C288.922 343.266 289.78 344.774 290.99 345.607C292.28 346.495 293.887 346.768 295.454 346.971C297.021 347.175 298.608 347.318 300.012 348.018C301.227 348.618 302.249 349.605 303.533 350.041L303.766 350.106C303.474 350.279 303.186 350.448 302.884 350.602C301.553 351.29 300.116 351.748 298.633 351.956C297.145 352.159 295.35 352.258 294.581 353.563C293.951 354.639 294.407 356.097 295.315 356.95C296.223 357.803 297.482 358.18 298.698 358.438C301.48 358.984 304.298 359.333 307.129 359.485L309.877 359.698C312.56 359.901 315.248 360.11 317.946 360.12C321.272 360.13 324.592 359.841 327.866 359.257C327.995 359.268 328.126 359.249 328.247 359.202C328.368 359.154 328.476 359.08 328.564 358.984C328.652 358.888 328.716 358.773 328.753 358.649C328.789 358.524 328.796 358.393 328.774 358.265C328.715 354.895 328.306 351.541 327.553 348.256C327.325 347.264 325.981 348.618 325.232 349.466C325.128 348.97 325.019 348.474 324.89 348.013L325.48 347.735C325.931 347.563 326.312 347.245 326.562 346.832C326.681 346.499 326.721 346.142 326.676 345.791C326.566 343.628 326.433 341.387 325.406 339.487C324.736 338.351 323.9 337.321 322.926 336.432C322.692 329.63 321.862 322.862 320.446 316.206C319.687 312.818 318.745 309.391 316.786 306.524C316.538 306.167 316.29 305.81 316.007 305.448C315.795 302.19 315.401 298.946 314.827 295.732C314.712 295.308 314.712 294.861 314.827 294.437C315.014 294.073 315.255 293.739 315.541 293.445C316.721 291.923 316.24 289.76 316.101 287.836C315.908 285.078 316.558 282.335 317.207 279.642L319.603 269.678C319.799 268.733 320.081 267.809 320.446 266.915C321.076 265.705 321.797 264.545 322.604 263.444C324.841 259.918 325.894 255.77 325.609 251.605C326.066 251.768 326.517 251.932 326.963 252.101C327.301 249.318 326.125 246.149 326.963 243.545C328.406 242.494 329.571 241.106 330.356 239.503C331.015 238.015 331.199 236.378 331.888 234.92C332.275 234.097 332.821 233.343 333.049 232.44C333.386 231.121 332.96 229.732 332.979 228.368C333.024 225.392 335.172 222.649 334.71 219.723C334.487 218.334 333.679 217.04 333.718 215.631C333.785 214.868 333.978 214.12 334.289 213.419C335.926 209.099 337.528 204.492 336.694 199.954C336.481 198.788 336.104 197.632 336.169 196.452C336.238 195.098 336.878 193.784 336.665 192.439C336.584 191.929 336.378 191.447 336.064 191.036C336.649 190.138 337.147 189.186 337.552 188.194C337.821 187.625 337.955 187.002 337.944 186.374C337.887 185.946 337.744 185.534 337.524 185.162C337.305 184.791 337.012 184.467 336.665 184.211C335.965 183.711 335.217 183.28 334.433 182.927C334.187 182.817 333.966 182.658 333.783 182.46C333.643 182.237 333.52 182.003 333.416 181.761C332.979 181.002 332.027 180.769 331.283 180.308C328.58 178.656 328.838 174.406 326.532 172.233C325.747 171.53 324.745 171.116 323.692 171.06C322.639 171.004 321.599 171.309 320.744 171.926C320.526 172.148 320.239 172.29 319.93 172.328C319.632 172.267 319.358 172.121 319.142 171.906C318.568 171.519 317.884 171.33 317.193 171.365C316.768 169.674 316.585 167.93 316.647 166.187H316.855C317.128 166.196 317.4 166.164 317.664 166.093C318.849 165.751 319.524 164.521 320.01 163.38C320.429 162.415 320.777 161.42 321.051 160.404C321.076 160.305 321.096 160.211 321.121 160.112C323.392 161.709 326.031 163.38 326.666 163.028C327.826 162.388 321.458 157.855 321.458 157.855C322.207 157.19 322.623 155.99 322.812 154.929C323.262 152.82 323.279 150.641 322.862 148.526C322.366 146.438 321.111 144.449 319.206 143.472C318.363 143.035 317.341 142.738 316.726 142.068C316.633 141.969 316.551 141.859 316.483 141.741V141.741C316.449 141.684 316.417 141.626 316.389 141.567C316.324 141.382 316.234 141.207 316.121 141.046C315.774 140.64 315.129 140.764 314.633 140.828H314.46H314.321H314.177C312.287 140.868 310.457 139.811 308.548 139.811C306.455 139.811 304.669 141.026 302.829 141.86C302.457 142.028 302.105 142.182 301.773 142.356C300.617 142.896 299.709 143.467 299.129 144.766C298.762 145.197 298.499 145.706 298.36 146.254C298.303 146.505 298.27 146.761 298.261 147.018C296.673 148.591 295.528 150.555 294.944 152.713C294.36 154.871 294.358 157.145 294.936 159.304C295.515 161.463 296.655 163.431 298.239 165.007C299.824 166.584 301.798 167.713 303.96 168.28C304.004 168.404 304.054 168.528 304.094 168.657C304.472 169.797 304.658 170.993 304.644 172.194C304.644 172.278 304.644 172.362 304.644 172.452C303.682 172.679 302.76 173.054 301.911 173.563C300.829 174.202 300.01 175.206 299.6 176.395C299.575 176.489 299.551 176.578 299.531 176.662C298.858 176.441 298.156 176.321 297.448 176.305C297.128 176.26 296.803 176.284 296.494 176.377C296.185 176.469 295.899 176.628 295.657 176.841C295.494 177.043 295.379 177.278 295.32 177.53C295.077 177.754 295.032 178.145 294.859 178.443C294.328 179.375 292.944 179.068 291.883 179.326C290.752 179.604 289.859 180.665 288.699 180.67C288.256 180.602 287.806 180.585 287.359 180.62C286.923 180.729 286.581 181.33 286.913 181.612C286.652 181.585 286.389 181.631 286.152 181.745C285.916 181.859 285.716 182.036 285.574 182.257C285.252 182.674 285.043 183.17 284.686 183.561C284.533 183.348 284.322 183.183 284.077 183.088C283.832 182.993 283.564 182.971 283.307 183.026C282.794 183.139 282.302 183.333 281.849 183.601C281.647 183.709 281.43 183.784 281.204 183.824C280.941 183.841 280.677 183.818 280.421 183.755C279.175 183.547 277.896 183.72 276.751 184.251C275.759 184.747 274.767 183.849 273.656 183.78C273.249 183.802 272.847 183.677 272.525 183.428C272.316 183.167 272.17 182.861 272.098 182.535C271.848 181.819 271.419 181.179 270.851 180.676C270.283 180.173 269.596 179.824 268.855 179.663C269.144 178.75 269.076 177.762 268.664 176.897C268.253 176.033 267.528 175.357 266.638 175.006C266.71 174.352 266.621 173.69 266.379 173.078C266.137 172.466 265.749 171.922 265.249 171.494C265.004 171.331 264.771 171.148 264.554 170.949C264.26 170.601 264.04 170.195 263.91 169.758C263.579 168.892 263.248 168.024 262.918 167.155C262.486 167.065 262.144 166.887 261.732 166.817C261.732 166.728 261.732 166.639 261.732 166.549C261.719 165.659 261.569 164.775 261.286 163.931C260.78 162.56 260.071 161.272 259.183 160.112C258.246 158.797 257.199 157.508 255.805 156.714C255.339 156.465 254.859 156.243 254.367 156.05L251.833 155.003C251.688 154.935 251.531 154.894 251.371 154.884C250.687 154.884 250.563 155.936 250.95 156.501C251.724 157.637 253.459 157.954 253.95 159.244C253.538 159.258 253.141 159.403 252.816 159.656C252.49 159.91 252.254 160.261 252.14 160.657C252.121 160.867 252.036 161.065 251.897 161.223C251.674 161.406 251.322 161.302 251.069 161.441C250.617 161.679 250.816 162.353 250.766 162.864C250.657 163.307 250.503 163.738 250.305 164.149C250.198 164.545 250.182 164.961 250.258 165.364C250.333 165.768 250.499 166.149 250.741 166.48V166.48ZM311.499 344.174L311.439 343.39C311.494 343.529 311.543 343.673 311.598 343.812C312.044 344.982 312.54 346.14 313.086 347.284L312.992 347.239C312.608 347.063 312.2 346.946 311.781 346.892C311.672 346.892 311.558 346.867 311.444 346.862C311.591 345.973 311.609 345.068 311.499 344.174V344.174Z" fill="url(#paint0_linear)"/>
<path d="M304.629 173.205C304.58 175.055 303.955 176.851 303.856 178.696C309.312 178.969 314.683 176.325 320.074 177.134C318.586 176.142 317.763 174.401 317.287 172.67C316.682 170.437 316.502 168.11 316.756 165.81C316.77 165.682 316.791 165.554 316.821 165.428C317.024 164.526 317.54 163.246 317.401 162.532C317.217 161.59 316.33 161.778 315.531 161.833C313.092 162.016 310.665 162.329 308.26 162.77C307.63 162.879 301.525 164.402 301.435 164.258C302.506 165.979 303.392 167.807 304.079 169.714C304.454 170.839 304.64 172.019 304.629 173.205Z" fill="#EE8E9E"/>
<path d="M250.741 167.487C251.207 168.128 251.767 168.695 252.403 169.168C252.82 169.505 253.241 169.853 253.683 170.16C254.475 170.769 255.418 171.151 256.41 171.266C257.705 171.355 260.463 170.592 261.271 169.481C261.609 168.921 261.77 168.273 261.732 167.621C261.719 166.735 261.569 165.856 261.286 165.017C260.78 163.65 260.071 162.368 259.183 161.213C258.246 159.908 257.199 158.624 255.805 157.835C255.34 157.585 254.86 157.365 254.367 157.175L251.833 156.124C251.688 156.055 251.531 156.015 251.371 156.005C250.687 156.005 250.563 157.051 250.95 157.612C251.723 158.743 253.459 159.06 253.95 160.345C253.539 160.355 253.141 160.497 252.815 160.75C252.49 161.002 252.253 161.352 252.14 161.748C252.121 161.958 252.036 162.156 251.897 162.314C251.674 162.492 251.322 162.393 251.069 162.527C250.617 162.765 250.816 163.44 250.766 163.945C250.656 164.386 250.501 164.815 250.305 165.225C250.206 165.611 250.194 166.014 250.269 166.405C250.345 166.796 250.506 167.166 250.741 167.487V167.487Z" fill="#EE8E9E"/>
<path d="M325.882 353.027C325.461 352.611 324.776 352.68 324.191 352.774C321.037 353.265 317.85 353.516 314.658 353.523C314.261 351.579 315.417 349.684 315.789 347.735C315.84 347.223 315.967 346.722 316.166 346.247C316.617 345.384 317.654 344.992 318.576 344.794C320.287 344.432 322.966 343.802 323.923 345.523C325.069 347.621 325.436 350.691 325.882 353.027Z" fill="#65617D"/>
<path d="M291.03 345.652C292.319 346.535 293.926 346.808 295.494 347.011C297.061 347.214 298.648 347.358 300.052 348.048C301.267 348.648 302.288 349.63 303.573 350.061C304.768 350.391 306.028 350.411 307.233 350.121C308.677 349.848 310.209 349.322 310.993 348.077C311.687 346.966 311.613 345.563 311.519 344.258C311.405 342.77 311.3 341.282 311.191 339.829C311.194 339.454 311.098 339.085 310.914 338.758C309.872 337.235 307.333 339.393 305.954 339.393C303.801 339.393 301.49 338.222 299.938 336.794C299.801 336.653 299.644 336.535 299.471 336.442C298.856 336.169 298.246 336.675 297.701 337.121L297.517 337.27C296.257 338.262 294.571 338.47 293.019 338.872C291.466 339.274 289.8 340.087 289.319 341.62C289.287 341.717 289.262 341.816 289.244 341.917C288.962 343.326 289.82 344.829 291.03 345.652Z" fill="#3F3D56"/>
<path opacity="0.05" d="M291.03 345.652C292.319 346.535 293.926 346.808 295.494 347.011C297.061 347.214 298.648 347.358 300.052 348.048C301.267 348.648 302.288 349.63 303.573 350.061C304.768 350.391 306.028 350.411 307.233 350.121C308.677 349.848 310.209 349.322 310.993 348.077C311.687 346.966 311.613 345.563 311.519 344.258C311.405 342.77 311.3 341.282 311.191 339.829C311.194 339.454 311.098 339.085 310.914 338.758C309.872 337.235 307.333 339.393 305.954 339.393C303.801 339.393 301.49 338.222 299.938 336.794C299.801 336.653 299.644 336.535 299.471 336.442C298.856 336.169 298.246 336.675 297.701 337.121L297.517 337.27C296.257 338.262 294.571 338.47 293.019 338.872C291.466 339.274 289.8 340.087 289.319 341.62C289.287 341.717 289.262 341.816 289.244 341.917C288.962 343.326 289.82 344.829 291.03 345.652Z" fill="black"/>
<path d="M291.03 346.148C292.319 347.031 293.926 347.304 295.494 347.507C297.061 347.71 298.648 347.854 300.052 348.544C301.267 349.144 302.288 350.126 303.573 350.557C304.768 350.887 306.028 350.907 307.233 350.617C308.769 350.29 310.117 349.38 310.993 348.077C311.687 346.966 311.613 345.563 311.519 344.258C311.405 342.77 311.3 341.282 311.191 339.829C311.194 339.454 311.098 339.085 310.914 338.758C309.872 337.235 307.333 339.393 305.954 339.393C303.801 339.393 301.49 338.222 299.938 336.794C299.801 336.653 299.644 336.535 299.471 336.442C298.856 336.169 298.246 336.675 297.701 337.121C298.053 338.225 298.554 339.276 299.189 340.246C299.708 341.063 300.404 341.754 301.224 342.268C302.044 342.783 302.968 343.109 303.93 343.222C304.892 343.291 305.879 343.103 306.812 343.351C307.744 343.599 308.607 344.551 308.3 345.454C307.992 346.356 306.837 346.53 305.899 346.58C304.59 346.73 303.265 346.635 301.991 346.302C301.227 346.049 300.503 345.627 299.789 345.31C296.629 344.005 292.647 344.734 290.043 342.527C289.795 342.3 289.528 342.096 289.244 341.917C288.56 343.346 289.82 345.325 291.03 346.148Z" fill="#E8EAF2"/>
<path opacity="0.05" d="M291.03 346.148C292.319 347.031 293.926 347.304 295.494 347.507C297.061 347.71 298.648 347.854 300.052 348.544C301.267 349.144 302.288 350.126 303.573 350.557C304.768 350.887 306.028 350.907 307.233 350.617C308.769 350.29 310.117 349.38 310.993 348.077C311.687 346.966 311.613 345.563 311.519 344.258C311.405 342.77 311.3 341.282 311.191 339.829C311.194 339.454 311.098 339.085 310.914 338.758C309.872 337.235 307.333 339.393 305.954 339.393C303.801 339.393 301.49 338.222 299.938 336.794C299.801 336.653 299.644 336.535 299.471 336.442C298.856 336.169 298.246 336.675 297.701 337.121C298.053 338.225 298.554 339.276 299.189 340.246C299.708 341.063 300.404 341.754 301.224 342.268C302.044 342.783 302.968 343.109 303.93 343.222C304.892 343.291 305.879 343.103 306.812 343.351C307.744 343.599 308.607 344.551 308.3 345.454C307.992 346.356 306.837 346.53 305.899 346.58C304.59 346.73 303.265 346.635 301.991 346.302C301.227 346.049 300.503 345.627 299.789 345.31C296.629 344.005 292.647 344.734 290.043 342.527C289.795 342.3 289.528 342.096 289.244 341.917C288.56 343.346 289.82 345.325 291.03 346.148Z" fill="black"/>
<path d="M325.267 249.606C326.272 254.542 325.317 259.675 322.604 263.92C321.797 265.02 321.075 266.181 320.446 267.391C320.081 268.279 319.799 269.199 319.603 270.139L317.207 280.059C316.558 282.737 315.908 285.465 316.101 288.208C316.24 290.122 316.721 292.275 315.541 293.787C315.256 294.082 315.015 294.416 314.827 294.779C314.713 295.202 314.713 295.647 314.827 296.069C316.037 303.265 316.935 310.789 314.747 317.753C312.763 324.067 312.649 331.06 310.963 337.453C310.826 338.266 310.463 339.024 309.917 339.64C309.464 340.018 308.923 340.274 308.344 340.384C305.864 340.98 303.236 340.285 300.905 339.209C299.278 338.455 297.522 337.131 297.661 335.34C297.73 334.492 298.226 333.743 298.564 332.96C299.228 331.422 299.278 329.701 299.456 328.035C299.908 323.854 301.197 319.811 302.169 315.72C303.142 311.628 303.806 307.352 302.983 303.226C301.299 294.691 298.6 286.389 294.943 278.496C294.785 278.077 294.534 277.699 294.209 277.39C293.835 277.173 293.48 276.924 293.148 276.646C292.887 276.258 292.717 275.815 292.652 275.352C292.29 274.047 291.213 273.085 290.489 271.935C288.664 269.038 289.244 265.328 289.314 261.906C289.378 258.583 288.897 255.225 289.443 251.942C289.988 248.658 291.868 245.301 295.032 244.274C296.6 243.778 298.296 243.882 299.937 244.041C308.667 244.904 317.108 246.481 325.267 249.606Z" fill="#303D5C"/>
<path opacity="0.05" d="M325.267 249.606C326.272 254.542 325.317 259.675 322.604 263.92C321.797 265.02 321.075 266.181 320.446 267.391C320.081 268.279 319.799 269.199 319.603 270.139L317.207 280.059C316.558 282.737 315.908 285.465 316.101 288.208C316.24 290.122 316.721 292.275 315.541 293.787C315.256 294.082 315.015 294.416 314.827 294.779C314.713 295.202 314.713 295.647 314.827 296.069C316.037 303.265 316.935 310.789 314.747 317.753C312.763 324.067 312.649 331.06 310.963 337.453C310.826 338.266 310.463 339.024 309.917 339.64C309.464 340.018 308.923 340.274 308.344 340.384C305.864 340.98 303.236 340.285 300.905 339.209C299.278 338.455 297.522 337.131 297.661 335.34C297.73 334.492 298.226 333.743 298.564 332.96C299.228 331.422 299.278 329.701 299.456 328.035C299.908 323.854 301.197 319.811 302.169 315.72C303.142 311.628 303.806 307.352 302.983 303.226C301.299 294.691 298.6 286.389 294.943 278.496C294.785 278.077 294.534 277.699 294.209 277.39C293.835 277.173 293.48 276.924 293.148 276.646C292.887 276.258 292.717 275.815 292.652 275.352C292.29 274.047 291.213 273.085 290.489 271.935C288.664 269.038 289.244 265.328 289.314 261.906C289.378 258.583 288.897 255.225 289.443 251.942C289.988 248.658 291.868 245.301 295.032 244.274C296.6 243.778 298.296 243.882 299.937 244.041C308.667 244.904 317.108 246.481 325.267 249.606Z" fill="black"/>
<path d="M289.869 270.467C289.898 271.76 290.044 273.048 290.306 274.315C291.837 282.912 293.47 291.484 295.206 300.032C295.36 300.776 295.508 301.52 295.702 302.244C296.346 304.625 297.476 306.847 299.02 308.771C306.241 317.773 306.866 330.842 310.78 341.699C311.047 342.433 311.31 343.187 311.593 343.896C312.3 345.735 313.107 347.535 314.008 349.287C314.114 349.542 314.285 349.765 314.504 349.932C314.749 350.051 315.022 350.103 315.293 350.081C318.818 350.102 322.3 349.311 325.47 347.77C325.921 347.599 326.302 347.283 326.552 346.872C326.672 346.54 326.711 346.185 326.666 345.835C326.557 343.683 326.423 341.456 325.396 339.561C324.725 338.432 323.889 337.409 322.916 336.526C322.683 329.76 321.853 323.029 320.436 316.409C319.677 313.036 318.735 309.629 316.776 306.777C315.333 304.674 313.259 302.596 313.512 300.057C313.626 298.941 314.093 297.552 313.185 296.897C312.788 296.609 312.193 296.575 311.935 296.163C311.826 295.971 311.766 295.754 311.762 295.533C311.574 293.792 311.681 292.031 312.079 290.325C312.411 289.211 312.671 288.076 312.858 286.928C312.946 286.352 312.916 285.764 312.77 285.201C312.623 284.637 312.363 284.109 312.005 283.65C311.955 281.328 312.005 278.923 311.975 276.607C311.882 275.289 311.991 273.964 312.297 272.679C312.476 272.073 312.744 271.493 312.878 270.873C313.374 268.646 312.153 265.978 313.592 264.212C314.192 263.483 315.119 263.116 315.903 262.585C317.444 261.464 318.562 259.857 319.077 258.022C319.586 256.201 319.887 254.327 319.975 252.438C320.017 252.037 320.017 251.633 319.975 251.233C319.947 251.026 319.892 250.824 319.811 250.632C319.365 249.64 318.16 249.234 317.088 248.976C310.282 247.345 303.306 246.529 296.307 246.546C293.718 244.785 292.26 245.415 291.164 247.285C290.557 248.423 290.067 249.619 289.701 250.856C289.205 252.373 289.17 260.85 288.679 262.372C288.059 264.351 289.894 268.393 289.869 270.467Z" fill="#303D5C"/>
<path d="M336.684 193.322C336.873 194.656 336.233 195.966 336.188 197.29C336.124 198.47 336.501 199.616 336.714 200.762C337.547 205.28 335.945 209.858 334.309 214.153C333.998 214.851 333.806 215.595 333.738 216.355C333.694 217.759 334.502 219.044 334.73 220.427C335.192 223.339 333.044 226.077 332.999 229.023C332.999 230.382 333.406 231.76 333.069 233.075C332.759 233.926 332.371 234.746 331.908 235.525C331.219 236.973 331.035 238.62 330.376 240.083C329.19 242.731 326.641 244.457 324.211 246.035C322.832 245.573 321.339 245.043 320.58 243.788C320.246 243.172 320.031 242.499 319.945 241.804C319.42 238.788 319.449 235.708 319.449 232.648C319.404 230.016 319.544 227.385 319.866 224.772C320.362 221.444 321.438 218.24 322.212 214.972C323.204 210.845 323.7 206.585 325.188 202.627C326.522 199.155 328.605 196.03 330.792 193.044C331.63 191.904 332.28 190.272 333.912 190.535C334.606 190.655 335.245 190.988 335.742 191.488C336.238 191.987 336.568 192.628 336.684 193.322V193.322Z" fill="#3F3D56"/>
<path opacity="0.05" d="M336.684 193.322C336.873 194.656 336.233 195.966 336.188 197.29C336.124 198.47 336.501 199.616 336.714 200.762C337.547 205.28 335.945 209.858 334.309 214.153C333.998 214.851 333.806 215.595 333.738 216.355C333.694 217.759 334.502 219.044 334.73 220.427C335.192 223.339 333.044 226.077 332.999 229.023C332.999 230.382 333.406 231.76 333.069 233.075C332.759 233.926 332.371 234.746 331.908 235.525C331.219 236.973 331.035 238.62 330.376 240.083C329.19 242.731 326.641 244.457 324.211 246.035C322.832 245.573 321.339 245.043 320.58 243.788C320.246 243.172 320.031 242.499 319.945 241.804C319.42 238.788 319.449 235.708 319.449 232.648C319.404 230.016 319.544 227.385 319.866 224.772C320.362 221.444 321.438 218.24 322.212 214.972C323.204 210.845 323.7 206.585 325.188 202.627C326.522 199.155 328.605 196.03 330.792 193.044C331.63 191.904 332.28 190.272 333.912 190.535C334.606 190.655 335.245 190.988 335.742 191.488C336.238 191.987 336.568 192.628 336.684 193.322V193.322Z" fill="black"/>
<path opacity="0.1" d="M301.435 164.238C302.506 165.959 303.392 167.788 304.079 169.694C305.061 169.936 306.068 170.057 307.08 170.056C311.008 170.056 313.79 167.824 316.096 165.002C316.295 164.094 317.54 163.251 317.401 162.522C317.217 161.58 316.33 161.768 315.531 161.823C313.092 162.006 310.665 162.319 308.26 162.76C307.63 162.874 301.525 164.397 301.435 164.238Z" fill="black"/>
<path d="M307.08 169.709C314.029 169.709 319.663 164.075 319.663 157.126C319.663 150.176 314.029 144.543 307.08 144.543C300.13 144.543 294.497 150.176 294.497 157.126C294.497 164.075 300.13 169.709 307.08 169.709Z" fill="#EE8E9E"/>
<path opacity="0.1" d="M291.164 247.285C293.341 247.156 295.533 247.24 297.72 247.329C299.088 247.344 300.451 247.483 301.792 247.746C303.444 248.123 304.992 248.877 306.618 249.348C309.232 250.107 311.985 250.141 314.688 250.404C316.465 250.579 318.23 250.855 319.975 251.233C319.947 251.026 319.892 250.824 319.811 250.632C319.365 249.64 318.16 249.234 317.088 248.976C310.282 247.345 303.306 246.529 296.307 246.546C293.733 244.785 292.275 245.4 291.164 247.285Z" fill="black"/>
<path d="M299.754 177.724C300.305 178.358 301.039 179.058 301.852 178.854C302.146 178.751 302.422 178.602 302.67 178.413C304.119 177.481 305.899 177.262 307.605 177.004C311.046 176.484 314.445 175.72 317.778 174.718C318.744 174.366 319.757 174.161 320.783 174.108C322.916 174.108 324.806 175.536 326.145 177.198C327.484 178.859 328.426 180.804 329.741 182.485C330.673 183.685 331.784 184.742 332.657 185.987C334.864 189.126 335.335 193.223 334.765 197.017C334.195 200.811 332.682 204.387 331.179 207.929C330.378 209.98 329.399 211.956 328.253 213.836C328.749 216.717 328.491 220.016 327.122 222.6C326.676 223.443 326.13 224.261 325.981 225.204C325.913 225.84 325.94 226.484 326.061 227.113L326.7 231.671C326.894 233.06 327.087 234.449 327.34 235.822C327.802 238.347 328.431 241.085 327.261 243.366C325.862 246.099 327.335 249.601 326.963 252.651C323.027 251.129 318.903 250.15 314.703 249.74C312 249.472 309.247 249.437 306.633 248.678C305.006 248.182 303.459 247.453 301.807 247.076C300.466 246.813 299.103 246.674 297.735 246.659C294.72 246.54 291.684 246.416 288.699 246.863C288.456 246.898 288.163 246.917 288.019 246.724C287.954 246.617 287.921 246.493 287.925 246.367C287.88 245.248 288.148 244.138 288.699 243.163C289.081 242.493 289.606 241.834 289.591 241.06C289.565 240.7 289.476 240.348 289.329 240.018L288.009 236.472C286.893 233.496 287.424 230.024 286.844 226.91C286.391 224.465 286.101 221.993 285.976 219.51C285.867 217.387 285.931 215.091 287.216 213.394C287.598 212.987 287.931 212.536 288.208 212.05C288.388 211.535 288.466 210.989 288.436 210.443C288.466 206.198 288.35 201.954 288.089 197.711C289.205 195.728 290.365 193.654 291.486 191.651C292.786 189.315 294.1 186.934 294.626 184.315C294.973 182.579 294.963 180.799 295.211 179.048C295.201 178.771 295.256 178.496 295.373 178.244C295.489 177.993 295.663 177.772 295.88 177.6C296.097 177.428 296.352 177.31 296.623 177.255C296.895 177.199 297.176 177.209 297.443 177.282C298.231 177.312 299.01 177.461 299.754 177.724V177.724Z" fill="#3F3D56"/>
<path opacity="0.1" d="M253.683 170.165C254.475 170.774 255.418 171.156 256.411 171.271C257.705 171.36 260.463 170.597 261.271 169.486C261.609 168.926 261.77 168.278 261.732 167.626C261.558 167.567 261.376 167.532 261.192 167.522C259.784 167.361 258.361 167.418 256.971 167.69C256.273 167.83 255.616 168.126 255.048 168.555C254.48 168.984 254.017 169.536 253.693 170.17C253.693 170.17 253.688 170.16 253.683 170.165Z" fill="black"/>
<path d="M295.553 197.379C294.784 198.331 293.986 199.313 292.9 199.859C291.65 200.509 290.177 200.524 288.768 200.494C282.97 200.37 277.194 199.735 271.508 198.594C270.861 198.487 270.225 198.321 269.608 198.098C268.924 197.772 268.278 197.369 267.684 196.898C265.814 195.554 263.915 194.18 262.491 192.365C260.802 190.177 259.741 187.571 259.421 184.826C258.067 183.576 257.348 181.805 256.673 180.094C256.336 179.368 256.123 178.59 256.043 177.793C256.009 176.98 256.539 176.127 256.396 175.313C256.137 173.934 255.442 172.675 254.412 171.722C254.183 171.571 254.01 171.35 253.916 171.092C253.886 170.88 253.926 170.665 254.03 170.477C254.356 169.845 254.82 169.294 255.387 168.865C255.955 168.436 256.611 168.139 257.308 167.997C258.7 167.728 260.125 167.671 261.534 167.829C262.002 167.917 262.463 168.04 262.913 168.196L263.905 170.785C264.035 171.22 264.255 171.624 264.55 171.97C264.767 172.17 264.999 172.352 265.244 172.516C265.741 172.937 266.127 173.474 266.369 174.079C266.611 174.684 266.702 175.34 266.633 175.988C267.522 176.333 268.247 177.004 268.659 177.865C269.071 178.725 269.139 179.711 268.85 180.62C269.589 180.779 270.276 181.125 270.844 181.625C271.412 182.126 271.842 182.763 272.093 183.477C272.165 183.802 272.311 184.106 272.52 184.365C272.843 184.612 273.244 184.737 273.651 184.717C274.762 184.781 275.734 185.659 276.746 185.183C277.891 184.652 279.17 184.479 280.416 184.687C280.673 184.745 280.936 184.768 281.199 184.757C281.425 184.717 281.642 184.641 281.844 184.533C282.298 184.268 282.79 184.074 283.302 183.958C283.559 183.905 283.826 183.927 284.071 184.022C284.316 184.117 284.528 184.281 284.681 184.494C285.038 184.107 285.247 183.611 285.569 183.194C285.712 182.975 285.912 182.799 286.149 182.686C286.385 182.573 286.648 182.528 286.908 182.554C286.576 182.257 286.908 181.662 287.355 181.562C287.801 181.53 288.25 181.546 288.694 181.612C289.854 181.612 290.747 180.551 291.878 180.273C292.919 180.02 294.303 180.323 294.854 179.395C295.042 179.068 295.082 178.621 295.404 178.403C295.621 178.295 295.868 178.267 296.104 178.324C296.842 178.418 297.56 178.636 298.226 178.968C299.318 183.229 298.722 187.653 297.914 191.978C297.609 193.953 296.796 195.814 295.553 197.379Z" fill="#3F3D56"/>
<path opacity="0.1" d="M295.583 212.665L301.004 223.577C300.419 222.585 299.184 222.173 298.207 221.528C296.968 220.634 296.035 219.381 295.533 217.938C295.041 216.5 294.699 215.016 294.512 213.508C294.402 212.814 294.169 211.842 294.512 211.217C295.131 211.346 295.33 212.14 295.583 212.665Z" fill="black"/>
<path opacity="0.1" d="M311.176 221.93C312.401 223.14 313.894 224.028 315.243 225.099C318.383 227.579 320.625 231.051 322.812 234.409C323.431 235.287 323.95 236.232 324.359 237.226C324.102 237.444 323.72 237.226 323.467 236.993L319.211 233.253C318.689 232.827 318.213 232.347 317.793 231.82C317.054 230.828 316.726 229.583 316.057 228.542C315.325 227.542 314.453 226.654 313.468 225.903C312.476 225.065 308.012 221.27 309.093 219.792C309.887 220.194 310.532 221.29 311.176 221.93Z" fill="black"/>
<path d="M301.882 174.564C303.277 173.792 304.804 173.287 306.385 173.076C307.323 172.863 308.288 172.794 309.247 172.873C310.135 172.982 310.983 173.324 311.876 173.369C313.126 173.439 314.326 172.933 315.536 172.6C316.746 172.268 318.14 172.144 319.157 172.873C319.373 173.088 319.647 173.234 319.945 173.295C320.254 173.257 320.541 173.115 320.759 172.893C321.615 172.28 322.655 171.977 323.707 172.032C324.758 172.088 325.76 172.5 326.547 173.2C328.853 175.363 328.595 179.589 331.298 181.23C332.042 181.682 332.994 181.92 333.431 182.679C333.54 182.93 333.67 183.172 333.818 183.403C333.999 183.601 334.221 183.758 334.468 183.864C335.253 184.216 336.001 184.646 336.699 185.149C337.047 185.401 337.339 185.722 337.559 186.091C337.779 186.46 337.922 186.87 337.979 187.296C337.99 187.922 337.856 188.541 337.587 189.106C336.262 192.351 333.966 195.106 331.014 196.994C328.061 198.882 324.597 199.81 321.096 199.651C320.475 199.681 319.863 199.489 319.37 199.11C319.111 198.818 318.906 198.482 318.765 198.118C317.49 195.455 315.105 193.486 313.587 190.952C312.684 189.439 312.099 187.752 311.166 186.265C309.738 184.008 307.571 182.341 305.448 180.729C304.253 179.817 302.918 178.86 301.416 178.924C300.076 178.979 299.099 179.053 299.59 177.406C299.992 176.217 300.804 175.209 301.882 174.564V174.564Z" fill="#3F3D56"/>
<path opacity="0.05" d="M301.882 174.564C303.277 173.792 304.804 173.287 306.385 173.076C307.323 172.863 308.288 172.794 309.247 172.873C310.135 172.982 310.983 173.324 311.876 173.369C313.126 173.439 314.326 172.933 315.536 172.6C316.746 172.268 318.14 172.144 319.157 172.873C319.373 173.088 319.647 173.234 319.945 173.295C320.254 173.257 320.541 173.115 320.759 172.893C321.615 172.28 322.655 171.977 323.707 172.032C324.758 172.088 325.76 172.5 326.547 173.2C328.853 175.363 328.595 179.589 331.298 181.23C332.042 181.682 332.994 181.92 333.431 182.679C333.54 182.93 333.67 183.172 333.818 183.403C333.999 183.601 334.221 183.758 334.468 183.864C335.253 184.216 336.001 184.646 336.699 185.149C337.047 185.401 337.339 185.722 337.559 186.091C337.779 186.46 337.922 186.87 337.979 187.296C337.99 187.922 337.856 188.541 337.587 189.106C336.262 192.351 333.966 195.106 331.014 196.994C328.061 198.882 324.597 199.81 321.096 199.651C320.475 199.681 319.863 199.489 319.37 199.11C319.111 198.818 318.906 198.482 318.765 198.118C317.49 195.455 315.105 193.486 313.587 190.952C312.684 189.439 312.099 187.752 311.166 186.265C309.738 184.008 307.571 182.341 305.448 180.729C304.253 179.817 302.918 178.86 301.416 178.924C300.076 178.979 299.099 179.053 299.59 177.406C299.992 176.217 300.804 175.209 301.882 174.564V174.564Z" fill="black"/>
<path d="M295.33 356.95C296.242 357.803 297.497 358.175 298.712 358.438C301.495 358.982 304.313 359.33 307.144 359.48L309.892 359.688C312.575 359.891 315.263 360.1 317.961 360.11C321.287 360.122 324.607 359.835 327.881 359.252C328.011 359.265 328.142 359.247 328.264 359.201C328.386 359.154 328.496 359.08 328.584 358.984C328.672 358.887 328.736 358.772 328.772 358.646C328.807 358.52 328.813 358.388 328.788 358.26C328.73 354.908 328.321 351.572 327.568 348.305C327.256 346.961 324.85 349.972 324.741 350.096C324.493 350.447 324.166 350.736 323.786 350.938C323.406 351.141 322.984 351.251 322.554 351.261C319.787 351.41 316.687 349.729 314.485 348.231C314.015 347.881 313.517 347.571 312.997 347.304C312.612 347.131 312.204 347.016 311.786 346.961C310.362 346.827 308.93 347.117 307.67 347.795C306.018 348.613 304.565 349.778 302.928 350.636C301.597 351.321 300.16 351.776 298.678 351.981C297.19 352.189 295.394 352.288 294.626 353.583C293.966 354.654 294.422 356.102 295.33 356.95Z" fill="#3F3D56"/>
<path d="M295.33 357.446C296.242 358.299 297.497 358.671 298.712 358.934C301.495 359.478 304.313 359.826 307.144 359.976L309.892 360.184C312.575 360.387 315.263 360.596 317.961 360.606C321.287 360.618 324.607 360.331 327.881 359.747C328.031 359.742 328.179 359.706 328.315 359.641C328.45 359.577 328.571 359.484 328.669 359.371C328.928 359.027 329.136 358.648 329.284 358.245C329.225 354.897 328.322 351.554 327.568 348.29C327.256 346.946 324.85 349.957 324.741 350.081C324.493 350.432 324.166 350.721 323.786 350.923C323.406 351.126 322.984 351.236 322.554 351.246C319.787 351.395 316.687 349.714 314.485 348.216C314.015 347.866 313.517 347.556 312.997 347.289C312.612 347.116 312.204 347.001 311.786 346.946C312.144 348.93 315 351.341 316.473 352.075C319.449 353.563 323 352.819 326.328 352.992C326.573 352.982 326.815 353.04 327.028 353.161C327.425 353.424 327.449 353.989 327.439 354.465C327.41 355.259 327.31 356.191 326.621 356.598C326.276 356.762 325.897 356.84 325.515 356.826C317.315 357.184 309.099 356.895 300.944 355.963C299.572 355.874 298.223 355.575 296.942 355.075C296.105 354.686 295.324 354.186 294.621 353.587C293.549 354.401 294.422 356.598 295.33 357.446Z" fill="#E8EAF2"/>
<path d="M302.184 156.987C302.229 158.286 301.341 160.811 303.776 160.107C305.225 159.69 305.636 157.969 307.476 158.351C309.316 158.733 309.738 161.004 310.363 162.487C310.873 163.666 311.661 164.703 312.659 165.509C313.658 166.316 314.837 166.869 316.096 167.12C316.617 167.244 317.159 167.244 317.679 167.12C318.864 166.782 319.539 165.557 320.025 164.422C320.445 163.457 320.793 162.462 321.066 161.446C321.253 160.734 321.379 160.007 321.443 159.273V159.273C321.482 158.778 321.482 158.281 321.443 157.785C321.225 154.809 319.539 152.126 317.381 150.088C315.224 148.049 312.61 146.576 310.021 145.128C309.177 144.602 308.264 144.196 307.308 143.923C306.365 143.729 305.397 143.689 304.441 143.804C303.183 143.857 301.945 144.148 300.796 144.662C300.324 144.893 299.891 145.196 299.511 145.559C298.972 146.062 298.586 146.707 298.4 147.419C297.934 149.329 299.149 151.05 300.141 152.563C301.029 153.887 302.12 155.31 302.184 156.987Z" fill="#3F3D56"/>
<path opacity="0.1" d="M261.236 184.915C261.757 183.601 263.939 179.98 263.31 178.73C262.654 179.663 262.095 180.66 261.643 181.706C261.231 182.718 261.569 184.077 261.236 184.915Z" fill="black"/>
<path opacity="0.1" d="M300.091 152.548C299.099 151.035 297.879 149.314 298.345 147.4C298.577 146.559 299.075 145.816 299.764 145.282C299.604 145.562 299.483 145.862 299.402 146.174C298.936 148.089 300.156 149.81 301.148 151.323C302.031 152.662 303.132 154.09 303.181 155.762C303.231 157.061 302.343 159.591 304.778 158.881C306.226 158.465 306.638 156.744 308.478 157.126C310.318 157.508 310.74 159.774 311.365 161.262C311.874 162.44 312.662 163.478 313.661 164.284C314.66 165.091 315.839 165.644 317.098 165.895C317.617 166.019 318.157 166.019 318.676 165.895C318.947 165.826 319.205 165.708 319.434 165.547C319.066 166.292 318.419 166.862 317.634 167.134C317.116 167.259 316.575 167.259 316.057 167.134C314.798 166.884 313.618 166.331 312.62 165.524C311.621 164.718 310.833 163.68 310.323 162.502C309.698 161.014 309.292 158.757 307.437 158.366C305.582 157.974 305.185 159.705 303.737 160.121C301.301 160.831 302.189 158.301 302.14 157.002C302.075 155.315 300.974 153.887 300.091 152.548Z" fill="black"/>
<path opacity="0.1" d="M299.551 149.964C299.78 150.331 300.03 150.686 300.3 151.025C300.814 151.675 301.39 152.273 302.021 152.811C302.392 153.132 302.779 153.435 303.181 153.718C303.932 154.249 304.723 154.722 305.547 155.132C307.963 156.261 310.478 157.163 313.061 157.825L318.085 159.288C318.705 159.754 319.831 160.597 321.061 161.465C321.248 160.753 321.375 160.027 321.438 159.293C321.477 158.798 321.477 158.3 321.438 157.805C321.22 154.829 319.534 152.146 317.376 150.108C315.219 148.069 312.605 146.596 310.016 145.148C309.172 144.622 308.259 144.216 307.303 143.943C306.36 143.749 305.392 143.709 304.436 143.823C303.178 143.876 301.941 144.168 300.791 144.682C300.319 144.913 299.886 145.216 299.506 145.579C299.223 145.998 299.005 146.458 298.861 146.943C298.554 147.94 298.99 149.046 299.551 149.964Z" fill="black"/>
<path d="M299.551 149.622C299.78 149.991 300.03 150.347 300.3 150.688C300.813 151.337 301.389 151.934 302.021 152.468C302.391 152.793 302.778 153.098 303.181 153.381C303.934 153.907 304.725 154.376 305.547 154.785C307.963 155.912 310.479 156.813 313.061 157.478L318.085 158.941C319.841 160.265 325.709 164.61 326.696 164.069C327.856 163.43 321.488 158.921 321.488 158.921L321.195 159.144C322.128 158.554 322.614 157.195 322.827 156.02C323.277 153.922 323.294 151.755 322.876 149.651C322.38 147.573 321.126 145.594 319.221 144.622C318.378 144.186 317.356 143.893 316.741 143.223C316.648 143.126 316.566 143.018 316.498 142.901C316.464 142.845 316.432 142.787 316.404 142.727C316.339 142.542 316.249 142.367 316.136 142.207C315.789 141.805 315.144 141.929 314.648 141.993H314.475H314.192C312.302 142.033 310.472 141.001 308.563 141.001C306.47 141.001 304.684 142.212 302.844 143.04L301.787 143.536C300.453 144.156 299.451 144.816 298.901 146.581C298.554 147.598 298.99 148.709 299.551 149.622Z" fill="#303D5C"/>
<path opacity="0.1" d="M314.162 142.023C314.088 142.153 314.047 142.3 314.043 142.45C314.044 142.578 314.072 142.706 314.127 142.822C314.182 142.939 314.262 143.042 314.361 143.124C314.592 143.293 314.868 143.391 315.154 143.407C315.36 143.436 315.567 143.452 315.774 143.456C316.053 143.478 316.332 143.431 316.587 143.318C316.637 143.289 316.685 143.258 316.731 143.223C316.638 143.126 316.556 143.018 316.488 142.901C316.444 142.936 316.394 142.926 316.206 142.901C315.87 142.882 315.537 142.826 315.214 142.732C315.077 142.693 314.948 142.631 314.832 142.549C314.662 142.403 314.536 142.212 314.47 141.998L314.162 142.023Z" fill="black"/>
<path opacity="0.1" d="M321.349 158.871C321.082 159.035 320.785 159.144 320.476 159.194C320.088 159.307 319.68 159.334 319.28 159.274C318.88 159.214 318.498 159.069 318.16 158.847" fill="black"/>
<path d="M110.777 201.59C109.943 196.01 104.879 183.001 104.879 183.001C104.79 182.609 104.691 182.227 104.577 181.84C100.981 169.481 96.0014 168.384 96.0014 168.384L78.176 164.585C78.3186 164.679 78.443 164.799 78.543 164.937L78.2603 164.982C77.4438 164.018 76.9039 162.851 76.698 161.604C76.6633 161.421 76.6335 161.228 76.6087 161.034C77.8884 159.786 78.8866 158.279 79.5361 156.614C80.1857 154.948 80.4717 153.164 80.3749 151.379C80.2782 149.594 79.8009 147.85 78.9751 146.265C78.1493 144.68 76.9941 143.289 75.587 142.187C75.4035 142.043 75.215 141.899 75.0166 141.765C75.8598 140.873 75.8846 139.628 75.2597 138.388C73.8511 135.466 70.7958 133.621 67.6613 132.724C65.2607 132.034 62.6569 131.811 60.2811 132.565C58.9497 133.059 57.6594 133.658 56.4224 134.355C54.0516 135.541 51.4626 136.473 49.6622 138.417C49.4315 138.619 49.2505 138.871 49.1334 139.154C49.0164 139.437 48.9665 139.744 48.9877 140.049C49.1482 140.477 49.3741 140.877 49.6573 141.235C50.1533 142.122 50.0342 143.219 49.692 144.211C49.3498 145.202 48.834 146.075 48.5909 147.067C48.3479 148.059 48.4421 149.225 49.1861 149.934C49.5439 150.216 49.9164 150.48 50.3021 150.723C50.709 151.069 51.0662 151.469 51.3634 151.913L53.4763 154.765C54.4659 156.03 55.3485 157.376 56.1149 158.787C56.5683 159.856 57.116 160.881 57.7516 161.852C57.9577 162.123 58.194 162.369 58.4559 162.586L58.2476 162.507C58.5588 162.811 58.9286 163.048 59.3345 163.204C59.7405 163.36 60.1739 163.432 60.6085 163.415H60.7176C60.8764 163.412 61.0284 163.35 61.1441 163.241V163.628C61.1838 165.002 61.1739 166.46 61.0797 167.829L60.916 167.745C60.6712 167.621 60.3958 167.57 60.123 167.6C59.8503 167.629 59.5917 167.736 59.3784 167.908L42.9566 181.077C42.9566 181.077 39.3856 185.962 39.8865 194.384L37.0099 207.021C37.0099 207.021 33.4091 217.744 36.1766 225.402C38.9442 233.06 40.5462 237.439 40.5462 237.439C40.5462 237.439 41.6572 246.139 43.3137 246.863C44.9703 247.587 45.6944 247.959 45.6944 247.959L46.0267 250.037C46.0267 250.037 46.1358 250.241 46.3293 250.583C47.5395 252.686 52.0181 260.106 54.622 259.312C54.947 261.327 55.0881 263.367 55.0436 265.408L57.6177 282.697C57.6177 282.697 59.4132 287.399 59.3041 289.864C59.1949 292.329 61.407 295.816 61.407 295.816C60.064 298.271 59.6704 301.134 60.301 303.861C61.3524 308.454 62.6817 329.681 62.6817 329.681L64.616 334.825L64.5614 340.851C64.4011 341.828 63.991 342.747 63.3711 343.519C62.1262 344.873 62.2105 346.435 59.2197 348.281C56.229 350.126 54.3244 350.825 54.3244 353.285C54.3204 353.617 54.2906 353.949 54.2352 354.277C53.9574 356.072 53.4168 357.044 58.9321 357.57C60.8807 357.726 62.8406 357.486 64.6944 356.866C66.5481 356.245 68.2573 355.257 69.7196 353.959C69.7196 353.959 70.6768 352.233 75.1753 351.539C75.1753 351.539 76.7079 351.455 76.7922 350.101C76.822 349.635 76.7922 348.737 76.7922 347.755C76.7178 345.875 76.5393 343.688 76.2962 343.579C76.0532 343.47 75.4729 341.555 75.3043 340.871H76.5492C76.5492 340.871 77.7147 332.171 76.5492 326.537C75.3836 320.903 76.4401 316.91 76.4401 316.91L76.2169 302.031C76.2169 302.031 74.6694 300.389 75.8846 297.487C77.0997 294.586 75.8846 280.252 75.8846 280.252C75.8846 280.252 76.331 275.114 77.6007 273.909C78.8704 272.703 77.6651 266.375 77.6007 266.042L79.8673 273.636C79.8673 273.636 80.8592 288.733 82.9671 291.491L83.5722 298.326C83.5722 298.326 87.8872 304.62 87.0441 308.012C86.2009 311.405 87.9319 323.655 87.9319 323.655V336.164C87.9319 336.164 85.9926 341.193 88.7056 342.998L89.8711 342.954C89.4744 343.311 89.1917 343.851 88.7453 344.313C88.2245 344.848 87.9319 346.877 87.7533 348.623C87.6145 350.111 87.5698 351.37 87.5698 351.37C87.944 351.925 88.4357 352.39 89.0101 352.733C89.5844 353.076 90.2272 353.288 90.8929 353.354C93.0504 353.478 100.187 358.934 100.187 358.934C100.187 358.934 107.245 358.934 109.07 358.567L109.175 358.537C109.763 358.354 110.257 357.951 110.553 357.411C110.924 356.791 111.043 356.053 110.886 355.348C110.663 354.267 109.804 353.087 107.91 352.08C103.173 349.6 102.454 347.244 102.454 347.244L99.379 342.611H99.8205C99.8205 342.611 99.5427 337.686 102.915 332.161L102.692 307.779C102.692 307.779 104.076 299.407 101.7 294.884C101.7 294.884 101.507 290.073 103.094 288.595C104.681 287.117 100.981 272.183 100.981 272.183C100.981 272.183 100.222 264.168 99.3096 256.852C103.044 260.393 106.923 247.637 107.573 245.37H107.667L107.622 245.206L107.667 245.043C107.667 245.043 106.839 242.067 107.444 242.692C108.049 243.317 109.547 241.05 109.547 241.05C109.547 241.05 109.328 228.849 111.927 222.699C114.526 216.549 110.777 201.59 110.777 201.59ZM99.6518 209.352V209.317C100.039 216.757 99.5774 232.663 99.5774 232.663C99.5774 232.663 99.0814 234.702 98.516 237.102L98.1242 222L97.7522 207.775L99.6518 209.352ZM52.038 204.219C52.038 204.219 53.9177 227.743 52.038 231.136C51.5023 232.098 51.046 233.819 50.679 235.783C50.059 234.151 48.7447 230.327 49.1911 228.289C49.7962 225.665 47.971 218.771 47.971 218.607C47.971 218.443 47.8073 214.778 49.1365 211.956C50.4657 209.134 49.5779 207.939 49.5779 207.939C49.5779 207.939 50.6889 203.341 52.0181 204.234L52.038 204.219Z" fill="url(#paint1_linear)"/>
<path d="M56.596 257.194C54.9593 264.396 48.4421 253.504 46.9592 250.895C46.7657 250.553 46.6566 250.35 46.6566 250.35L47.3659 247.036L51.1006 245.519C51.6912 245.827 52.2509 246.19 52.772 246.605C54.8154 248.202 57.8607 251.614 56.596 257.194Z" fill="#A1616A"/>
<path d="M107.156 245.4C107.156 245.4 107.156 245.454 107.116 245.559L107.062 245.737C106.427 247.984 102.623 260.646 98.9575 257.145C94.94 253.291 96.8942 244.433 96.8942 244.433H96.919L105.351 243.565L107.022 245.286L107.156 245.4Z" fill="#A1616A"/>
<path d="M102.266 307.695L102.479 331.859C99.1707 337.344 99.4435 342.235 99.4435 342.235L88.532 342.666C85.8686 340.876 87.7732 335.881 87.7732 335.881V323.442C87.7732 323.442 86.0868 311.281 86.9003 307.913C87.7137 304.545 83.483 298.301 83.483 298.301L82.8779 291.526C80.8146 288.813 79.8375 273.824 79.8375 273.824L77.6156 266.29C77.6751 266.618 78.8257 272.932 77.6156 274.097C76.4054 275.263 75.9342 280.396 75.9342 280.396C75.9342 280.396 77.1295 294.621 75.9342 297.502C74.7389 300.384 76.2566 302.011 76.2566 302.011L76.4748 316.781C76.4748 316.781 75.4432 320.749 76.5839 326.333C77.7247 331.918 76.5839 340.563 76.5839 340.563H64.8491L64.9036 334.537L63.014 329.414C63.014 329.414 61.7095 308.349 60.6779 303.786C60.0577 301.083 60.4438 298.246 61.7641 295.806C61.7641 295.806 59.5917 292.334 59.7008 289.884C59.81 287.434 58.0542 282.772 58.0542 282.772L55.5297 265.611C55.5968 262.301 55.1688 258.999 54.26 255.815C52.772 250.93 50.6245 244.522 50.6245 244.522L53.0746 244.74L65.4492 245.841C65.4492 245.841 95.5303 243.818 96.8793 245.499C97.164 246.047 97.3551 246.639 97.4447 247.25C98.7938 253.321 100.579 272.326 100.579 272.326C100.579 272.326 104.22 287.151 102.657 288.614C101.095 290.078 101.289 294.859 101.289 294.859C103.62 299.387 102.266 307.695 102.266 307.695Z" fill="#3F3D56"/>
<path d="M76.8368 349.709C76.7525 351.058 75.2497 351.138 75.2497 351.138C70.8504 351.827 69.913 353.543 69.913 353.543C68.4831 354.827 66.8071 355.807 64.9868 356.424C63.1664 357.04 61.2398 357.28 59.3239 357.129C53.9128 356.603 54.4435 355.641 54.7163 353.856C54.7722 353.528 54.8021 353.196 54.8055 352.864C54.8055 350.418 56.6754 349.724 59.6115 347.904C62.5477 346.084 62.4585 344.521 63.6835 343.182C64.9086 341.843 65.0276 339.214 65.0276 339.214C66.4114 336.814 69.913 339.581 69.913 339.581C70.0767 340.434 75.2894 340.315 75.2894 340.315C75.2894 340.315 75.9838 343.083 76.3359 343.247C76.574 343.356 76.7476 345.528 76.8319 347.393C76.8567 348.36 76.8666 349.248 76.8368 349.709Z" fill="#303D5C"/>
<path opacity="0.1" d="M76.8369 349.709C76.7525 351.058 75.2497 351.137 75.2497 351.137C70.8504 351.827 69.913 353.543 69.913 353.543C68.4831 354.827 66.8071 355.807 64.9868 356.424C63.1664 357.04 61.2398 357.28 59.3239 357.129C53.9128 356.603 54.4435 355.641 54.7163 353.855C57.1317 354.456 61.7591 355.294 64.4523 353.826C68.2019 351.792 70.9 350.354 70.9 350.354L76.8517 347.378C76.8567 348.36 76.8666 349.248 76.8369 349.709Z" fill="black"/>
<path d="M109.983 356.96C109.69 357.491 109.206 357.89 108.629 358.076L108.525 358.106C106.734 358.468 99.8056 358.468 99.8056 358.468C99.8056 358.468 92.8024 353.052 90.6845 352.928C90.0311 352.862 89.4002 352.652 88.8369 352.315C88.2737 351.977 87.7919 351.519 87.426 350.973C87.426 350.973 87.4656 349.714 87.6045 348.246C87.7682 346.515 88.0558 344.501 88.5667 343.97C89.5041 342.978 89.7075 341.649 91.8253 342.482C91.8253 342.482 94.8359 337.18 98.3771 341.277L102.047 346.842C102.047 346.842 102.737 349.163 107.384 351.648C109.244 352.64 110.087 353.815 110.305 354.887C110.463 355.594 110.348 356.334 109.983 356.96V356.96Z" fill="#303D5C"/>
<path opacity="0.1" d="M109.983 356.96C109.566 357.307 109.11 357.689 108.629 358.076L108.525 358.106C106.734 358.468 99.8056 358.468 99.8056 358.468C99.8056 358.468 92.8024 353.052 90.6845 352.928C90.0311 352.862 89.4002 352.652 88.8369 352.315C88.2737 351.977 87.7919 351.519 87.426 350.973C87.426 350.973 87.4656 349.714 87.6045 348.246C89.7571 348.895 93.0256 350.031 93.9034 351.261C95.2426 353.131 99.3245 355.725 99.3245 355.725C99.3245 355.725 106.928 354.996 110.305 354.892C110.461 355.597 110.346 356.335 109.983 356.96V356.96Z" fill="black"/>
<path d="M80.3732 167.457L70.3594 178.046C70.3594 178.046 58.2228 177.148 60.3406 173.582C61.4219 171.757 61.5905 167.933 61.4963 164.61C61.407 161.406 61.0747 158.658 61.0747 158.658C61.0747 158.658 78.1016 150.172 76.7972 158.108C76.5185 159.598 76.5017 161.125 76.7476 162.621C77.4915 166.589 80.3732 167.457 80.3732 167.457Z" fill="#A1616A"/>
<path opacity="0.1" d="M76.7972 158.108C76.5185 159.598 76.5017 161.125 76.7476 162.621C74.476 164.918 71.3216 164.412 67.82 164.412C65.5087 164.412 63.0288 164.446 61.1689 163.35C61.0797 160.141 61.0598 158.678 61.0598 158.678C61.0598 158.678 78.1016 150.172 76.7972 158.108Z" fill="black"/>
<path d="M80.3732 153.148C80.3718 156.475 79.0492 159.665 76.6961 162.018C74.343 164.37 71.1521 165.691 67.8249 165.691C64.5004 165.687 61.3132 164.364 58.9633 162.012C56.6135 159.661 55.2929 156.473 55.2916 153.148C55.4036 149.897 56.7739 146.816 59.1135 144.556C61.4531 142.295 64.5792 141.032 67.8324 141.032C71.0856 141.032 74.2116 142.295 76.5512 144.556C78.8908 146.816 80.2612 149.897 80.3732 153.148V153.148Z" fill="#A1616A"/>
<path opacity="0.1" d="M97.4447 247.27C94.325 254.709 74.228 254.858 74.228 254.858V246.754L73.0129 246.674C73.5386 248.996 72.2739 254.655 72.2739 254.655C56.4026 256.897 52.524 247.855 52.524 247.855L53.0746 244.76L65.4492 245.861C65.4492 245.861 95.5303 243.837 96.8793 245.519C97.164 246.067 97.3551 246.659 97.4447 247.27V247.27Z" fill="black"/>
<path d="M74.228 253.881V245.772L73.0129 245.697C73.5386 248.014 72.2739 253.678 72.2739 253.678C60.3208 255.364 55.1726 250.657 53.3573 248.222C53.033 247.803 52.7537 247.35 52.524 246.873L57.3697 219.594L58.5105 179.42L60.2613 172.377L60.663 168.994V168.955H60.7077L61.9427 169.485L69.3377 172.684L77.7395 166.341L77.8586 166.247L78.2802 165.929L78.9745 166.49L80.7005 167.873L86.2406 203.633C86.2406 203.633 95.8477 231.175 97.6481 242.29C97.7175 242.731 97.777 243.143 97.8217 243.53C98.9922 253.692 74.228 253.881 74.228 253.881Z" fill="#E1E7EF"/>
<path d="M70.2403 174.202C70.6348 174.202 70.9545 173.882 70.9545 173.488C70.9545 173.093 70.6348 172.774 70.2403 172.774C69.8459 172.774 69.5261 173.093 69.5261 173.488C69.5261 173.882 69.8459 174.202 70.2403 174.202Z" fill="#67647E"/>
<path d="M70.5677 180.719C70.9622 180.719 71.2819 180.4 71.2819 180.005C71.2819 179.611 70.9622 179.291 70.5677 179.291C70.1733 179.291 69.8535 179.611 69.8535 180.005C69.8535 180.4 70.1733 180.719 70.5677 180.719Z" fill="#67647E"/>
<path d="M71.2819 191.264C71.6763 191.264 71.9961 190.944 71.9961 190.55C71.9961 190.155 71.6763 189.835 71.2819 189.835C70.8875 189.835 70.5677 190.155 70.5677 190.55C70.5677 190.944 70.8875 191.264 71.2819 191.264Z" fill="#67647E"/>
<path d="M72.4623 202.627C72.8568 202.627 73.1765 202.307 73.1765 201.912C73.1765 201.518 72.8568 201.198 72.4623 201.198C72.0679 201.198 71.7481 201.518 71.7481 201.912C71.7481 202.307 72.0679 202.627 72.4623 202.627Z" fill="#67647E"/>
<path d="M73.1765 213.3C73.571 213.3 73.8908 212.98 73.8908 212.586C73.8908 212.191 73.571 211.872 73.1765 211.872C72.7821 211.872 72.4623 212.191 72.4623 212.586C72.4623 212.98 72.7821 213.3 73.1765 213.3Z" fill="#67647E"/>
<path d="M73.8907 224.663C74.2852 224.663 74.6049 224.343 74.6049 223.949C74.6049 223.554 74.2852 223.235 73.8907 223.235C73.4963 223.235 73.1765 223.554 73.1765 223.949C73.1765 224.343 73.4963 224.663 73.8907 224.663Z" fill="#67647E"/>
<path d="M73.6031 235.902C73.9975 235.902 74.3173 235.582 74.3173 235.188C74.3173 234.793 73.9975 234.473 73.6031 234.473C73.2086 234.473 72.8889 234.793 72.8889 235.188C72.8889 235.582 73.2086 235.902 73.6031 235.902Z" fill="#67647E"/>
<path opacity="0.1" d="M61.1392 223.577C61.1392 223.577 60.3407 234.027 58.8775 237.067C57.4144 240.108 56.7597 248.634 56.7597 248.634L53.3573 248.247C53.033 247.827 52.7537 247.375 52.524 246.898L57.3697 219.619L58.5105 179.445L60.2613 172.402L60.663 169.019H60.7126C60.9012 168.928 61.1081 168.88 61.3177 168.88C61.5274 168.88 61.7343 168.928 61.9228 169.019L62.0865 169.104C62.0369 169.242 61.9873 169.386 61.9476 169.53C60.6184 173.686 60.1224 181.344 60.1224 181.344C60.1224 181.344 62.027 195.356 62.2402 201.873C62.4535 208.39 61.1392 223.577 61.1392 223.577Z" fill="black"/>
<path opacity="0.1" d="M52.772 246.605C52.7334 246.692 52.6886 246.777 52.6381 246.858C51.3188 249.09 47.9759 250.503 46.9592 250.895C46.7657 250.553 46.6566 250.35 46.6566 250.35L47.3659 247.036L51.1006 245.519C51.6912 245.827 52.2509 246.19 52.772 246.605Z" fill="black"/>
<path d="M43.7254 193.278L40.6305 195.123L37.8084 207.671C37.8084 207.671 34.277 218.31 36.99 225.913C39.703 233.516 41.2802 237.861 41.2802 237.861C41.2802 237.861 42.3664 246.496 43.9982 247.2C45.6299 247.905 46.3342 248.286 46.3342 248.286L46.6467 250.36C46.6467 250.36 51.0658 248.872 52.6331 246.218C54.2004 243.565 51.4825 237.003 51.4825 237.003C51.4825 237.003 49.1464 231.408 49.7416 228.804C50.3368 226.201 48.5512 219.381 48.5512 219.192C48.5512 219.004 48.3876 215.388 49.687 212.591C50.9865 209.794 50.1235 208.623 50.1235 208.623L49.3101 200.638L43.7254 193.278Z" fill="#303D5C"/>
<path opacity="0.1" d="M97.7027 244.904C97.7027 244.904 89.5042 247.999 86.8953 245.286C84.2865 242.573 84.5593 229.861 84.5593 229.861C84.5593 229.861 82.0794 206.406 80.4873 202.547C78.8952 198.689 79.7284 170.889 79.7284 170.889C79.7284 170.889 78.667 167.293 77.7445 166.356C77.6866 166.294 77.6217 166.239 77.5511 166.192L77.8636 166.262L78.9795 166.505L80.7055 167.888L86.2456 203.648C86.2456 203.648 95.8527 231.19 97.6531 242.305L97.7027 244.904Z" fill="black"/>
<path opacity="0.1" d="M107.156 245.737H107.062C106.035 245.871 96.919 246.972 96.8843 245.073C96.8833 244.854 96.8949 244.635 96.919 244.418L105.351 243.55L107.022 245.271C107.052 245.38 107.077 245.479 107.101 245.554L107.156 245.737Z" fill="black"/>
<path d="M98.4119 180.714L104.403 183.839C104.403 183.839 109.363 196.734 110.191 202.294C110.191 202.294 113.886 217.129 111.332 223.235C108.778 229.34 109.001 241.447 109.001 241.447C109.001 241.447 107.513 243.674 106.933 243.074C106.353 242.473 107.156 245.4 107.156 245.4C107.156 245.4 96.924 246.759 96.8793 244.75C96.8347 242.741 99.2204 233.139 99.2204 233.139C99.2204 233.139 99.8701 210.275 98.9476 206.689C98.0251 203.103 98.4119 180.714 98.4119 180.714Z" fill="#303D5C"/>
<path opacity="0.1" d="M80.5418 205.062C80.5418 205.062 77.1791 213.315 76.078 213.86C74.977 214.406 76.2913 216.573 76.2913 216.573C76.2913 216.573 82.4464 207.993 80.5418 205.062Z" fill="black"/>
<path opacity="0.1" d="M78.5331 176.117C78.5728 175.958 74.5157 180.085 73.4295 180.714C72.3433 181.344 77.3973 180.68 78.5331 176.117Z" fill="black"/>
<path opacity="0.1" d="M67.2397 204.412C67.2397 204.412 61.0499 208.415 61.8633 209.997C62.6767 211.579 67.2397 204.412 67.2397 204.412Z" fill="black"/>
<path opacity="0.1" d="M78.4785 262.838C78.4785 262.838 83.7508 266.231 91.9493 267.074L78.4785 262.838Z" fill="black"/>
<path opacity="0.1" d="M65.8262 270.987C65.8262 270.987 70.7165 277.142 72.9335 277.286C75.1506 277.43 65.8262 270.987 65.8262 270.987Z" fill="black"/>
<path opacity="0.1" d="M72.6707 295.042C72.4524 295.151 69.8981 300.582 67.2943 300.746C64.6904 300.909 72.6707 295.042 72.6707 295.042Z" fill="black"/>
<path opacity="0.1" d="M95.312 306.936C95.312 306.936 100.158 305.849 101.234 309.326C101.234 309.326 100.907 308.24 95.312 306.936Z" fill="black"/>
<path opacity="0.1" d="M92.0584 326.809C92.0584 326.809 97.9209 325.614 99.1707 327.246C100.421 328.878 92.0584 326.809 92.0584 326.809Z" fill="black"/>
<path opacity="0.1" d="M75.458 329.577C75.458 329.632 69.5063 330.772 69.7196 331.536C69.9329 332.3 76.0929 332.186 76.3062 330.991C76.3475 330.842 76.3582 330.687 76.3376 330.534C76.3169 330.381 76.2653 330.234 76.1859 330.102C76.1066 329.969 76.0011 329.855 75.876 329.764C75.7508 329.674 75.6086 329.611 75.458 329.577V329.577Z" fill="black"/>
<path opacity="0.1" d="M90.0993 334.74C90.0993 334.74 99.9147 333.545 99.2947 335.608C98.6748 337.672 90.0993 334.74 90.0993 334.74Z" fill="black"/>
<path opacity="0.1" d="M38.7111 213.861C38.7656 214.024 45.1588 214.892 46.0416 216.955C46.0416 216.955 39.7427 214.024 38.7656 214.024" fill="black"/>
<path opacity="0.1" d="M47.7428 230.64C47.7428 230.64 42.421 232.321 42.7831 234.875C43.1451 237.43 42.2623 233.685 47.7428 230.64Z" fill="black"/>
<path opacity="0.1" d="M45.2629 243.565C45.2629 243.565 47.2022 240.901 49.0472 241.392C50.8923 241.883 45.2629 243.565 45.2629 243.565Z" fill="black"/>
<path opacity="0.1" d="M75.6614 143.318C75.4738 143.499 75.2638 143.656 75.0364 143.784C73.4939 144.677 73.0525 146.055 72.3383 147.642C71.6638 149.096 70.9099 150.618 69.541 151.462C67.7753 152.528 65.4442 152.136 63.5893 153.064C62.7757 153.492 62.108 154.153 61.6708 154.962C61.2337 155.771 61.0469 156.691 61.1342 157.607C61.2428 158.312 61.4087 159.007 61.6302 159.685C62.0515 161.152 62.2406 162.677 62.1906 164.203C62.1955 164.248 62.1955 164.293 62.1906 164.337C60.6191 163.55 59.2306 162.441 58.1151 161.083C56.9996 159.725 56.182 158.147 55.7153 156.453C55.2486 154.758 55.1432 152.984 55.406 151.247C55.6688 149.509 56.2939 147.846 57.2408 146.365C58.1877 144.884 59.4352 143.619 60.9025 142.651C62.3697 141.683 64.024 141.035 65.7579 140.748C67.4919 140.46 69.2669 140.541 70.9679 140.983C72.6688 141.426 74.2577 142.221 75.6316 143.318H75.6614Z" fill="black"/>
<path d="M75.334 139.543C73.9552 136.647 70.9595 134.812 67.8944 133.919C65.5434 133.239 62.9891 133.016 60.6531 133.765C59.3469 134.256 58.0815 134.85 56.8688 135.541C54.5426 136.716 51.9834 137.649 50.2326 139.578C50.0066 139.779 49.8296 140.03 49.7153 140.31C49.601 140.59 49.5523 140.893 49.5729 141.195C49.7281 141.619 49.9491 142.015 50.2276 142.37C50.7236 143.253 50.5947 144.354 50.2623 145.346C49.93 146.338 49.4192 147.196 49.1811 148.183C48.943 149.17 49.0373 150.321 49.7664 151.025C50.1166 151.305 50.4808 151.566 50.8575 151.809C51.2597 152.152 51.6119 152.549 51.904 152.989L53.9723 155.821C54.9445 157.079 55.8121 158.414 56.5662 159.814C57.0106 160.873 57.5483 161.89 58.1732 162.854C58.8626 163.772 59.9389 164.506 61.0846 164.407C61.1725 164.409 61.2597 164.39 61.339 164.352C61.4183 164.314 61.4875 164.258 61.5409 164.188C61.5833 164.099 61.6037 164 61.6004 163.901C61.6451 162.375 61.4561 160.851 61.0399 159.382C60.8056 158.706 60.6297 158.011 60.5142 157.304C60.4291 156.386 60.6196 155.464 61.0613 154.654C61.5031 153.845 62.176 153.186 62.9941 152.761C64.8391 151.834 67.1702 152.23 68.9458 151.164C70.3147 150.336 71.0686 148.798 71.7431 147.34C72.4822 145.753 72.8938 144.364 74.4413 143.481C75.9887 142.598 76.0978 141.066 75.334 139.543Z" fill="#303D5C"/>
<path opacity="0.1" d="M69.7146 344.595C69.7146 344.595 71.6241 347.04 71.1331 348.424C70.6421 349.808 69.7146 344.595 69.7146 344.595Z" fill="black"/>
<path opacity="0.1" d="M95.6741 350.691C95.6741 350.691 96.1006 347.412 97.8117 347.383C99.5229 347.353 99.6022 347.204 100.907 347.705C102.211 348.206 103.436 348.989 103.049 349.109C102.662 349.228 100.798 347.229 98.8979 348.246C97.7084 348.897 96.622 349.721 95.6741 350.691Z" fill="black"/>
<path opacity="0.1" d="M64.0059 176.806L69.3625 173.037C69.3625 173.037 61.5012 168.394 60.5638 169.044C59.6264 169.694 58.9866 175.566 58.9866 175.566L64.0059 176.806Z" fill="black"/>
<path d="M63.9663 176.558L69.3426 172.709C69.3426 172.709 61.4814 168.067 60.544 168.742C59.6066 169.416 58.9668 175.586 58.9668 175.586L63.9663 176.558Z" fill="#E1E7EF"/>
<path opacity="0.03" d="M63.9663 176.558L69.3426 172.709C69.3426 172.709 61.4814 168.067 60.544 168.742C59.6066 169.416 58.9668 175.586 58.9668 175.586L63.9663 176.558Z" fill="black"/>
<path d="M61.4368 168.761L61.2731 168.682C61.0357 168.564 60.7696 168.517 60.506 168.545C60.2425 168.573 59.9924 168.676 59.7852 168.841L43.6708 181.915C43.6708 181.915 40.1692 186.76 40.6553 195.123L50.1186 208.593C50.1186 208.593 51.2048 204.03 52.5092 204.898C52.5092 204.898 54.3542 228.249 52.5092 231.617C50.6641 234.984 49.8458 247.582 49.8458 247.582L56.0901 248.286C56.0901 248.286 56.7448 239.761 58.208 236.72C59.6711 233.68 60.4746 223.235 60.4746 223.235C60.4746 223.235 61.7939 208.048 61.5756 201.531C61.3574 195.013 59.4578 181.007 59.4578 181.007C59.4578 181.007 60.0034 172.794 61.4368 168.761Z" fill="#303D5C"/>
<path opacity="0.1" d="M77.4916 174.42L70.7909 171.941C70.7909 171.941 79.3217 162.601 80.3831 167.784L77.4916 174.42Z" fill="black"/>
<path d="M77.4916 174.093L70.7909 171.613C70.7909 171.613 79.3217 162.269 80.3831 167.452L77.4916 174.093Z" fill="#E1E7EF"/>
<path opacity="0.03" d="M77.4916 174.093L70.7909 171.613C70.7909 171.613 79.3217 162.269 80.3831 167.452L77.4916 174.093Z" fill="black"/>
<path opacity="0.1" d="M77.2733 166.153C77.3695 166.134 77.4689 166.154 77.5511 166.207L77.2733 166.153Z" fill="black"/>
<path d="M77.923 165.498L95.6939 169.332C95.6939 169.332 100.579 170.418 104.126 182.688C107.672 194.959 99.2947 209.997 99.2947 209.997L97.4447 208.43L98.3722 244.269C98.3722 244.269 90.1687 247.364 87.5648 244.651C84.961 241.938 85.2288 229.226 85.2288 229.226C85.2288 229.226 82.7489 205.766 81.1568 201.913C79.5647 198.059 80.3732 170.254 80.3732 170.254C80.3732 170.254 78.915 165.285 77.923 165.498Z" fill="#303D5C"/>
<path opacity="0.1" d="M94.1763 188.362C93.9233 188.595 93.6307 199.438 94.7169 207.705C95.3838 212.733 96.4131 217.706 97.7969 222.585L96.185 189.513C96.185 189.513 94.9351 187.628 94.1763 188.362Z" fill="black"/>
<path opacity="0.1" d="M92.0038 178.998C92.4353 179.266 94.3349 183.775 93.467 185.62C92.599 187.465 92.0038 178.998 92.0038 178.998Z" fill="black"/>
<path opacity="0.1" d="M75.2299 139.543C74.3607 137.823 73.0005 136.399 71.3216 135.451C72.5666 136.34 73.5734 137.523 74.2528 138.894C75.0116 140.416 74.7934 141.944 73.3005 142.807C71.8076 143.67 71.3166 145.073 70.6024 146.665C69.9279 148.119 69.1789 149.641 67.8051 150.485C66.0394 151.551 63.7083 151.159 61.8533 152.086C61.0394 152.515 60.3712 153.175 59.934 153.984C59.4968 154.793 59.3103 155.714 59.3983 156.63C59.5075 157.335 59.6733 158.03 59.8942 158.708C60.3156 160.175 60.5047 161.7 60.4547 163.226C60.4605 163.326 60.44 163.425 60.3952 163.514C60.3421 163.584 60.273 163.64 60.1936 163.678C60.1142 163.716 60.0268 163.735 59.9389 163.732C59.4786 163.765 59.0176 163.68 58.5997 163.484C58.9034 163.785 59.2658 164.02 59.6643 164.174C60.0628 164.329 60.4889 164.399 60.9159 164.382C60.983 164.39 61.051 164.382 61.1148 164.36C61.1786 164.338 61.2366 164.302 61.2843 164.254C61.3321 164.206 61.3683 164.148 61.3905 164.085C61.4126 164.021 61.4199 163.953 61.4119 163.886C61.4608 162.36 61.2734 160.836 60.8564 159.367C60.622 158.691 60.4461 157.996 60.3307 157.289C60.2434 156.374 60.4302 155.453 60.8673 154.644C61.3045 153.835 61.9722 153.175 62.7858 152.746C64.6259 151.819 66.9569 152.215 68.7375 151.149C70.1114 150.321 70.8603 148.783 71.5348 147.325C72.2788 145.738 72.6904 144.349 74.2329 143.466C75.7754 142.584 75.9887 141.066 75.2299 139.543Z" fill="black"/>
<path opacity="0.1" d="M257.71 386.649C268.941 386.649 278.045 385.399 278.045 383.857C278.045 382.315 268.941 381.064 257.71 381.064C246.479 381.064 237.375 382.315 237.375 383.857C237.375 385.399 246.479 386.649 257.71 386.649Z" fill="#20385B"/>
<path d="M265.953 380.375C266.865 379.633 267.529 378.632 267.858 377.503C268.101 376.362 267.615 374.999 266.528 374.582C265.308 374.116 264.004 374.959 263.017 375.817C262.03 376.675 260.894 377.642 259.6 377.464C260.265 376.861 260.763 376.096 261.045 375.243C261.327 374.39 261.382 373.479 261.207 372.598C261.153 372.232 260.999 371.889 260.76 371.606C260.086 370.882 258.856 371.189 258.042 371.76C255.463 373.575 254.744 377.077 254.734 380.231C254.471 379.095 254.689 377.91 254.685 376.759C254.68 375.609 254.357 374.279 253.375 373.669C252.766 373.344 252.082 373.183 251.391 373.203C250.231 373.158 248.941 373.273 248.148 374.121C247.156 375.177 247.418 376.943 248.277 378.088C249.135 379.234 250.434 379.973 251.629 380.777C252.592 381.347 253.413 382.129 254.03 383.063C254.102 383.194 254.162 383.332 254.208 383.475H261.474C263.099 382.646 264.606 381.604 265.953 380.375V380.375Z" fill="#20385B"/>
<path opacity="0.1" d="M14.5074 368.948C22.4894 368.948 28.9601 368.06 28.9601 366.964C28.9601 365.868 22.4894 364.98 14.5074 364.98C6.5253 364.98 0.0545654 365.868 0.0545654 366.964C0.0545654 368.06 6.5253 368.948 14.5074 368.948Z" fill="#20385B"/>
<path d="M18.4553 360.466C19.3669 359.723 20.031 358.719 20.3599 357.59C20.6029 356.454 20.1218 355.085 19.0306 354.668C17.8105 354.202 16.5061 355.05 15.5191 355.903C14.5321 356.756 13.3963 357.729 12.1018 357.55C12.7684 356.948 13.2669 356.183 13.5486 355.33C13.8304 354.477 13.8855 353.565 13.7088 352.684C13.6553 352.319 13.5007 351.975 13.2624 351.693C12.5879 350.968 11.3579 351.276 10.5494 351.846C7.97034 353.662 7.25118 357.163 7.2363 360.318C6.97343 359.182 7.19166 357.996 7.1867 356.846C7.18174 355.695 6.85935 354.366 5.87732 353.756C5.26838 353.429 4.58416 353.268 3.89341 353.29C2.73282 353.245 1.44328 353.364 0.649714 354.207C-0.342241 355.264 -0.079376 357.029 0.778665 358.175C1.63671 359.321 2.93617 360.065 4.13644 360.863C5.0966 361.436 5.91541 362.217 6.53201 363.15C6.60427 363.281 6.66405 363.419 6.71056 363.561H13.9766C15.6013 362.735 17.1077 361.694 18.4553 360.466V360.466Z" fill="#20385B"/>
<path d="M364.494 324.558C364.494 324.558 367.222 328.124 363.239 333.486C359.256 338.847 355.973 343.405 357.287 346.763C357.287 346.763 363.294 336.769 368.199 336.63C373.104 336.491 369.875 330.569 364.494 324.558Z" fill="#20385B"/>
<path opacity="0.1" d="M364.494 324.558C364.733 324.904 364.921 325.281 365.054 325.679C369.826 331.284 372.365 336.516 367.777 336.645C363.507 336.769 358.383 344.407 357.153 346.336C357.193 346.487 357.243 346.634 357.302 346.778C357.302 346.778 363.309 336.784 368.214 336.645C373.119 336.506 369.875 330.569 364.494 324.558Z" fill="black"/>
<path d="M369.563 329.101C369.563 330.356 369.419 331.373 369.245 331.373C369.072 331.373 368.933 330.356 368.933 329.101C368.933 327.846 369.107 328.437 369.28 328.437C369.454 328.437 369.563 327.846 369.563 329.101Z" fill="#FFD037"/>
<path d="M371.299 330.599C370.198 331.199 369.24 331.561 369.156 331.407C369.072 331.253 369.895 330.648 370.996 330.048C372.097 329.448 371.666 329.884 371.75 330.048C371.834 330.212 372.4 329.999 371.299 330.599Z" fill="#FFD037"/>
<path d="M350.106 324.558C350.106 324.558 347.378 328.124 351.36 333.486C355.343 338.847 358.627 343.405 357.312 346.763C357.312 346.763 351.301 336.769 346.401 336.63C341.5 336.491 344.729 330.569 350.106 324.558Z" fill="#20385B"/>
<path opacity="0.1" d="M350.106 324.558C349.867 324.904 349.678 325.281 349.545 325.679C344.774 331.284 342.234 336.516 346.822 336.645C351.093 336.769 356.216 344.407 357.446 346.336C357.406 346.486 357.358 346.633 357.302 346.778C357.302 346.778 351.291 336.784 346.391 336.645C341.491 336.506 344.729 330.569 350.106 324.558Z" fill="black"/>
<path d="M345.037 329.101C345.037 330.356 345.181 331.373 345.354 331.373C345.528 331.373 345.667 330.356 345.667 329.101C345.667 327.846 345.493 328.437 345.319 328.437C345.146 328.437 345.037 327.846 345.037 329.101Z" fill="#FFD037"/>
<path d="M343.301 330.599C344.402 331.199 345.364 331.561 345.443 331.407C345.523 331.253 344.704 330.648 343.603 330.048C342.502 329.448 342.934 329.884 342.849 330.048C342.765 330.212 342.2 329.999 343.301 330.599Z" fill="#FFD037"/>
<path d="M345.905 346.311C345.905 346.311 353.523 346.073 355.824 344.441C358.126 342.81 367.544 340.856 368.115 343.45C368.685 346.044 379.562 356.489 370.961 356.558C362.361 356.628 350.979 355.219 348.687 353.825C346.396 352.432 345.905 346.311 345.905 346.311Z" fill="#A8A8A8"/>
<path opacity="0.2" d="M371.11 355.67C362.51 355.74 351.127 354.331 348.836 352.937C347.09 351.876 346.396 348.062 346.163 346.301H345.905C345.905 346.301 346.401 352.441 348.682 353.84C350.964 355.239 362.356 356.642 370.957 356.573C373.436 356.573 374.295 355.67 374.25 354.366C373.903 355.164 372.955 355.655 371.11 355.67Z" fill="black"/>
</g>
<defs>
<linearGradient id="paint0_linear" x1="294.09" y1="360.11" x2="294.09" y2="139.861" gradientUnits="userSpaceOnUse">
<stop stop-color="#808080" stop-opacity="0.25"/>
<stop offset="0.54" stop-color="#808080" stop-opacity="0.12"/>
<stop offset="1" stop-color="#808080" stop-opacity="0.1"/>
</linearGradient>
<linearGradient id="paint1_linear" x1="131997" y1="177952" x2="131997" y2="74202.3" gradientUnits="userSpaceOnUse">
<stop stop-color="#808080" stop-opacity="0.25"/>
<stop offset="0.54" stop-color="#808080" stop-opacity="0.12"/>
<stop offset="1" stop-color="#808080" stop-opacity="0.1"/>
</linearGradient>
<clipPath id="clip0">
<rect width="500" height="386.649" fill="white"/>
</clipPath>
</defs>
</svg>
