<svg width="500" height="458" viewBox="0 0 500 458" fill="none" xmlns="http://www.w3.org/2000/svg">
<g clip-path="url(#clip0)">
<path d="M466.764 271.337C476.764 246.127 480.844 218.959 478.691 191.924C476.538 164.889 468.208 138.709 454.344 115.4L171.215 154.602L442.543 98.0556C426.035 76.5645 404.803 59.1604 380.491 47.1907C356.178 35.221 329.437 29.0068 302.338 29.0291C204.632 29.0291 125.426 108.235 125.426 205.941C125.428 214.016 125.978 222.082 127.072 230.083L466.764 271.337Z" fill="#F2F2F2"/>
<path d="M137.251 269.637C162.822 335.867 227.089 382.853 302.338 382.853C372.949 382.853 433.889 341.481 462.263 281.659L137.251 269.637Z" fill="#F2F2F2"/>
<path d="M457.89 331.167C457.89 400.69 355.385 457.045 228.945 457.045C161.018 457.045 100 440.783 58.0758 414.947C30.7203 398.095 11.4889 377.164 3.77413 354.034C1.28428 346.666 0.00957845 338.943 0 331.167C0 261.651 189.726 -51.9279 228.945 205.295C268.164 462.519 457.89 261.651 457.89 331.167Z" fill="#2E205B"/>
<path opacity="0.1" d="M342.724 376.817C342.724 402.487 261.657 423.3 161.649 423.3C123.131 423.3 87.4224 420.213 58.0758 414.947C30.7203 398.095 11.489 377.164 3.77417 354.034C34.8205 339.887 93.8884 330.334 161.649 330.334C261.657 330.334 342.724 351.147 342.724 376.817Z" fill="black"/>
<path d="M212.019 112.051C197.669 87.8035 169.278 86.6735 169.278 86.6735C169.278 86.6735 141.612 83.1356 123.865 120.065C107.323 154.487 84.493 187.721 120.189 195.779L126.637 175.711L130.63 197.273C135.713 197.639 140.811 197.726 145.903 197.534C184.131 196.3 220.538 197.895 219.365 184.178C217.807 165.942 225.827 135.382 212.019 112.051Z" fill="#2F2E41"/>
<path d="M118.151 324.4C117.619 327.047 117.225 329.737 116.321 332.281C115.423 334.806 114.036 337.141 113.215 339.692C110.598 347.824 114.226 356.891 120.021 363.168C125.046 368.589 131.533 372.441 138.698 374.259C143.926 375.573 149.362 375.763 154.749 375.945C169.667 376.451 184.969 376.904 199.104 372.109C203.57 370.557 207.884 368.598 211.991 366.255C213.288 365.637 214.43 364.738 215.335 363.622C216.413 362.087 216.551 360.097 216.541 358.221C216.51 351.897 215.228 345.605 215.532 339.288C215.701 335.789 216.356 332.293 216.033 328.805C215.302 320.894 209.02 313.814 201.253 312.146C197.243 311.285 193.084 311.754 189.001 312.147C178.404 313.165 167.762 313.641 157.116 313.572C146.239 313.503 135.428 311.842 124.605 311.669C121.404 311.618 121.469 312.605 120.45 315.702C119.511 318.553 118.744 321.458 118.151 324.4Z" fill="#2F2E41"/>
<path d="M149.02 168.242C148.497 170.979 147.932 173.816 146.288 176.065C144.395 178.653 141.31 180.132 139.274 182.608C136.21 186.336 136.034 191.582 136.021 196.407C136.01 200.853 136.1 205.594 138.579 209.284C140.188 211.679 142.636 213.358 145.028 214.971C154.325 221.236 164.371 227.613 175.58 227.82C180.224 227.906 185.204 226.706 188.26 223.208C189.579 221.565 190.617 219.714 191.33 217.731C194.196 210.666 195.933 203.194 196.478 195.589C196.734 192.012 196.709 188.329 195.498 184.953C194.137 181.157 191.383 178.033 189.564 174.433C187.413 170.153 186.626 165.316 187.309 160.575C187.4 160.241 187.372 159.886 187.23 159.57C187.081 159.401 186.894 159.269 186.685 159.185C186.476 159.1 186.25 159.065 186.025 159.082L163.799 157.482C161.729 157.379 159.668 157.143 157.628 156.776C156.43 156.532 153.266 154.831 152.123 155.283C150.009 156.121 149.454 165.972 149.02 168.242Z" fill="#A0616A"/>
<path opacity="0.1" d="M149.02 168.936C148.497 171.673 147.932 174.51 146.288 176.759C144.395 179.347 141.31 180.826 139.274 183.302C136.21 187.03 136.034 192.276 136.021 197.101C136.01 201.547 136.1 206.288 138.579 209.978C140.188 212.373 142.636 214.052 145.028 215.664C154.325 221.93 164.371 228.307 175.58 228.514C180.224 228.599 185.204 227.4 188.26 223.902C189.579 222.259 190.617 220.408 191.33 218.425C194.196 211.36 195.933 203.888 196.478 196.283C196.734 192.705 196.709 189.023 195.498 185.647C194.137 181.85 191.383 178.727 189.564 175.127C187.413 170.847 186.626 166.01 187.309 161.269C187.4 160.935 187.372 160.58 187.23 160.264C187.081 160.095 186.894 159.963 186.685 159.879C186.476 159.794 186.25 159.759 186.025 159.776L163.799 158.176C161.729 158.073 159.668 157.837 157.628 157.47C156.43 157.226 153.266 155.525 152.123 155.977C150.009 156.815 149.454 166.666 149.02 168.936Z" fill="black"/>
<path d="M170.275 171.222C188.283 171.222 202.882 156.623 202.882 138.615C202.882 120.606 188.283 106.008 170.275 106.008C152.266 106.008 137.668 120.606 137.668 138.615C137.668 156.623 152.266 171.222 170.275 171.222Z" fill="#A0616A"/>
<path d="M153.593 211.648C155.293 213.424 157.094 215.183 159.321 216.224C161.536 217.26 164.031 217.518 166.476 217.586C172.354 217.752 178.726 216.675 182.814 212.449C188.085 207.002 187.912 198.216 192.043 191.861C192.376 191.285 192.83 190.788 193.374 190.405C194.067 190.028 194.85 189.848 195.639 189.885C200.856 189.836 205.402 193.22 209.504 196.445C211.341 197.89 213.225 199.386 214.384 201.416C215.195 202.999 215.75 204.7 216.03 206.456C218.065 216.393 218.724 226.553 219.379 236.676C219.74 242.267 220.102 247.863 220.075 253.466C219.986 271.924 215.696 290.073 211.43 308.032C210.88 310.346 210.128 312.932 208.023 314.04C207.085 314.462 206.078 314.708 205.051 314.766C192.831 316.201 180.586 317.638 168.284 317.827C163.483 317.901 158.684 317.785 153.888 317.479C153.062 317.468 152.243 317.325 151.462 317.056C150.403 316.547 149.492 315.774 148.819 314.811C142.164 306.425 141.771 294.832 141.814 284.127C141.918 257.954 142.853 231.803 144.619 205.672C144.765 203.515 144.797 200.896 143.243 199.199C146.041 203.679 149.933 207.822 153.593 211.648Z" fill="#D0CDE1"/>
<path d="M146.687 173.997C145.585 175.991 137.466 180.941 135.898 182.594C127.14 191.825 111.156 191.479 103.146 201.366C100.328 204.845 98.8636 209.216 97.7868 213.562C96.2638 219.708 95.4505 226.411 98.0019 232.206C100.457 237.782 105.625 241.637 109.133 246.618C112.986 252.088 114.718 258.728 116.378 265.209C117.604 269.994 118.839 274.897 118.362 279.814C117.819 285.404 115.114 290.522 113.517 295.906C111.92 301.29 111.645 307.703 115.337 311.934C118.05 315.043 122.306 316.276 126.373 316.969C131.564 317.854 136.841 318.106 142.102 318.338C146.751 318.544 151.876 318.583 155.451 315.603C158.271 313.251 159.497 309.434 159.655 305.766C159.814 302.097 159.051 298.46 158.573 294.819C158.077 291.045 157.887 287.238 157.727 283.434C157.012 266.368 156.914 249.291 157.434 232.204C157.543 228.648 157.674 225.048 156.916 221.573C155.919 217.002 153.448 212.917 151.387 208.717C147.295 200.38 145.36 192.282 145.993 183.016C146.617 173.871 150.605 166.903 146.687 173.997Z" fill="#575A89"/>
<path d="M192.476 174.691C194.153 176.415 199.853 176.984 201.987 178.094C203.947 179.114 206.116 179.647 208.239 180.259C216.023 182.504 223.427 185.902 230.204 190.34C231.612 191.164 232.857 192.239 233.877 193.512C235.071 195.173 235.504 197.245 235.909 199.25C236.954 204.426 238.004 209.664 237.769 214.939C237.52 220.538 235.833 225.961 234.16 231.31L227.908 251.297C223.242 266.216 218.546 281.282 217.233 296.858C216.506 305.491 216.829 314.18 218.194 322.735C218.332 323.595 218.447 324.581 217.879 325.242C217.467 325.649 216.925 325.898 216.348 325.946C213.331 326.418 210.411 324.879 207.677 323.518C199.321 319.36 190.404 316.442 181.206 314.857C184.8 309.662 187.573 303.946 189.428 297.908C190.481 294.074 191.31 290.182 191.912 286.251L194.82 269.431C195.886 263.263 196.955 257.079 197.315 250.83C197.535 248.487 197.398 246.125 196.91 243.823C196.353 241.602 195.246 239.567 194.254 237.504C189.461 227.534 187.212 216.157 189.098 205.256C189.923 200.486 191.527 195.71 190.858 190.915C190.215 186.305 190.883 182.722 189.701 178.16C184.844 159.428 189.32 171.448 192.476 174.691Z" fill="#575A89"/>
<path d="M103.063 217.129C100.878 221.664 97.2248 225.527 95.9814 230.404C95.4976 232.683 95.2903 235.013 95.364 237.342C95.3345 240.852 95.3154 244.434 96.3933 247.774C97.0872 249.925 98.2162 251.909 99.0295 254.017C100.163 256.963 100.668 260.114 100.512 263.266C100.293 267.634 98.8091 271.874 98.6931 276.245C98.5108 283.12 101.691 289.583 104.793 295.721C105.574 293.787 106.768 292.047 108.292 290.622C109.816 289.198 111.632 288.124 113.614 287.475C115.596 286.826 117.696 286.618 119.767 286.866C121.838 287.113 123.83 287.81 125.603 288.908C126.422 288.152 126.509 286.91 126.541 285.797C126.771 277.821 126.992 269.845 127.205 261.869C127.541 249.533 127.861 237.032 125.023 225.022C123.742 219.6 121.748 214.198 118.094 209.993C116.169 207.778 109.637 201.945 106.478 204.426C105.057 205.541 105.389 208.578 105.164 210.116C104.824 212.547 104.116 214.912 103.063 217.129Z" fill="#575A89"/>
<path d="M238.408 204.063C239.441 207.281 239.503 210.72 239.524 214.1C239.566 220.995 239.474 227.889 239.25 234.782C239.135 238.31 238.976 241.888 237.906 245.252C237.2 247.471 236.112 249.552 235.383 251.764C233.199 258.391 234.392 265.58 234.579 272.555C234.712 274.813 234.519 277.078 234.007 279.281C232.855 283.605 229.757 287.1 227.595 291.018C225.542 294.74 224.303 298.911 221.851 302.383C219.399 305.854 215.154 308.605 211.039 307.54C207.922 306.732 205.707 303.973 204.174 301.14C200.831 294.912 199.687 287.738 200.929 280.779C202.467 272.313 207.44 264.802 209.234 256.385C211.697 244.828 207.954 232.902 208.065 221.086C208.014 219.234 208.265 217.386 208.809 215.614C209.75 212.915 211.77 210.76 213.637 208.595C215.969 205.89 218.136 203.046 220.125 200.079C221.462 198.086 223.276 192.961 225.646 192.535C230.935 191.583 237.096 199.976 238.408 204.063Z" fill="#575A89"/>
<path d="M75.6168 319.26C72.6918 318.525 69.678 318.205 66.6639 318.309C63.4969 318.484 60.4035 319.331 57.5894 320.794C54.7752 322.257 52.3048 324.303 50.3424 326.794C48.38 329.286 46.9706 332.167 46.2078 335.246C45.445 338.325 45.3464 341.53 45.9185 344.65C46.5412 348.046 47.9402 351.248 49.4661 354.344C51.8404 359.163 54.6882 363.97 59.0837 367.058C61.6549 368.864 64.6309 369.99 67.5714 371.098L90.7217 379.819C94.1274 381.102 97.5336 382.386 100.973 383.575C118.252 389.548 136.267 393.129 154.516 394.22C160.075 394.551 165.718 394.643 171.141 393.377C172.428 393.077 173.801 392.629 174.546 391.538C174.987 390.769 175.247 389.91 175.307 389.025L176.731 379.053C176.932 377.648 177.125 376.17 176.61 374.848C175.957 373.172 174.322 372.118 172.762 371.222C157.542 362.481 139.772 357.658 126.961 345.661C123.945 342.836 121.421 338.359 117.757 336.441C113.602 334.265 108.709 333.024 104.414 331.019C95.0243 326.636 85.7929 321.6 75.6168 319.26Z" fill="#2F2E41"/>
<path opacity="0.1" d="M98.729 332.705C106.912 335.269 141.459 353.033 147.38 359.235C146.587 359.521 119.656 344.429 118.848 344.186C111.503 341.982 104.117 339.763 97.1414 336.537C95.7381 335.887 88.0248 332.837 88.3741 331.066C88.7683 329.068 97.2764 332.25 98.729 332.705Z" fill="black"/>
<path d="M200.813 399.392C201.277 399.426 201.738 399.29 202.11 399.01C202.273 398.801 202.393 398.561 202.463 398.305C202.532 398.048 202.55 397.781 202.515 397.517C202.503 392.989 202.49 388.46 202.477 383.931C198.57 382.07 194.2 381.473 189.911 380.9L169.896 378.224C170.356 378.286 166.767 386.845 167.317 387.987C168.287 390.001 175.7 391.786 177.792 392.737C185.065 396.043 192.622 399.677 200.813 399.392Z" fill="#A0616A"/>
<path d="M138.018 383.884C134.239 384.486 130.021 385.018 127.574 387.96C124.47 391.69 125.792 397.251 127.272 401.872C127.492 402.807 127.934 403.675 128.559 404.404C129.57 405.401 131.118 405.547 132.534 405.636C135.981 405.855 139.648 406.026 142.659 404.335C144.085 403.535 145.264 402.365 146.593 401.412C148.813 399.934 151.254 398.818 153.824 398.105C158.549 396.619 163.412 395.617 168.34 395.114C170.271 394.917 172.241 394.79 174.058 394.106C175.875 393.422 177.558 392.065 178.085 390.196C178.783 387.727 177.348 385.21 175.972 383.044C174.257 380.347 172.441 377.507 169.885 375.521C166.155 372.624 164.311 374.848 160.554 376.702C153.444 380.211 145.847 382.632 138.018 383.884Z" fill="#A0616A"/>
<path d="M128.142 387.288L104.148 380.196C101.23 379.333 98.2616 378.463 95.2186 378.466C92.1756 378.468 88.9919 379.466 87.0183 381.782C85.1577 383.966 84.6252 386.95 84.1613 389.781L83.1691 395.837C82.6648 398.915 82.1597 402.052 82.6135 405.138C83.0674 408.223 84.6425 411.306 87.3803 412.8C90.7007 414.611 94.7702 413.726 98.476 412.969C105.961 411.439 113.575 410.622 121.214 410.53C124.086 410.496 127.099 410.532 129.637 409.187C132.653 407.588 134.458 404.207 134.769 400.807C135.241 395.634 133.516 388.876 128.142 387.288Z" fill="#2F2E41"/>
<path d="M210.245 381.108C213.355 380.562 216.101 378.795 219.081 377.751C223.276 376.282 227.823 376.282 232.268 376.299C233.9 376.305 235.637 376.341 236.995 377.245C238.953 378.549 239.455 381.157 239.788 383.486C240.458 388.169 241.127 392.852 241.797 397.535C242.175 400.177 242.55 402.89 241.961 405.494C241.372 408.097 239.597 410.607 237.014 411.278C233.876 412.094 230.8 410.09 227.838 408.773C220.433 405.482 211.826 406.323 204.105 403.864C202.672 403.407 201.138 402.709 200.553 401.324C200.289 400.544 200.195 399.716 200.277 398.896C200.409 394.381 199.457 388.214 200.816 383.899C202.039 380.017 206.773 381.108 210.245 381.108Z" fill="#2F2E41"/>
<path d="M261.023 313.606C265.817 312.404 270.787 312.064 275.701 312.603C279.625 313.035 283.668 314.127 286.533 316.843C290.02 320.149 291.14 325.261 291.234 330.066C291.387 339.634 288.213 348.959 282.255 356.448C280.8 358.342 279.07 360.007 277.122 361.389C275.02 362.704 272.781 363.783 270.443 364.608L218.599 385.057C204.96 390.436 191.273 395.832 177.046 399.378C176.657 399.566 176.235 399.674 175.803 399.696C175.372 399.718 174.941 399.653 174.535 399.506C174.129 399.359 173.756 399.132 173.439 398.839C173.122 398.545 172.867 398.192 172.689 397.798C168.146 391.31 164.336 384.339 161.326 377.013C161.183 376.839 161.085 376.633 161.039 376.413C160.993 376.192 161 375.964 161.061 375.748C161.122 375.531 161.234 375.332 161.388 375.168C161.541 375.004 161.733 374.879 161.945 374.804L198.615 353.735C201.241 352.226 203.897 350.695 206.078 348.592C207.663 347.057 208.961 345.25 209.91 343.258C210.67 341.67 210.741 337.924 211.712 336.75C212.663 335.601 215.915 335.509 217.416 335.057C219.534 334.409 221.609 333.625 223.626 332.71C231.829 329.04 239.134 323.709 246.997 319.412C251.407 316.89 256.12 314.939 261.023 313.606Z" fill="#2F2E41"/>
<path opacity="0.1" d="M240.234 329.34C233.934 334.072 225.777 338.422 219.533 343.278C217.402 344.936 181.878 364.908 181.375 367.56C187.201 368.542 224.308 342.582 229.617 339.992C234.926 337.402 239.633 333.749 244.296 330.123C245.485 329.199 250.522 326.421 247.11 325.388C245.188 324.807 241.653 328.395 240.234 329.34Z" fill="black"/>
<path d="M196.885 175.149H141.583C139.336 175.149 137.182 176.042 135.593 177.631C134.004 179.219 133.112 181.374 133.112 183.621V186.723H132.511V193.661H133.112V198.517H132.511V202.68H133.112V253.87C133.112 256.117 134.004 258.272 135.593 259.861C137.182 261.449 139.336 262.342 141.583 262.342H196.885C199.132 262.342 201.287 261.449 202.876 259.861C204.464 258.272 205.357 256.117 205.357 253.87V183.621C205.357 181.374 204.464 179.219 202.876 177.631C201.287 176.042 199.132 175.149 196.885 175.149Z" fill="#3F3D56"/>
<path d="M205.675 109.714L177.625 95.0212L138.891 101.032L130.877 136.427L150.827 135.66L156.4 122.656V135.445L165.604 135.091L170.947 114.389L174.286 136.427L207.01 135.759L205.675 109.714Z" fill="#2F2E41"/>
<path d="M110.401 309.021C111.787 311.09 113.411 313.114 115.637 314.23C118.418 315.625 121.852 315.376 124.637 313.989C127.399 312.508 129.659 310.242 131.132 307.477C134.181 302.094 134.812 295.652 134.432 289.478C134.051 283.303 132.733 277.223 132.149 271.065C131.725 266.588 131.691 262.084 131.657 257.587C131.649 256.642 131.665 255.624 132.223 254.862C132.898 253.94 134.134 253.686 135.23 253.36C141.382 251.532 145.466 245.766 148.394 240.054C150.349 236.241 152.049 232.072 151.672 227.803C151.295 223.534 148.226 219.233 143.963 218.798C140.448 218.439 137.202 220.671 134.667 223.132C128.271 229.378 124.161 237.593 122.996 246.457C122.439 250.797 122.599 255.256 121.418 259.47C118.897 268.467 111.01 273.983 107.08 282.079C102.749 291 105.139 301.128 110.401 309.021Z" fill="#A0616A"/>
<path d="M226.465 274.648C225.568 276.734 224.262 278.62 222.624 280.194C220.987 281.767 219.05 282.997 216.929 283.81C214.293 284.869 211.386 285.047 208.64 284.318C207.278 283.94 206.022 283.253 204.969 282.311C203.916 281.369 203.094 280.197 202.567 278.886C202.147 277.565 201.917 276.192 201.883 274.806C201.489 268.739 201.641 262.486 203.845 256.82C204.695 254.634 205.842 252.561 206.512 250.314C207.278 247.751 207.4 245.047 207.517 242.374L208.241 225.819C208.361 224.617 208.278 223.404 207.995 222.23C207.273 219.834 205.034 218.278 202.98 216.849C198.019 213.399 193.116 209.373 190.712 203.83C189.977 202.133 189.491 200.247 189.865 198.437C190.543 195.149 193.86 193.021 197.139 192.304C199.285 191.835 201.503 191.805 203.66 192.216C205.818 192.627 207.87 193.47 209.692 194.696C211.515 195.921 213.071 197.502 214.266 199.345C215.461 201.187 216.271 203.253 216.647 205.416C216.971 207.285 216.967 209.193 217.157 211.08C217.559 215.082 218.83 218.94 219.625 222.883C221.583 232.595 220.568 242.635 222.504 252.346C224.123 260.466 230.227 265.764 226.465 274.648Z" fill="#A0616A"/>
<path d="M169.974 212.393C173.806 212.393 176.912 209.287 176.912 205.455C176.912 201.623 173.806 198.517 169.974 198.517C166.143 198.517 163.037 201.623 163.037 205.455C163.037 209.287 166.143 212.393 169.974 212.393Z" fill="#D0CDE1"/>
<path d="M450.881 116.106C454.529 116.106 457.486 113.149 457.486 109.502C457.486 105.854 454.529 102.897 450.881 102.897C447.234 102.897 444.277 105.854 444.277 109.502C444.277 113.149 447.234 116.106 450.881 116.106Z" fill="#3F3D56"/>
<path d="M459.137 92.9905H442.626C440.438 92.9969 438.342 93.8687 436.795 95.4155C435.248 96.9624 434.377 99.0585 434.37 101.246V117.757C434.377 119.945 435.248 122.041 436.795 123.588C438.342 125.135 440.438 126.006 442.626 126.013H459.137C461.325 126.006 463.421 125.134 464.967 123.588C466.514 122.041 467.386 119.945 467.392 117.757V101.246C467.386 99.0585 466.514 96.9624 464.967 95.4156C463.421 93.8688 461.325 92.9969 459.137 92.9905H459.137ZM450.881 119.408C448.922 119.408 447.007 118.827 445.377 117.739C443.748 116.65 442.479 115.103 441.729 113.293C440.979 111.483 440.783 109.491 441.165 107.569C441.547 105.647 442.491 103.882 443.876 102.497C445.262 101.111 447.027 100.168 448.949 99.7853C450.87 99.403 452.862 99.5992 454.672 100.349C456.483 101.099 458.03 102.369 459.118 103.998C460.207 105.627 460.788 107.542 460.788 109.502C460.787 112.129 459.743 114.648 457.886 116.506C456.028 118.364 453.509 119.408 450.881 119.408ZM461.614 101.246C461.124 101.246 460.645 101.101 460.238 100.829C459.83 100.556 459.513 100.17 459.325 99.7171C459.138 99.2646 459.089 98.7666 459.184 98.2862C459.28 97.8057 459.516 97.3645 459.862 97.0181C460.209 96.6717 460.65 96.4358 461.13 96.3403C461.611 96.2447 462.109 96.2938 462.561 96.4812C463.014 96.6687 463.401 96.9861 463.673 97.3934C463.945 97.8007 464.09 98.2796 464.09 98.7694C464.091 99.0949 464.028 99.4173 463.903 99.7181C463.779 100.019 463.597 100.292 463.367 100.522C463.136 100.753 462.863 100.935 462.562 101.059C462.261 101.183 461.939 101.247 461.614 101.246V101.246Z" fill="#3F3D56"/>
<path d="M450.457 70.666C442.708 70.666 435.132 72.964 428.689 77.2695C422.245 81.5749 417.223 87.6944 414.257 94.8541C411.292 102.014 410.516 109.892 412.028 117.493C413.54 125.093 417.271 132.075 422.751 137.555C428.231 143.035 435.213 146.766 442.813 148.278C450.414 149.79 458.292 149.014 465.452 146.049C472.612 143.083 478.731 138.061 483.036 131.617C487.342 125.174 489.64 117.598 489.64 109.849C489.64 104.703 488.626 99.6079 486.657 94.8541C484.688 90.1002 481.802 85.7808 478.164 82.1423C474.525 78.5039 470.206 75.6177 465.452 73.6486C460.698 71.6795 455.603 70.666 450.457 70.666ZM470.695 117.757C470.686 120.82 469.465 123.754 467.3 125.92C465.134 128.085 462.199 129.306 459.137 129.315H442.626C439.563 129.306 436.629 128.085 434.463 125.92C432.297 123.754 431.077 120.82 431.068 117.757V101.246C431.077 98.1835 432.297 95.249 434.463 93.0834C436.629 90.9178 439.563 89.6973 442.626 89.6883H459.137C462.2 89.6973 465.134 90.9178 467.3 93.0834C469.465 95.249 470.686 98.1835 470.695 101.246L470.695 117.757Z" fill="#3F3D56"/>
<path d="M462.17 213C454.818 213 447.632 215.18 441.519 219.264C435.407 223.349 430.643 229.154 427.829 235.946C425.016 242.738 424.28 250.211 425.714 257.422C427.148 264.632 430.689 271.255 435.887 276.453C441.085 281.651 447.708 285.192 454.919 286.626C462.129 288.06 469.602 287.324 476.394 284.511C483.186 281.697 488.991 276.933 493.076 270.821C497.16 264.708 499.34 257.522 499.34 250.17C499.34 245.289 498.379 240.455 496.511 235.946C494.643 231.436 491.905 227.338 488.453 223.887C485.002 220.435 480.904 217.697 476.394 215.829C471.885 213.961 467.051 213 462.17 213ZM473.89 235.491H469.132C465.884 235.491 465.264 237.028 465.264 239.292V244.104H473.001L471.99 251.653H465.263V272.141H456.637V251.653H450.45V244.104H456.637V238.524C456.637 231.838 461.274 228.199 467.245 228.199C470.103 228.199 473.176 228.415 473.89 228.509L473.89 235.491Z" fill="#3F3D56"/>
<path fill-rule="evenodd" clip-rule="evenodd" d="M291.555 77.11C312.848 77.11 330.11 59.8483 330.11 38.555C330.11 17.2617 312.848 0 291.555 0C270.262 0 253 17.2617 253 38.555C253 59.8483 270.262 77.11 291.555 77.11ZM306.18 20.693L298.706 26.8122C296.603 25.4976 294.117 24.7382 291.453 24.7382C285.439 24.7382 280.329 28.6097 278.479 33.9962L278.478 33.9962C277.999 35.3932 277.738 36.8929 277.738 38.4534C277.738 40.147 278.045 41.7697 278.608 43.2668L278.608 43.267C280.556 48.467 285.573 52.1687 291.453 52.1687C293.981 52.1687 296.349 51.4854 298.381 50.2925L298.382 50.2925C301.079 48.7105 303.187 46.2347 304.298 43.2708H291.961V34.1434H304.478H314.122C314.387 35.539 314.526 36.9804 314.526 38.4535C314.526 40.1053 314.352 41.7166 314.021 43.2708C312.898 48.5596 309.963 53.1778 305.898 56.4459L305.896 56.4447L305.896 56.4447L305.898 56.4459C301.944 59.624 296.921 61.5255 291.453 61.5255C282.667 61.5255 275.028 56.6145 271.131 49.3874C269.377 46.1331 268.381 42.4099 268.381 38.4534C268.381 34.6275 269.312 31.0196 270.961 27.8428H270.961C274.801 20.4395 282.536 15.3814 291.453 15.3814C297.052 15.3814 302.185 17.3755 306.18 20.693Z" fill="#3F3D56"/>
</g>
<defs>
<clipPath id="clip0">
<rect width="500" height="457.045" fill="white"/>
</clipPath>
</defs>
</svg>
