<svg width="100" height="100" viewBox="0 0 100 100" fill="none" xmlns="http://www.w3.org/2000/svg">
<path d="M23.4375 39.6484H15.7189C17.0229 21.875 31.8996 7.8125 50 7.8125C64.323 7.8125 77.2836 16.834 82.251 30.2615C82.9994 32.2848 85.2463 33.3182 87.2699 32.5699C89.2932 31.8213 90.3268 29.5744 89.5783 27.551C86.6178 19.5479 81.3582 12.6994 74.3686 7.7459C67.2182 2.67852 58.7916 0 50 0C38.7314 0 28.1371 4.38828 20.1689 12.3564C12.3047 20.2207 7.93066 30.6434 7.81777 41.7475C3.14941 44.4525 0 49.5006 0 55.2734V68.5547C0 77.1703 7.00938 84.1797 15.625 84.1797H23.4375C25.5949 84.1797 27.3438 82.4309 27.3438 80.2734V43.5547C27.3438 41.3973 25.5949 39.6484 23.4375 39.6484ZM19.5312 76.3672H15.625C11.3172 76.3672 7.8125 72.8625 7.8125 68.5547V55.2734C7.8125 50.9656 11.3172 47.4609 15.625 47.4609H19.5312V76.3672Z" fill="#2E205B"/>
<path d="M84.375 39.6484H76.5625C74.4051 39.6484 72.6562 41.3973 72.6562 43.5547V70.3125V80.2734V84.375C72.6562 86.5289 70.9039 88.2812 68.75 88.2812H56.8359V88.4051C55.5035 86.0021 52.9422 84.375 50 84.375C45.6854 84.375 42.1875 87.8729 42.1875 92.1875C42.1875 96.5021 45.6854 100 50 100C52.9422 100 55.5035 98.3729 56.8359 95.9699V96.0938H68.75C75.2117 96.0938 80.4688 90.8367 80.4688 84.375V84.1797H84.375C92.9906 84.1797 100 77.1703 100 68.5547V55.2734C100 46.6578 92.9906 39.6484 84.375 39.6484ZM92.1875 68.5547C92.1875 72.8625 88.6828 76.3672 84.375 76.3672H80.4688V70.3125V47.4609H84.375C88.6828 47.4609 92.1875 50.9656 92.1875 55.2734V68.5547Z" fill="#2E205B"/>
</svg>
