<svg width="220" height="100" viewBox="0 0 220 100" fill="none" xmlns="http://www.w3.org/2000/svg">
<g clip-path="url(#clip0)">
<path d="M58.9914 6.87796C50.2151 1.81081 39.0107 4.81197 33.9427 13.5899L2.48938 68.0683C-5.62753 82.1271 7.37957 99.166 23.1155 94.9488C27.8466 93.681 31.8008 90.6469 34.2498 86.4051L65.703 31.9265C70.7587 23.1704 67.7477 11.9335 58.9914 6.87796Z" fill="#F4DC4D"/>
<path d="M36.0818 72.4908C33.459 62.7024 23.4145 56.9011 13.6237 59.5247C-2.11782 63.7426 -4.85104 85.0036 9.20131 93.1171C23.2211 101.212 40.3224 88.3177 36.0818 72.4908Z" fill="#A0ED83"/>
<path d="M97.547 68.0683L66.0936 13.5899C63.6448 9.34807 59.6904 6.31397 54.9593 5.04618C39.2185 0.827639 26.2199 17.8741 34.3332 31.9267L65.7865 86.4053C70.8522 95.1796 82.0557 98.1862 90.8352 93.1173C99.5914 88.0616 102.602 76.8248 97.547 68.0683Z" fill="#86BFF2"/>
<path d="M36.0818 72.4908C33.459 62.7024 23.4145 56.9011 13.6237 59.5247C-2.11782 63.7426 -4.85104 85.0036 9.20131 93.1171C23.2211 101.212 40.3224 88.3177 36.0818 72.4908Z" fill="#A0ED83"/>
</g>
<path d="M220 50C220 22.3828 197.617 0 170 0C142.383 0 120 22.3828 120 50C120 77.6172 142.383 100 170 100C170.293 100 170.586 100 170.879 99.9805V61.0742H160.137V48.5547H170.879V39.3359C170.879 28.6523 177.402 22.832 186.934 22.832C191.504 22.832 195.43 23.1641 196.562 23.3203V34.4922H190C184.824 34.4922 183.809 36.9531 183.809 40.5664V48.5352H196.211L194.59 61.0547H183.809V98.0664C204.707 92.0703 220 72.832 220 50Z" fill="#2F86FB"/>
<defs>
<clipPath id="clip0">
<rect width="100" height="100" fill="white"/>
</clipPath>
</defs>
</svg>
