<svg width="100" height="100" viewBox="0 0 100 100" fill="none" xmlns="http://www.w3.org/2000/svg">
<path d="M60.5469 37.1094C59.4688 37.1094 58.5938 37.9844 58.5938 39.0625C58.5938 40.1406 59.4688 41.0156 60.5469 41.0156C61.625 41.0156 62.5 40.1406 62.5 39.0625C62.5 37.9844 61.625 37.1094 60.5469 37.1094Z" fill="#2E205B"/>
<path d="M97.7111 86.6639L71.6408 60.5936C75.8879 54.1963 78.125 46.7881 78.125 39.0625C78.125 17.5234 60.6016 0 39.0625 0C17.5234 0 0 17.5234 0 39.0625C0 60.6016 17.5234 78.125 39.0625 78.125C46.7883 78.125 54.1965 75.8877 60.5936 71.641L67.7996 78.8471C67.8006 78.848 67.8016 78.849 67.8027 78.8502L86.6637 97.7111C88.1398 99.1871 90.1014 100 92.1875 100C94.2736 100 96.2352 99.1871 97.7105 97.7117C99.1869 96.2365 100 94.2748 100 92.1875C100 90.1002 99.1869 88.1385 97.7111 86.6639ZM59.675 67.5248C59.675 67.525 59.6748 67.525 59.6746 67.5252C53.6459 71.9041 46.5186 74.2188 39.0625 74.2188C19.6773 74.2188 3.90625 58.4477 3.90625 39.0625C3.90625 19.6773 19.6773 3.90625 39.0625 3.90625C58.4477 3.90625 74.2188 19.6773 74.2188 39.0625C74.2188 46.5186 71.9041 53.6459 67.525 59.6748C65.3342 62.693 62.6932 65.3342 59.675 67.5248ZM63.7727 69.2955C65.7941 67.6418 67.642 65.7939 69.2955 63.7727L74.8367 69.3139C73.1516 71.3027 71.3027 73.1518 69.3139 74.8367L63.7727 69.2955ZM94.949 94.949C94.2107 95.6873 93.2301 96.0938 92.1875 96.0938C91.1449 96.0938 90.1643 95.6873 89.426 94.949L72.0832 77.6062C74.0611 75.9088 75.9088 74.0613 77.6061 72.0834L94.9494 89.4268C95.6873 90.1639 96.0938 91.1441 96.0938 92.1875C96.0938 93.2309 95.6873 94.2111 94.949 94.949Z" fill="#2E205B"/>
<path d="M39.0625 7.8125C21.8311 7.8125 7.8125 21.8311 7.8125 39.0625C7.8125 56.2939 21.8311 70.3125 39.0625 70.3125C56.2939 70.3125 70.3125 56.2939 70.3125 39.0625C70.3125 21.8311 56.2939 7.8125 39.0625 7.8125ZM39.0625 66.4062C23.9852 66.4062 11.7188 54.1398 11.7188 39.0625C11.7188 23.9852 23.9852 11.7188 39.0625 11.7188C54.1398 11.7188 66.4062 23.9852 66.4062 39.0625C66.4062 54.1398 54.1398 66.4062 39.0625 66.4062Z" fill="#2E205B"/>
<path d="M60.9502 30.6783C59.2684 26.301 56.34 22.5584 52.4814 19.8555C48.5311 17.0879 43.8908 15.625 39.0625 15.625C37.984 15.625 37.1094 16.4996 37.1094 17.5781C37.1094 18.6566 37.984 19.5312 39.0625 19.5312C47.0897 19.5312 54.4201 24.5738 57.3039 32.0795C57.6024 32.8561 58.3424 33.3326 59.1275 33.3326C59.3604 33.3326 59.5973 33.2906 59.8275 33.2021C60.8344 32.8152 61.3371 31.6853 60.9502 30.6783Z" fill="#2E205B"/>
</svg>
