<svg width="100" height="100" viewBox="0 0 100 100" fill="none" xmlns="http://www.w3.org/2000/svg">
<g clip-path="url(#clip0)">
<path d="M99.8072 54.6188C98.9094 45.5878 94.8747 37.0738 88.4461 30.645C82.9523 25.1513 76.2279 21.621 69.1524 20.0513V15.0887C72.0423 14.3697 74.1904 11.7539 74.1904 8.64464C74.1904 4.98286 71.2115 2.00391 67.5497 2.00391H53.487C49.8252 2.00391 46.8462 4.98286 46.8462 8.64464C46.8462 11.7537 48.9943 14.3695 51.884 15.0887V20.0651C44.8302 21.6415 38.1281 25.167 32.6499 30.6452C31.4511 31.844 30.3456 33.1017 29.3337 34.4087C29.2846 34.405 29.2356 34.4013 29.1856 34.4013H15.2672C14.1887 34.4013 13.3141 35.2757 13.3141 36.3544C13.3141 37.4332 14.1887 38.3076 15.2672 38.3076H26.676C25.2439 40.7051 24.0892 43.2229 23.2103 45.8148H1.95316C0.874623 45.8148 0 46.6892 0 47.7679C0 48.8466 0.874623 49.7211 1.95316 49.7211H22.1066C21.5437 52.192 21.2206 54.7067 21.1372 57.2284H12.5002C11.4217 57.2284 10.547 58.1028 10.547 59.1816C10.547 60.2603 11.4217 61.1347 12.5002 61.1347H21.1996C21.3644 63.6629 21.7708 66.1778 22.4191 68.6421H9.76578C8.68725 68.6421 7.81262 69.5165 7.81262 70.5952C7.81262 71.6739 8.68725 72.5484 9.76578 72.5484H23.6656C25.5817 77.617 28.576 82.3677 32.6499 86.4416C39.0848 92.8764 47.6076 96.912 56.648 97.8052C57.9382 97.9326 59.2294 97.9956 60.5189 97.9956C68.1405 97.9956 75.6652 95.7899 82.0501 91.6321C82.954 91.0434 83.2097 89.8334 82.621 88.9295C82.0323 88.0256 80.8224 87.7699 79.9184 88.3586C65.9422 97.4597 47.2246 95.4919 35.4121 83.6794C21.5521 69.8194 21.5521 47.2677 35.4121 33.4075C49.2719 19.5477 71.8236 19.5477 85.6838 33.4075C97.4806 45.2046 99.4592 63.9062 90.3881 77.8756C89.8006 78.7803 90.0579 79.9901 90.9624 80.5774C91.8675 81.1649 93.0768 80.9077 93.6642 80.003C98.5107 72.539 100.692 63.5242 99.8072 54.6188ZM50.7526 8.64483C50.7526 7.13699 51.9791 5.91041 53.487 5.91041H67.5497C69.0575 5.91041 70.2841 7.13699 70.2841 8.64483C70.2841 10.1527 69.0575 11.3792 67.5497 11.3792H67.1993H53.8372H53.487C51.9791 11.3792 50.7526 10.1525 50.7526 8.64483ZM55.7903 19.3936V15.2856H65.2461V19.3866C62.1062 19.0132 58.9296 19.0155 55.7903 19.3936Z" fill="#2E205B"/>
<path d="M87.0658 83.1064C86.5502 83.1064 86.0482 83.3154 85.6851 83.6787C85.3199 84.042 85.1127 84.5459 85.1127 85.0596C85.1127 85.5732 85.3199 86.0771 85.6851 86.4404C86.0482 86.8057 86.5504 87.0127 87.0658 87.0127C87.5795 87.0127 88.0814 86.8057 88.4466 86.4404C88.8099 86.0771 89.0189 85.5732 89.0189 85.0596C89.0189 84.5459 88.8101 84.042 88.4466 83.6787C88.0814 83.3154 87.5793 83.1064 87.0658 83.1064Z" fill="#2E205B"/>
<path d="M60.548 28.2441C43.8411 28.2441 30.2489 41.8362 30.2489 58.5432C30.2489 75.2503 43.8411 88.8424 60.548 88.8424C77.2549 88.8424 90.8471 75.2503 90.8471 58.5432C90.8471 41.8362 77.2549 28.2441 60.548 28.2441ZM60.548 84.936C45.9949 84.936 34.1552 73.0962 34.1552 58.5432C34.1552 43.9903 45.9949 32.1505 60.548 32.1505C75.1012 32.1505 86.9408 43.9903 86.9408 58.5432C86.9408 73.0962 75.1012 84.936 60.548 84.936Z" fill="#2E205B"/>
<path d="M72.9029 43.426L63.2289 53.0998C62.4199 52.6998 61.5099 52.4738 60.548 52.4738C59.5859 52.4738 58.6761 52.6998 57.8671 53.0998L53.5376 48.7703C52.7747 48.0076 51.5383 48.0076 50.7752 48.7703C50.0125 49.533 50.0125 50.7697 50.7752 51.5324L55.1048 55.862C54.7046 56.671 54.4788 57.5809 54.4788 58.5429C54.4788 61.8894 57.2013 64.6121 60.548 64.6121C63.8947 64.6121 66.6172 61.8894 66.6172 58.5429C66.6172 57.5809 66.3913 56.671 65.9913 55.862L75.3813 46.472L75.665 46.1882C76.4277 45.4255 76.4277 44.1887 75.665 43.426C74.9023 42.6633 73.666 42.6633 72.9029 43.426ZM60.548 60.706C59.3554 60.706 58.3851 59.7357 58.3851 58.5431C58.3851 57.3505 59.3554 56.3801 60.548 56.3801C61.7406 56.3801 62.7109 57.3505 62.7109 58.5431C62.7109 59.7357 61.7406 60.706 60.548 60.706Z" fill="#2E205B"/>
<path d="M81.4309 56.6138H79.6213C78.5428 56.6138 77.6682 57.4882 77.6682 58.5669C77.6682 59.6456 78.5428 60.52 79.6213 60.52H81.4309C82.5094 60.52 83.384 59.6456 83.384 58.5669C83.384 57.4882 82.5094 56.6138 81.4309 56.6138Z" fill="#2E205B"/>
<path d="M41.4744 56.5664H39.665C38.5865 56.5664 37.7119 57.4408 37.7119 58.5195C37.7119 59.5982 38.5865 60.4727 39.665 60.4727H41.4744C42.5529 60.4727 43.4275 59.5982 43.4275 58.5195C43.4275 57.4408 42.5529 56.5664 41.4744 56.5664Z" fill="#2E205B"/>
<path d="M60.5718 41.4227C61.6503 41.4227 62.5249 40.5482 62.5249 39.4695V37.6602C62.5249 36.5814 61.6503 35.707 60.5718 35.707C59.4933 35.707 58.6187 36.5814 58.6187 37.6602V39.4695C58.6187 40.5482 59.4933 41.4227 60.5718 41.4227Z" fill="#2E205B"/>
<path d="M60.5242 75.6636C59.4456 75.6636 58.571 76.538 58.571 77.6167V79.4261C58.571 80.5048 59.4456 81.3792 60.5242 81.3792C61.6027 81.3792 62.4773 80.5048 62.4773 79.4261V77.6167C62.4773 76.538 61.6027 75.6636 60.5242 75.6636Z" fill="#2E205B"/>
<path d="M1.95313 68.6411C1.43946 68.6411 0.935551 68.8501 0.572269 69.2134C0.208988 69.5767 3.8147e-06 70.0806 3.8147e-06 70.5942C3.8147e-06 71.1099 0.208793 71.6118 0.572269 71.9751C0.935746 72.3384 1.43946 72.5474 1.95313 72.5474C2.4668 72.5474 2.97071 72.3384 3.33379 71.9751C3.69707 71.6118 3.90625 71.1079 3.90625 70.5942C3.90625 70.0806 3.69727 69.5767 3.33379 69.2134C2.97071 68.8501 2.4668 68.6411 1.95313 68.6411Z" fill="#2E205B"/>
</g>
<defs>
<clipPath id="clip0">
<rect width="100" height="100" fill="white"/>
</clipPath>
</defs>
</svg>
