<svg width="100" height="100" viewBox="0 0 100 100" fill="none" xmlns="http://www.w3.org/2000/svg">
<path d="M95 0H35C32.2385 0 30 2.23854 30 5V41.6667H8.33333C5.57187 41.6667 3.33333 43.9052 3.33333 46.6667V80H1.66667C0.74625 80 0 80.7462 0 81.6667C0.00541667 86.2667 3.73333 89.9946 8.33333 90H61.6667C66.2644 90.0046 69.9954 86.281 70 81.6833C70 81.6777 70 81.6723 70 81.6667C70 80.7462 69.2537 80 68.3333 80H66.6667V61.6667H85C85.9204 61.6667 86.6667 60.9204 86.6667 60C86.6667 59.0796 85.9204 58.3333 85 58.3333H76.2567L73.8767 50H95C97.7615 50 100 47.7615 100 45V5C100 2.23854 97.7615 0 95 0ZM6.66667 46.6667C6.66667 45.7462 7.41292 45 8.33333 45H61.6667C62.5871 45 63.3333 45.7462 63.3333 46.6667V80H40C39.0796 80 38.3333 80.7462 38.3333 81.6667H31.6667C31.6667 80.7462 30.9204 80 30 80H6.66667V46.6667ZM65.2133 85.1967C64.2719 86.1362 62.9967 86.6648 61.6667 86.6667H8.33333C6.215 86.6642 4.32729 85.3296 3.61833 83.3333H28.3333C28.3333 84.2537 29.0796 85 30 85H40C40.9204 85 41.6667 84.2537 41.6667 83.3333H66.3817C66.1333 84.0325 65.7344 84.6685 65.2133 85.1967ZM66.6667 58.3333V50H70.41L72.79 58.3333H66.6667ZM96.6667 45C96.6667 45.9204 95.9204 46.6667 95 46.6667H66.6667C66.6667 43.9052 64.4281 41.6667 61.6667 41.6667H33.3333V5C33.3333 4.07958 34.0796 3.33333 35 3.33333H95C95.9204 3.33333 96.6667 4.07958 96.6667 5V45Z" fill="#01A0C8"/>
<path d="M91.6667 63.3335H78.3333C75.5719 63.3335 73.3333 65.572 73.3333 68.3335V95.0002C73.3333 97.7616 75.5719 100 78.3333 100H91.6667C94.4281 100 96.6667 97.7616 96.6667 95.0002V68.3335C96.6667 65.572 94.4281 63.3335 91.6667 63.3335ZM93.3333 95.0002C93.3333 95.9206 92.5871 96.6668 91.6667 96.6668H78.3333C77.4129 96.6668 76.6667 95.9206 76.6667 95.0002V68.3335C76.6667 67.4131 77.4129 66.6668 78.3333 66.6668H91.6667C92.5871 66.6668 93.3333 67.4131 93.3333 68.3335V95.0002Z" fill="#01A0C8"/>
</svg>
