<svg width="100" height="100" viewBox="0 0 100 100" fill="none" xmlns="http://www.w3.org/2000/svg">
<g clip-path="url(#clip0)">
<path d="M86.6675 6.66667C86.6673 6.66667 86.6669 6.66667 86.6667 6.66667H65V1.66667C65.0002 0.746458 64.2544 0.000208377 63.3342 4.36346e-08C63.334 4.36346e-08 63.3335 4.36346e-08 63.3333 4.36346e-08H36.6667C35.7464 -0.00020829 35.0002 0.745625 35 1.66583C35 1.66604 35 1.66646 35 1.66667V6.66667H13.3333C12.4131 6.66646 11.6669 7.41229 11.6667 8.3325C11.6667 8.33271 11.6667 8.33313 11.6667 8.33333V98.3333C11.6664 99.2535 12.4123 99.9998 13.3325 100C13.3327 100 13.3331 100 13.3333 100H86.6667C87.5869 100 88.3331 99.2544 88.3333 98.3342C88.3333 98.334 88.3333 98.3335 88.3333 98.3333V8.33333C88.3335 7.41313 87.5877 6.66687 86.6675 6.66667ZM38.3333 3.33333H61.6667V13.3333H38.3333V3.33333ZM85 96.6667H15V10H35V15C34.9998 15.9202 35.7456 16.6665 36.6658 16.6667C36.666 16.6667 36.6664 16.6667 36.6667 16.6667H63.3333C64.2535 16.6669 64.9998 15.921 65 15.0008C65 15.0006 65 15.0002 65 15V10H85V96.6667Z" fill="#01A0C8"/>
<path d="M55 76.6665H18.3333V79.9998H55V76.6665Z" fill="#01A0C8"/>
<path d="M81.6667 76.6665H58.3333V79.9998H81.6667V76.6665Z" fill="#01A0C8"/>
<path d="M81.6667 83.3335H18.3333V86.6668H81.6667V83.3335Z" fill="#01A0C8"/>
<path d="M45 90H18.3333V93.3333H45V90Z" fill="#01A0C8"/>
<path d="M81.6666 90H48.3333V93.3333H81.6666V90Z" fill="#01A0C8"/>
<path d="M30.0008 48.3335C30.0006 48.3335 30.0002 48.3335 30 48.3335H20C19.0798 48.3333 18.3336 49.0791 18.3333 49.9993C18.3333 49.9995 18.3333 50 18.3333 50.0002V71.6668C18.3331 72.587 19.079 73.3333 19.9992 73.3335C19.9994 73.3335 19.9998 73.3335 20 73.3335H30C30.9202 73.3337 31.6665 72.5879 31.6667 71.6677C31.6667 71.6675 31.6667 71.667 31.6667 71.6668V50.0002C31.6669 49.08 30.9211 48.3337 30.0008 48.3335ZM28.3333 70.0002H21.6667V51.6668H28.3333V70.0002Z" fill="#01A0C8"/>
<path d="M46.6675 41.6665C46.6673 41.6665 46.6669 41.6665 46.6667 41.6665H36.6667C35.7465 41.6663 35.0002 42.4121 35 43.3323C35 43.3325 35 43.333 35 43.3332V71.6665C34.9998 72.5867 35.7456 73.333 36.6658 73.3332C36.666 73.3332 36.6665 73.3332 36.6667 73.3332H46.6667C47.5869 73.3334 48.3331 72.5875 48.3333 71.6673C48.3333 71.6671 48.3333 71.6667 48.3333 71.6665V43.3332C48.3335 42.413 47.5877 41.6667 46.6675 41.6665ZM45 69.9998H38.3333V44.9998H45V69.9998Z" fill="#01A0C8"/>
<path d="M63.3342 35C63.334 35 63.3335 35 63.3333 35H53.3333C52.4131 34.9998 51.6669 35.7456 51.6667 36.6658C51.6667 36.666 51.6667 36.6665 51.6667 36.6667V71.6667C51.6664 72.5869 52.4123 73.3331 53.3325 73.3333C53.3327 73.3333 53.3331 73.3333 53.3333 73.3333H63.3333C64.2535 73.3335 64.9998 72.5877 65 71.6675C65 71.6673 65 71.6669 65 71.6667V36.6667C65.0002 35.7465 64.2544 35.0002 63.3342 35ZM61.6667 70H55V38.3333H61.6667V70Z" fill="#01A0C8"/>
<path d="M80.0008 28.3335C80.0006 28.3335 80.0002 28.3335 80 28.3335H70C69.0798 28.3333 68.3336 29.0791 68.3333 29.9993C68.3333 29.9995 68.3333 30 68.3333 30.0002V71.6668C68.3331 72.587 69.079 73.3333 69.9992 73.3335C69.9994 73.3335 69.9998 73.3335 70 73.3335H80C80.9202 73.3337 81.6665 72.5879 81.6667 71.6677C81.6667 71.6674 81.6667 71.667 81.6667 71.6668V30.0002C81.6669 29.08 80.921 28.3337 80.0008 28.3335ZM78.3333 70.0002H71.6667V31.6668H78.3333V70.0002Z" fill="#01A0C8"/>
<path d="M79.6729 16.6992L63.0063 20.0326C62.7929 20.0753 62.59 20.1594 62.409 20.2801L47.8288 30.0001H33.3333C33.0211 30.0001 32.715 30.088 32.4504 30.254L19.1171 38.5874L20.8831 41.413L33.8111 33.3334H48.3333C48.6623 33.3332 48.984 33.2359 49.2579 33.0534L63.9838 23.2357L80.3273 19.9673L79.6729 16.6992Z" fill="#01A0C8"/>
</g>
<defs>
<clipPath id="clip0">
<rect width="100" height="100" fill="white"/>
</clipPath>
</defs>
</svg>
