<svg width="100" height="100" viewBox="0 0 100 100" fill="none" xmlns="http://www.w3.org/2000/svg">
<path d="M98.9772 47.4278L75.852 22.9276C74.4307 21.4202 72.0582 21.3515 70.5508 22.7739C69.0457 24.1952 68.9758 26.5689 70.3983 28.0751L91.0947 50.0003L70.3983 71.9279C68.9758 73.4342 69.0457 75.8067 70.5508 77.2291C71.2758 77.9129 72.202 78.2516 73.1247 78.2516C74.1209 78.2516 75.1159 77.8567 75.8522 77.0778L98.9774 52.5764C100.341 51.1303 100.341 48.8727 98.9772 47.4278Z" fill="#2E205B"/>
<path d="M29.6029 71.9266L8.90789 50.0001L29.6029 28.0738C31.0242 26.5675 30.9555 24.1937 29.4492 22.7726C27.9441 21.3513 25.5691 21.42 24.148 22.9263L1.02288 47.4264C-0.340798 48.8714 -0.340798 51.1302 1.02288 52.5753L24.1492 77.0766C24.8867 77.8578 25.8804 78.2516 26.8767 78.2516C27.7992 78.2516 28.7256 77.9116 29.4492 77.2278C30.9568 75.8065 31.0242 73.4328 29.6029 71.9266Z" fill="#2E205B"/>
<path d="M56.0669 10.2924C54.0206 9.9824 52.1056 11.3873 51.7931 13.4336L40.793 85.434C40.4805 87.4815 41.8868 89.3954 43.9342 89.7079C44.1268 89.7366 44.3167 89.7504 44.5055 89.7504C46.3268 89.7504 47.9243 88.4217 48.2081 86.5666L59.2082 14.5662C59.5207 12.5185 58.1144 10.6049 56.0669 10.2924Z" fill="#2E205B"/>
</svg>
