<svg width="100" height="100" viewBox="0 0 100 100" fill="none" xmlns="http://www.w3.org/2000/svg">
<path d="M100 79.2969V3.125H0V79.2969H38.0859V91.0156H32.2266V96.875H67.7734V91.0156H61.9141V79.2969H100ZM5.85938 73.4375V65.625H64.8438V59.7656H27.776L43.457 44.0846L52.2461 52.8736L76.5625 28.5572V35.7422H82.4219V18.1641H64.8438V24.0234H72.81L52.2461 44.5873L43.457 35.7982L19.4896 59.7656H5.85938V8.98438H94.1406V73.4375C91.8002 73.4375 8.21543 73.4375 5.85938 73.4375ZM56.0547 91.0156H43.9453V79.2969H56.0547V91.0156Z" fill="#2E205B"/>
<path d="M70.7031 59.7656H76.5625V65.625H70.7031V59.7656Z" fill="#2E205B"/>
<path d="M82.4219 59.7656H88.2812V65.625H82.4219V59.7656Z" fill="#2E205B"/>
</svg>
