<svg width="30" height="30" viewBox="0 0 30 30" fill="none" xmlns="http://www.w3.org/2000/svg">
<g clip-path="url(#clip0)">
<path d="M7.24082 15.8232L21.1167 29.6607C21.5713 30.1139 22.3074 30.1131 22.7612 29.6584C23.2148 29.2038 23.2136 28.4673 22.7589 28.0139L9.70895 14.9999L22.7594 1.9861C23.214 1.53258 23.2152 0.796587 22.7617 0.341902C22.5342 0.113974 22.2361 7.62939e-06 21.9381 7.62939e-06C21.6408 7.62939e-06 21.3439 0.113211 21.1168 0.339558L7.24082 14.1767C7.02185 14.3946 6.89898 14.691 6.89898 14.9999C6.89898 15.3089 7.0222 15.605 7.24082 15.8232Z" fill="#2E205B"/>
</g>
<defs>
<clipPath id="clip0">
<rect width="30" height="30" fill="white" transform="translate(30 30) rotate(-180)"/>
</clipPath>
</defs>
</svg>
