<svg width="64" height="64" viewBox="0 0 64 64" fill="none" xmlns="http://www.w3.org/2000/svg">
<path fill-rule="evenodd" clip-rule="evenodd" d="M53.2237 10.6882C47.6105 5.06836 40.1453 1.97205 32.1923 1.96875C15.8043 1.96875 2.46692 15.3058 2.46033 31.6981C2.45813 36.9382 3.82703 42.0535 6.42895 46.5622L2.21094 61.9687L17.9723 57.8342C22.3152 60.2032 27.2045 61.4517 32.1802 61.4531H32.1926C48.5787 61.4531 61.9176 48.115 61.9238 31.7219C61.9271 23.7773 58.8374 16.3077 53.2237 10.6882ZM32.1923 56.432H32.182C27.7479 56.4302 23.3992 55.2385 19.6045 52.9874L18.7025 52.4517L9.34949 54.9053L11.8459 45.7862L11.2582 44.8513C8.78442 40.9167 7.47815 36.3691 7.48035 31.6999C7.48547 18.0751 18.5714 6.99023 32.2021 6.99023C38.8027 6.99243 45.0074 9.56616 49.673 14.2372C54.3385 18.9082 56.9064 25.1169 56.9042 31.7201C56.8983 45.3461 45.8131 56.432 32.1923 56.432V56.432ZM45.7472 37.9241C45.0045 37.552 41.3519 35.7554 40.6708 35.5071C39.9904 35.2591 39.4945 35.1357 38.9998 35.8791C38.5043 36.6226 37.0808 38.2961 36.6472 38.7916C36.2136 39.2875 35.7808 39.3497 35.0377 38.9777C34.2947 38.606 31.9011 37.8212 29.0634 35.2903C26.8551 33.3204 25.3643 30.8877 24.9307 30.1443C24.4978 29.4001 24.927 29.0369 25.2566 28.6282C26.0608 27.6295 26.8661 26.5825 27.1136 26.087C27.3616 25.5912 27.2374 25.1572 27.0514 24.7855C26.8661 24.4138 25.3804 20.7572 24.7615 19.2693C24.158 17.8213 23.546 18.0168 23.0897 17.9941C22.6569 17.9725 22.1614 17.9681 21.6659 17.9681C21.1708 17.9681 20.3658 18.1538 19.6847 18.8979C19.0039 19.6417 17.085 21.4387 17.085 25.0953C17.085 28.7519 19.7469 32.2844 20.1183 32.7803C20.4896 33.2761 25.3569 40.7798 32.809 43.9973C34.5814 44.7634 35.965 45.2201 37.0442 45.5625C38.824 46.1279 40.443 46.0481 41.7233 45.8569C43.1508 45.6434 46.1182 44.0596 46.7378 42.3245C47.3567 40.589 47.3567 39.1018 47.1706 38.7916C46.9853 38.4818 46.4899 38.2961 45.7472 37.9241V37.9241Z" fill="white"/>
</svg>
